<svg xmlns="http://www.w3.org/2000/svg" width="190" height="110" viewBox="0 0 190 110">
  <g id="Grupo_175352" data-name="Grupo 175352" transform="translate(-180 -2639)">
    <rect id="Rectángulo_40420" data-name="Rectángulo 40420" width="190" height="110" transform="translate(180 2639)" fill="none"/>
    <g id="Grupo_131655" data-name="Grupo 131655" transform="translate(0 -5043)">
      <rect id="Rectángulo_40418" data-name="Rectángulo 40418" width="50" height="50" rx="8" transform="translate(207 7687)" fill="#e2872c" opacity="0.2"/>
      <rect id="Rectángulo_40419" data-name="Rectángulo 40419" width="50" height="50" rx="8" transform="translate(293 7737)" fill="#5000c7" opacity="0.2"/>
    </g>
    <g id="Layer_1" transform="translate(-392.926 2402.08)">
      <g id="Grupo_175353" data-name="Grupo 175353" transform="translate(628.926 241.92)">
        <path id="Trazado_262605" data-name="Trazado 262605" d="M661.224,1008.117c-7.393,0-14.785-.094-16.567-.279a16.513,16.513,0,0,1-11.048-6.128c-.062-.074-.121-.147-.182-.224a20.424,20.424,0,0,1-4.064-8.739,21.876,21.876,0,0,1,.259-9.827c4.167-16,10.636-52.828,10.7-53.2a1.719,1.719,0,0,1,1.691-1.42h38.413a1.716,1.716,0,0,1,1.691,1.42c.065.37,6.534,37.2,10.7,53.2a21.876,21.876,0,0,1,.259,9.827,20.42,20.42,0,0,1-4.061,8.739c-.059.074-.12.147-.179.221a16.5,16.5,0,0,1-11.048,6.128c-1.779.191-9.172.282-16.564.282Zm-17.767-76.376c-1.238,6.966-6.775,37.725-10.507,52.048A17.915,17.915,0,0,0,636.1,999.33c.056.068.112.138.168.206a13.086,13.086,0,0,0,8.745,4.887c3.332.347,29.088.347,32.42,0a13.091,13.091,0,0,0,8.745-4.887c.056-.068.112-.138.168-.206a17.915,17.915,0,0,0,3.149-15.541c-3.732-14.324-9.269-45.082-10.507-52.048Z" transform="translate(-628.926 -908.117)" fill-rule="evenodd"/>
        <path id="Trazado_262606" data-name="Trazado 262606" d="M750.763,265.544H712.35a1.714,1.714,0,0,1-1.714-1.785c.315-7.866-8.439-14.212-8.528-14.277a1.725,1.725,0,0,1-.638-1.929,7.471,7.471,0,0,1,3.952-4.593c2.152-1.047,5.049-1.306,8.61-.767a44.213,44.213,0,0,1,8.492,2.3,37.129,37.129,0,0,0,12.853,2.27h20.008a1.719,1.719,0,0,1,1.444,2.649c-2.267,3.514-3.923,11.786-4.37,14.679A1.72,1.72,0,0,1,750.763,265.544ZM714.02,262.11h35.293A62.441,62.441,0,0,1,752.58,250.2h-17.2a40.547,40.547,0,0,1-14.041-2.482c-6.546-2.408-11.665-3-14.415-1.664a4.025,4.025,0,0,0-1.706,1.511,31.645,31.645,0,0,1,3.961,3.949,23.519,23.519,0,0,1,3.443,5.39A16.116,16.116,0,0,1,714.02,262.11Z" transform="translate(-699.256 -241.92)" fill-rule="evenodd"/>
        <path id="Trazado_262607" data-name="Trazado 262607" d="M720.762,2715.514a19.766,19.766,0,0,1-6.593-1.011,16.621,16.621,0,0,0-5.6-.865,15.637,15.637,0,0,0-5.472.859,21.284,21.284,0,0,1-13,0,17.868,17.868,0,0,0-10.945,0,21.284,21.284,0,0,1-13,0,15.539,15.539,0,0,0-5.246-.859,1.717,1.717,0,0,1,.029-3.435,18.913,18.913,0,0,1,6.246,1.015,17.873,17.873,0,0,0,10.945,0,21.27,21.27,0,0,1,13,0,17.873,17.873,0,0,0,10.945,0,18.983,18.983,0,0,1,6.5-1.018,19.765,19.765,0,0,1,6.593,1.011,16.628,16.628,0,0,0,5.6.865,1.719,1.719,0,0,1,0,3.438Z" transform="translate(-658.307 -2637.618)" fill-rule="evenodd"/>
        <path id="Trazado_262608" data-name="Trazado 262608" d="M2361.238,657.72h-.1a5.318,5.318,0,0,1-5.217-5.267c-.079-8.363-.982-19.44-2.558-24.43-1.394-4.408-3.849-8.842-12.31-11.439a1.716,1.716,0,0,1,1.006-3.282,22.545,22.545,0,0,1,10.469,6.175,19.571,19.571,0,0,1,4.108,7.513,65.8,65.8,0,0,1,1.991,11.783c.42,4.361.685,9.333.726,13.65a1.879,1.879,0,1,0,3.758-.023c-.085-8.91-1.109-20.884-2.894-26.536-1.006-3.182-5.226-13.727-17.326-15.826a1.716,1.716,0,1,1,.588-3.382,24.151,24.151,0,0,1,13.971,7.648,28.935,28.935,0,0,1,6.043,10.524c1.976,6.252,2.967,18.658,3.052,27.539a5.3,5.3,0,0,1-5.308,5.352Z" transform="translate(-2289.53 -595.907)" fill-rule="evenodd"/>
      </g>
      <path id="Trazado_262609" data-name="Trazado 262609" d="M831.6,360.756a31.645,31.645,0,0,1,3.961,3.949,23.518,23.518,0,0,1,3.443,5.39,16.136,16.136,0,0,1,1.4,5.208H875.7a77.188,77.188,0,0,1,1.929-8.16c.018-.068.035-.132.059-.2a37.684,37.684,0,0,1,1.276-3.558h-17.2a40.547,40.547,0,0,1-14.041-2.482c-6.546-2.408-11.665-3-14.415-1.664A4.041,4.041,0,0,0,831.6,360.756Z" transform="translate(-196.714 -113.193)" fill="#f3f9ff" fill-rule="evenodd"/>
      <path id="Trazado_262610" data-name="Trazado 262610" d="M800.863,1045.3c-1.159,6.516-6.078,33.846-9.763,49.075a19.051,19.051,0,0,1,4.093.9,17.868,17.868,0,0,0,10.945,0,21.272,21.272,0,0,1,13,0,17.868,17.868,0,0,0,10.945,0,18.991,18.991,0,0,1,6.5-1.017,19.758,19.758,0,0,1,6.593,1.012,17.072,17.072,0,0,0,3.382.753c-3.72-14.815-8.969-43.968-10.169-50.725Z" transform="translate(-157.405 -779.756)" fill="#f3f9ff" fill-rule="evenodd"/>
      <path id="Trazado_262611" data-name="Trazado 262611" d="M780.8,2828.976a19,19,0,0,1-6.5-1.017,17.868,17.868,0,0,0-10.945,0,21.284,21.284,0,0,1-13,0,15.18,15.18,0,0,0-3.911-.806,17.891,17.891,0,0,0,3.249,15.144l.168.206a13.084,13.084,0,0,0,8.745,4.887c3.332.347,29.088.347,32.42,0a13.1,13.1,0,0,0,8.745-4.887l.168-.206a17.768,17.768,0,0,0,3.576-13.356,19.386,19.386,0,0,1-5.137-.973,16.627,16.627,0,0,0-5.6-.865,15.635,15.635,0,0,0-5.472.859A19.093,19.093,0,0,1,780.8,2828.976Z" transform="translate(-113.586 -2509.16)" fill="#e2872c" fill-rule="evenodd"/>
      <path id="Trazado_262612" data-name="Trazado 262612" d="M2475.174,742.225a19.567,19.567,0,0,1,4.108,7.513,65.819,65.819,0,0,1,1.991,11.783c.42,4.361.685,9.333.726,13.65a1.879,1.879,0,1,0,3.758-.024c-.085-8.91-1.109-20.884-2.894-26.536-.962-3.046-4.873-12.839-15.817-15.512-.321,1.176-.606,2.355-.847,3.449A21.5,21.5,0,0,1,2475.174,742.225Z" transform="translate(-1783.247 -476.736)" fill="#81af1d" fill-rule="evenodd"/>
    </g>
  </g>
</svg>
