<svg xmlns="http://www.w3.org/2000/svg" xmlns:xlink="http://www.w3.org/1999/xlink" width="157" height="157" viewBox="0 0 157 157">
  <defs>
    <clipPath id="clip-path">
      <rect id="Rectángulo_44481" data-name="Rectángulo 44481" width="80" height="70.348" fill="none"/>
    </clipPath>
  </defs>
  <g id="Grupo_175356" data-name="Grupo 175356" transform="translate(-369.761 -5945)">
    <circle id="Elipse_5045" data-name="Elipse 5045" cx="78.5" cy="78.5" r="78.5" transform="translate(369.761 5945)" fill="#fff"/>
    <g id="Grupo_175287" data-name="Grupo 175287" transform="translate(408 5988.823)">
      <g id="Grupo_171752" data-name="Grupo 171752" clip-path="url(#clip-path)">
        <path id="Trazado_259248" data-name="Trazado 259248" d="M9.055,7.5a1.537,1.537,0,0,0-1.14,2.568l10.307,11.4A4.554,4.554,0,0,1,19.4,24.52V66.683A8.821,8.821,0,0,0,28.219,75.5h31.4a8.821,8.821,0,0,0,8.821-8.821V11.134A3.634,3.634,0,0,0,64.8,7.5Z" transform="translate(-6.341 -6.328)" fill="#ececec"/>
        <path id="Trazado_259249" data-name="Trazado 259249" d="M132.726,7.5h-1.053V62a8.821,8.821,0,0,1-8.821,8.821h-31.4a8.79,8.79,0,0,1-3.438-.7A8.823,8.823,0,0,0,96.141,75.5h31.4a8.821,8.821,0,0,0,8.821-8.821V11.134A3.635,3.635,0,0,0,132.726,7.5" transform="translate(-74.263 -6.328)" fill="#d9d9d9"/>
        <path id="Trazado_259250" data-name="Trazado 259250" d="M397.43,62.659V69.2h6.9a3.6,3.6,0,0,1,3.6,3.6V95.948a3.6,3.6,0,0,1-3.6,3.6h-6.9v6.539h11.246a5.484,5.484,0,0,0,5.484-5.484V68.143a5.484,5.484,0,0,0-5.484-5.484H397.43Z" transform="translate(-335.332 -52.869)" fill="#81af1d"/>
        <path id="Trazado_259251" data-name="Trazado 259251" d="M82.632,213.552l.759,41.562a8.821,8.821,0,0,0,8.821,8.821h31.4a8.821,8.821,0,0,0,8.821-8.821l-.759-41.562Z" transform="translate(-70.334 -194.759)" fill="#d3e3b0"/>
        <path id="Trazado_259252" data-name="Trazado 259252" d="M131.673,213.512v36.907a8.821,8.821,0,0,1-8.821,8.821h-31.4a8.79,8.79,0,0,1-3.438-.7,8.823,8.823,0,0,0,8.126,5.383h31.4a8.821,8.821,0,0,0,8.821-8.821V213.512Z" transform="translate(-74.263 -194.752)" fill="#81af20"/>
        <path id="Trazado_259253" data-name="Trazado 259253" d="M45.049,68H21.878a7.658,7.658,0,0,1-7.649-7.649V38.006h22.6a1.172,1.172,0,0,0,0-2.344h-22.6V18.192a5.715,5.715,0,0,0-1.479-3.84L2.443,2.953a.365.365,0,0,1,.271-.61h13.3a1.172,1.172,0,1,0,0-2.344H2.714A2.677,2.677,0,0,0,.238,1.609,2.677,2.677,0,0,0,.7,4.525l10.307,11.4a3.376,3.376,0,0,1,.873,2.268V60.355a10,10,0,0,0,9.993,9.993H45.049a1.172,1.172,0,0,0,0-2.344" transform="translate(0)"/>
        <path id="Trazado_259254" data-name="Trazado 259254" d="M183.005,8.619H172.931V4.806A4.812,4.812,0,0,0,168.125,0H131.141a1.172,1.172,0,1,0,0,2.344h36.984a2.465,2.465,0,0,1,2.463,2.462V60.355A7.658,7.658,0,0,1,162.939,68h-2.76a1.172,1.172,0,1,0,0,2.344h2.76a10,10,0,0,0,9.993-9.993V54.388h10.074a6.664,6.664,0,0,0,6.656-6.656V15.275A6.664,6.664,0,0,0,183.005,8.619ZM172.932,17.5h5.725a2.429,2.429,0,0,1,2.426,2.426V43.08a2.429,2.429,0,0,1-2.426,2.426h-5.725Zm14.386,30.231a4.317,4.317,0,0,1-4.312,4.312H172.931v-4.2h5.725a4.775,4.775,0,0,0,4.77-4.77V19.927a4.775,4.775,0,0,0-4.77-4.77h-5.725v-4.2h10.074a4.317,4.317,0,0,1,4.312,4.312Z" transform="translate(-109.661)"/>
        <path id="Trazado_259255" data-name="Trazado 259255" d="M291.049,84.044h-9.065a1.172,1.172,0,1,0,0,2.344h9.065a1.172,1.172,0,1,0,0-2.344" transform="translate(-236.935 -70.912)"/>
        <path id="Trazado_259256" data-name="Trazado 259256" d="M305.581,120.3h-6.374a1.172,1.172,0,1,0,0,2.344h6.374a1.172,1.172,0,1,0,0-2.344" transform="translate(-251.467 -101.507)"/>
        <path id="Trazado_259257" data-name="Trazado 259257" d="M281.984,158.907h9.065a1.172,1.172,0,0,0,0-2.344h-9.065a1.172,1.172,0,0,0,0,2.344" transform="translate(-236.935 -132.1)"/>
        <path id="Trazado_259258" data-name="Trazado 259258" d="M305.581,192.824h-6.374a1.172,1.172,0,1,0,0,2.344h6.374a1.172,1.172,0,1,0,0-2.344" transform="translate(-251.467 -162.695)"/>
        <path id="Trazado_259259" data-name="Trazado 259259" d="M281.984,231.427h9.065a1.172,1.172,0,1,0,0-2.344h-9.065a1.172,1.172,0,1,0,0,2.344" transform="translate(-236.935 -193.289)"/>
        <path id="Trazado_259260" data-name="Trazado 259260" d="M305.581,265.343h-6.374a1.172,1.172,0,0,0,0,2.344h6.374a1.172,1.172,0,0,0,0-2.344" transform="translate(-251.467 -223.883)"/>
        <path id="Trazado_259261" data-name="Trazado 259261" d="M281.984,303.947h9.065a1.172,1.172,0,1,0,0-2.344h-9.065a1.172,1.172,0,1,0,0,2.344" transform="translate(-236.935 -254.478)"/>
        <path id="Trazado_259262" data-name="Trazado 259262" d="M305.581,337.863h-6.374a1.172,1.172,0,1,0,0,2.344h6.374a1.172,1.172,0,1,0,0-2.344" transform="translate(-251.467 -285.072)"/>
        <path id="Trazado_259263" data-name="Trazado 259263" d="M281.984,376.467h9.065a1.172,1.172,0,1,0,0-2.344h-9.065a1.172,1.172,0,1,0,0,2.344" transform="translate(-236.935 -315.666)"/>
      </g>
    </g>
  </g>
</svg>
