<svg xmlns="http://www.w3.org/2000/svg" xmlns:xlink="http://www.w3.org/1999/xlink" width="157" height="157" viewBox="0 0 157 157">
  <defs>
    <clipPath id="clip-path">
      <rect id="Rectángulo_44490" data-name="Rectángulo 44490" width="80" height="79.943" fill="none"/>
    </clipPath>
  </defs>
  <g id="Grupo_175357" data-name="Grupo 175357" transform="translate(-722.761 -5945)">
    <circle id="Elipse_5046" data-name="Elipse 5046" cx="78.5" cy="78.5" r="78.5" transform="translate(722.761 5945)" fill="#fff"/>
    <g id="Grupo_175289" data-name="Grupo 175289" transform="translate(761 5984.025)">
      <path id="Trazado_259271" data-name="Trazado 259271" d="M1.2,66.12l4,4h6.658V68.784l-1.331-1.333,2.663-2.663L7.862,59.461Z" transform="translate(0.172 8.494)" fill="#8e4b19"/>
      <g id="Grupo_171756" data-name="Grupo 171756" transform="translate(0 0)">
        <g id="Grupo_171755" data-name="Grupo 171755" clip-path="url(#clip-path)">
          <path id="Trazado_259272" data-name="Trazado 259272" d="M6.738,58.353l4.385-4.385V51.3H25.772v4L14.729,66.344a1.332,1.332,0,0,1-1.883,0L6.738,60.237A1.332,1.332,0,0,1,6.738,58.353Z" transform="translate(0.907 7.329)" fill="#00587e"/>
          <rect id="Rectángulo_44486" data-name="Rectángulo 44486" width="26.363" height="5.649" transform="translate(16.018 54.635) rotate(-45)" fill="#e53935"/>
          <path id="Trazado_259273" data-name="Trazado 259273" d="M25.342,52.637H9.361V45.978a4,4,0,0,1,4-4h7.99a4,4,0,0,1,4,4Z" transform="translate(1.337 5.998)" fill="#f98800"/>
          <rect id="Rectángulo_44487" data-name="Rectángulo 44487" width="10.654" height="3.995" transform="translate(13.361 45.317)" fill="#f98800"/>
          <path id="Trazado_259274" data-name="Trazado 259274" d="M13.2,21.618A12.367,12.367,0,1,1,7.566,38.275,12.435,12.435,0,0,1,13.2,21.618" transform="translate(0.895 2.897)" fill="#fac8b2"/>
          <path id="Trazado_259275" data-name="Trazado 259275" d="M22.282,32.959a2.663,2.663,0,1,1-2.664,2.664,2.664,2.664,0,0,1,2.664-2.664" transform="translate(2.803 4.709)" fill="#f05a29"/>
          <path id="Trazado_259276" data-name="Trazado 259276" d="M26.931,23.263l-3.443,1.725-2.606,7.687-2.571-.84a2.739,2.739,0,0,0-3.44,1.722,2.669,2.669,0,0,0,1.662,3.389l.041.014,2.573.84-2.419,7.136a12.311,12.311,0,0,1-9.17-6.653A12.528,12.528,0,0,1,26.931,23.263Z" transform="translate(0.894 2.898)" fill="#683b11"/>
          <path id="Trazado_259277" data-name="Trazado 259277" d="M27.22,38.3l-3.05-1.015-3.927-7.843a1.332,1.332,0,0,0-2.382,1.193l2.734,5.461-9.458-3.147a1.332,1.332,0,0,0-.841,2.527l16.083,5.352a1.332,1.332,0,1,0,.866-2.519Z" transform="translate(1.344 4.101)" fill="#c1641f"/>
          <path id="Trazado_259278" data-name="Trazado 259278" d="M24.384,36.22a1.333,1.333,0,0,1-1.331-1.334,1.349,1.349,0,0,1,.07-.426,2.711,2.711,0,0,1,2.288-1.817,2.71,2.71,0,0,1,2.827-.743,1.332,1.332,0,0,1-.827,2.531.039.039,0,0,0-.046.023,1.331,1.331,0,0,1-1.674.839.038.038,0,0,0-.045.023A1.333,1.333,0,0,1,24.384,36.22Z" transform="translate(3.293 4.539)" fill="#683b11"/>
          <path id="Trazado_259279" data-name="Trazado 259279" d="M24.787,29.222a1.332,1.332,0,1,1-1.331,1.331,1.331,1.331,0,0,1,1.331-1.331" transform="translate(3.351 4.175)" fill="#2c3f51"/>
          <path id="Trazado_259280" data-name="Trazado 259280" d="M2.961,36.543l-.6.3a2,2,0,1,0,1.789,3.571L32.734,26.1a2,2,0,1,0-1.787-3.571l-.6.3a13.753,13.753,0,0,0-6.526-6.095L21.7,12.484s-4.718-.83-11.6,2.616A15.657,15.657,0,0,0,2.961,36.543Z" transform="translate(0.166 1.771)" fill="#ff0"/>
          <path id="Trazado_259281" data-name="Trazado 259281" d="M33.626,22.654a2,2,0,0,0-2.68-.891l-.6.3a12.4,12.4,0,0,0-3.573-4.273A28.679,28.679,0,0,1,14.9,23.558,18.2,18.2,0,0,1,2.65,21.819a15.649,15.649,0,0,0,.312,13.954l-.6.3a1.991,1.991,0,0,0-.9,2.667,2.013,2.013,0,0,0,.291.433L33.8,23.153a1.976,1.976,0,0,0-.17-.5" transform="translate(0.166 2.541)" fill="#ffec00"/>
          <path id="Trazado_259282" data-name="Trazado 259282" d="M14.717,24.329a28.679,28.679,0,0,0,11.874-5.771,17.185,17.185,0,0,0-2.953-1.821l-2.129-4.253s-4.719-.83-11.6,2.615A16.251,16.251,0,0,0,2.463,22.59a18.209,18.209,0,0,0,12.254,1.738" transform="translate(0.352 1.771)" fill="#ff0"/>
          <path id="Trazado_259283" data-name="Trazado 259283" d="M1.683,38.5a2,2,0,0,0,2.4.472L32.659,24.665a2,2,0,0,0,1.062-2.183Z" transform="translate(0.24 3.212)" fill="#fcc200"/>
          <path id="Trazado_259285" data-name="Trazado 259285" d="M22.053,17.877a1.319,1.319,0,0,1-.586-.137,13.127,13.127,0,0,0-6.521-1.322,1.332,1.332,0,0,1-.15-2.659,15.8,15.8,0,0,1,7.846,1.592,1.331,1.331,0,0,1-.589,2.527Z" transform="translate(1.934 1.962)" fill="#fcc200"/>
          <path id="Trazado_259286" data-name="Trazado 259286" d="M2.9,35.249a1.332,1.332,0,0,1-.6-2.522l3.573-1.789A1.332,1.332,0,0,1,7.1,33.3l-.031.016L3.5,35.107a1.311,1.311,0,0,1-.594.142" transform="translate(0.224 4.398)" fill="#fcc200"/>
          <path id="Trazado_259287" data-name="Trazado 259287" d="M23.743,24.813a1.332,1.332,0,0,1-.6-2.523L26.718,20.5a1.332,1.332,0,0,1,1.193,2.382l-3.573,1.789A1.316,1.316,0,0,1,23.743,24.813Z" transform="translate(3.201 2.909)" fill="#fcc200"/>
          <path id="Trazado_259288" data-name="Trazado 259288" d="M30.336,32.161l3.994,4,1.331-1.331V26.834H34.33a3.994,3.994,0,0,0-3.994,4Z" transform="translate(4.334 3.834)" fill="#f9ce95"/>
          <rect id="Rectángulo_44488" data-name="Rectángulo 44488" width="15.981" height="3.995" transform="translate(10.698 51.975)" fill="#ff0"/>
          <rect id="Rectángulo_44489" data-name="Rectángulo 44489" width="15.981" height="1.331" transform="translate(10.698 53.307)" fill="#dff1fc"/>
          <path id="Trazado_259289" data-name="Trazado 259289" d="M73.994,14.515V1.2H69.077l-1.05,4.142c-2.021.319-2.2.349-4.225.666L61.553,2.424c-2.3.745-1.993.648-4.29,1.393l.283,4.223L53.737,9.983,50.463,7.259,46.815,9.912,48.4,13.859c-1.448,1.447-1.578,1.577-3.024,3.025L41.425,15.3l-2.654,3.646L41.5,22.222c-.93,1.823-1.015,1.987-1.944,3.81l-4.223-.282c-.746,2.3-.648,1.991-1.394,4.289l3.582,2.249c-.319,2.022-.349,2.2-.666,4.225l-4.142,1.05v4.509l4.142,1.05c.318,2.021.347,2.2.666,4.225L33.937,49.6c.746,2.3.648,1.993,1.394,4.29l4.223-.283c.929,1.823,1.014,1.989,1.943,3.809l-2.726,3.274c1.422,1.953,1.234,1.695,2.654,3.648l3.947-1.582c1.447,1.448,1.576,1.578,3.024,3.024l-1.581,3.947,3.646,2.654,3.274-2.727,3.81,1.944-.283,4.224,4.29,1.393L63.8,73.631l4.225.665,1.05,4.142h4.917V65.122H71.332a25.184,25.184,0,0,1-15.91-5.629L66.9,48.019a9.343,9.343,0,0,0,7.1.735V30.882a9.344,9.344,0,0,0-7.1.736L55.422,20.143a25.184,25.184,0,0,1,15.91-5.629ZM63.129,35.383a9.338,9.338,0,0,0,0,8.87L51.656,55.727a25.3,25.3,0,0,1,0-31.818Z" transform="translate(4.673 0.171)" fill="#e2872c"/>
          <path id="Trazado_259293" data-name="Trazado 259293" d="M1.249,66.12l4,4H11.9V68.784l-1.331-1.333,2.663-2.663L7.907,59.461Z" transform="translate(0.178 8.495)" fill="#8e4b19"/>
          <path id="Trazado_259294" data-name="Trazado 259294" d="M6.783,58.353l4.384-4.385V51.3h14.65v4L14.774,66.344a1.333,1.333,0,0,1-1.885,0L6.783,60.237A1.33,1.33,0,0,1,6.783,58.353Z" transform="translate(0.913 7.329)" fill="#00587e"/>
          <path id="Trazado_259295" data-name="Trazado 259295" d="M16.231,59.462,8.24,67.453v2.663H20.226V68.784a2.665,2.665,0,0,0-2.664-2.664l2.664-2.663Z" transform="translate(1.177 8.495)" fill="#c1641f"/>
          <path id="Trazado_259296" data-name="Trazado 259296" d="M27.09,57.022,25.334,55.3v-4H9.4v1.333a6.658,6.658,0,0,0,6.658,6.658l-.39.39a1.332,1.332,0,0,0,0,1.883l3.443,3.445a1.332,1.332,0,0,0,1.883,0l6.1-6.1a1.332,1.332,0,0,0,0-1.883l-.009-.009" transform="translate(1.344 7.329)" fill="#007bb1"/>
          <path id="Trazado_259297" data-name="Trazado 259297" d="M32.711,38.487l-4,4H16.73a2.663,2.663,0,1,0,0,5.327H31.379l5.327-5.327Z" transform="translate(2.009 5.498)" fill="#e53935"/>
          <path id="Trazado_259298" data-name="Trazado 259298" d="M30.38,39.153l4,4,1.331-1.331V33.826H34.375a4,4,0,0,0-4,4Z" transform="translate(4.34 4.832)" fill="#f9ce95"/>
          <path id="Trazado_259299" data-name="Trazado 259299" d="M79.893,31.433a1.332,1.332,0,0,1-1.657.9,8.013,8.013,0,0,0-6.082.63,1.328,1.328,0,0,1-1.576-.227c-.05-.313-12.846-12.184-11.863-12.485a1.324,1.324,0,0,1,.49-.966c5.4-4.483,12.465-6.3,19.411-5.927a1.332,1.332,0,0,1,0,2.664c-5.831-.3-11.807.949-16.552,4.433l9.729,9.729a10.682,10.682,0,0,1,4.16-.845c1.378.106,4.387,0,3.939,2.1m-10.97,4.755a8.041,8.041,0,0,0,0,7.6,1.331,1.331,0,0,1-.23,1.576L57.22,56.84a1.338,1.338,0,0,1-1.894-.013c-.03-.03-.056-.059-.082-.09a26.778,26.778,0,0,1,0-33.5,1.332,1.332,0,0,1,.966-.491c.187-1.077,12.253,11.879,12.485,11.863a1.328,1.328,0,0,1,.227,1.577ZM65.3,39.99a10.727,10.727,0,0,1,.845-4.16L56.415,26.1a24.1,24.1,0,0,0,0,27.778l9.728-9.729A10.727,10.727,0,0,1,65.3,39.99ZM75.953,50.643c1.383-.11,4.384,0,3.939-2.1a1.331,1.331,0,0,0-1.656-.9,8.011,8.011,0,0,1-6.083-.631,1.33,1.33,0,0,0-1.576.229L59.1,58.722a1.341,1.341,0,0,0,.014,1.895c.029.029.061.056.09.081,5.579,4.554,12.29,6.259,19.411,5.926a1.331,1.331,0,0,0,0-2.663c-5.831.3-11.807-.949-16.552-4.433L71.793,49.8A10.682,10.682,0,0,0,75.953,50.643ZM80,78.61a1.331,1.331,0,0,1-1.331,1.331H73.75a1.331,1.331,0,0,1-1.289-1l-.835-3.29-2.49-.392c-3.024,4.874-1.742,3.667-7.61,2a1.33,1.33,0,0,1-.918-1.355l.224-3.346-2.246-1.146c-4.424,3.728-2.821,2.96-7.881-.435a1.332,1.332,0,0,1-.453-1.571l1.255-3.131-1.782-1.782-3.131,1.254c-1.146.478-1.769-.726-2.323-1.486-2.83-3.957-2.993-2.878.314-6.849L43.44,55.163c-5.431.4-4.109.707-5.838-4.187L34.33,54.249a1.335,1.335,0,0,1-.942.39H28.062v7.439l2.273,2.273a1.332,1.332,0,0,1,0,1.883l-7.991,7.991a1.325,1.325,0,0,1-.659.359c1.047,1.042,1.114,2.6,1.049,4.026A1.332,1.332,0,0,1,21.4,79.942H12.08c-1.565,0-5.066,0-6.659,0a1.332,1.332,0,0,1-.941-.39l-4-4a1.332,1.332,0,0,1,0-1.883l5.8-5.8a2.673,2.673,0,0,1,.466-3.131l2.893-2.89a12.758,12.758,0,0,1-.226-3.217V51.975A5.333,5.333,0,0,1,12.31,47.24a13.632,13.632,0,0,1-4.824-5.125c-.96.4-2.933,1.714-4,1.613a3.34,3.34,0,0,1-2.027-5.975C-4.911,22.1,11.013,11.673,22.142,12.944a1.332,1.332,0,0,1,.96.715l1.931,3.859a15.373,15.373,0,0,1,6.1,5.374,3.333,3.333,0,0,1,2.417,6.176l-1.331.667a13.553,13.553,0,0,1,1.2,4.358,5.34,5.34,0,0,1,4.025-4.6c1.977-5.382.312-5.086,6-4.673.457-.9.733-1.434,1.146-2.246-3.728-4.424-2.96-2.821.435-7.881a1.334,1.334,0,0,1,1.573-.453l3.13,1.255c.726-.727,1.056-1.057,1.782-1.782l-1.253-3.131c-.49-1.169.781-1.8,1.543-2.366,3.926-2.833,2.867-2.89,6.791.357l2.246-1.145L60.607,4.08a1.333,1.333,0,0,1,.918-1.355c5.867-1.664,4.586-2.875,7.611,2l2.489-.393c1.41-5.662.463-4.053,7.042-4.295a1.332,1.332,0,0,1,0,2.663H74.786l-.794,3.138a1.332,1.332,0,0,1-1.086.987c-5.754.686-4.4,1.93-7.256-2.643l-2.315.752.213,3.189A1.33,1.33,0,0,1,62.825,9.4c-5.257,2.431-3.571,3.209-7.744-.281-.841.613-1.216.886-1.97,1.433C55.14,15.585,54.93,13.738,50.988,18a1.331,1.331,0,0,1-1.438.295l-2.984-1.2-1.434,1.969L47.2,21.542c.734.786-.057,1.863-.427,2.614-2.081,4.061-1.126,3.445-5.818,3.165L40.2,29.635l2.7,1.7a1.33,1.33,0,0,1,.607,1.335l-.665,4.224c-.1.8-.869,1.113-1.575,1.232a25.871,25.871,0,0,1,.112,3.759,1.546,1.546,0,0,1,1.463,1.2l.665,4.225a1.329,1.329,0,0,1-.607,1.334l-2.7,1.7.752,2.315,3.189-.213a1.328,1.328,0,0,1,1.275.723c2.431,5.256,3.208,3.57-.282,7.743l1.434,1.97c5.033-2.029,3.189-1.819,7.446,2.123a1.334,1.334,0,0,1,.295,1.438l-1.2,2.984,1.968,1.433L57.557,68.8c.807-.758,1.942.111,2.711.478,4.032,2.032,3.314,1.191,3.066,5.768l2.317.752c2.857-4.571,1.5-3.329,7.256-2.643a1.334,1.334,0,0,1,1.086.989l.794,3.137h3.881A1.33,1.33,0,0,1,80,78.61ZM17.007,37.349a1.336,1.336,0,0,0,.927,1.243c.554.257,2.934.735,3.239,1.33l.818.272-1.9-3.786-.733-.239Zm3.839,5.271-1.363,4.023a11.287,11.287,0,0,0,6.8-2.213Zm6.91,4.029h2.418l3.215-3.214a5.629,5.629,0,0,1,1.973-4.915l-.64-.641-1.949,1.947a13.939,13.939,0,0,1-5.017,6.823m10.96-6.658c-1.921.043-2.861,1.661-2.664,3.443L38.716,46.1Zm-2.664-4.546,1,1,3.293-.835.392-2.489L38.953,32C36.926,31.91,35.838,33.544,36.052,35.443Zm-6.219-4.517-6.05,3.03c-.049.118-.738,2.249-.8,2.273l2.581,5.153,2.88.959a11.136,11.136,0,0,0,1.5-2.539,1.887,1.887,0,0,1-.952.053A1.332,1.332,0,0,1,26.466,39a2.709,2.709,0,0,1,2.288-1.817,2.724,2.724,0,0,1,2.038-.875,10.864,10.864,0,0,0-.959-5.379ZM18.706,15.609c-.209.025-.434.056-.673.093a15.867,15.867,0,0,1,3.329.433l-.311-.623A14.351,14.351,0,0,0,18.706,15.609ZM7.486,39.136l22.36-11.194,2.507-1.256a.674.674,0,0,0-.088-1.227c-.246-.155-.854.21-1.1.335-.423.151-3.776,2.046-4.167,1.93a1.338,1.338,0,0,1-.6-2.523L28.7,24.046A13.878,13.878,0,0,0,16.93,18.379a1.341,1.341,0,0,1-1.067-2.218C6.5,18.3-.048,26.895,3.822,36.5l2.331-1.167a1.332,1.332,0,0,1,1.192,2.382L3.774,39.506c-.243.121-.917.4-.93.683a.673.673,0,0,0,.93.8Zm9.3,7.157,1.53-4.513-6.105-2.031L9.869,40.922a11.026,11.026,0,0,0,6.92,5.37ZM8.636,66.624c-.021-.022,3.969,3.969,4.112,4.111L14.9,68.581a1.339,1.339,0,0,1-.083-1.058A8.032,8.032,0,0,1,10.8,64.458ZM5.974,77.279H8.086c.041-.64-.181-1.8.391-2.274l2.387-2.387L8.086,69.84,3.31,74.615Zm14.1,0c-.177-1.975-1.982-.733-2.562-2.154-.5-1.027.754-1.872,1.345-2.507l-2.112-2.112L10.749,76.5v.781Zm7.44-11.986c-2.671-2.651-2.045-1.631-2.112-5.327H12.081a5.352,5.352,0,0,0,5.327,5.327,1.34,1.34,0,0,1,.942,2.273l-.391.391L21.4,71.4ZM25.4,54.639H18.74a4.01,4.01,0,0,1-3.767-5.327,2.688,2.688,0,0,0-2.885,2.474q-.007.094-.007.189V57.3H25.4Zm11.435-6.658-2.112-2.112-3.054,3.053a1.332,1.332,0,0,1-.943.391H18.74a1.331,1.331,0,0,0,0,2.663h14.1ZM28.786,35.919a1.332,1.332,0,0,0-1.192-2.382,1.332,1.332,0,0,0,1.192,2.382Z" transform="translate(0 0)"/>
        </g>
      </g>
    </g>
  </g>
</svg>
