<svg id="Grupo_174021" data-name="Grupo 174021" xmlns="http://www.w3.org/2000/svg" xmlns:xlink="http://www.w3.org/1999/xlink" width="72.84" height="84.798" viewBox="0 0 72.84 84.798">
  <defs>
    <clipPath id="clip-path">
      <rect id="Rectángulo_44580" data-name="Rectángulo 44580" width="72.84" height="84.798" fill="none"/>
    </clipPath>
    <clipPath id="clip-path-3">
      <rect id="Rectángulo_44576" data-name="Rectángulo 44576" width="15.879" height="26.152" fill="none"/>
    </clipPath>
    <clipPath id="clip-path-4">
      <rect id="Rectángulo_44577" data-name="Rectángulo 44577" width="11.048" height="8.435" fill="none"/>
    </clipPath>
    <clipPath id="clip-path-5">
      <rect id="Rectángulo_44578" data-name="Rectángulo 44578" width="49.501" height="29.626" fill="none"/>
    </clipPath>
  </defs>
  <g id="Grupo_174020" data-name="Grupo 174020" clip-path="url(#clip-path)">
    <g id="Grupo_174019" data-name="Grupo 174019">
      <g id="Grupo_174018" data-name="Grupo 174018" clip-path="url(#clip-path)">
        <path id="Trazado_259447" data-name="Trazado 259447" d="M75.443,216.474s-12.314-5.961-12.314-21.916c0-15.539,11.273-16.913,9.215-29.5,0,0,8.506,4.5,7.153,15.812,2.485-8.115,6.113-8.856,8.31-14.061,2.871-6.806-.51-13.249-.51-13.249s22.906,4.859,16.121,32.284c6.572-5.487,6.786-15.834,6.786-15.834s8.557,6.694,8.557,24.546c0,15.957-12.314,21.919-12.314,21.919Z" transform="translate(-54.524 -132.63)" fill="#ff3245"/>
        <path id="Trazado_259448" data-name="Trazado 259448" d="M182.661,422.747s-5.013-3.708-5.013-11.819c0-8.7,7.113-13.3,7.113-13.3s-2.581,5.4,1.123,9.246c0,0,6.554-4.773,4.188-14.484,0,0,20.895,12.755,7.507,30.357Z" transform="translate(-153.433 -338.903)" fill="#ffce12"/>
        <path id="Trazado_259449" data-name="Trazado 259449" d="M125.239,610H74.3a.954.954,0,0,1,0-1.908h50.936a.954.954,0,0,1,0,1.908" transform="translate(-63.351 -525.201)" fill="#ea7520"/>
        <path id="Trazado_259450" data-name="Trazado 259450" d="M72.841,220.286c.078,16.457-16.166,29.875-36.278,29.97S.079,237.087,0,220.631Z" transform="translate(-0.001 -190.259)" fill="#ccc"/>
        <path id="Trazado_259451" data-name="Trazado 259451" d="M20.426,149.746c3.352-.462,6.993-.79,10.826-.955q2.509-.108,5.121-.122c20.114-.1,36.441,4.275,36.467,9.761s-16.259,10.01-36.373,10.1S.026,164.26,0,158.775c-.009-1.854,1.845-3.6,5.08-5.1" transform="translate(0 -128.403)" fill="#a0a09d"/>
        <path id="Trazado_259452" data-name="Trazado 259452" d="M63.2,40.035A97.7,97.7,0,0,1,44.564,37.69c-8.723-4.834-7.183-17.262-6.009-20.758a2.549,2.549,0,0,1,3.228-1.6l.017.006a2.551,2.551,0,0,0,3.238-1.586L48.832,2.671a3.95,3.95,0,0,1,7.474,2.56c-.021.063-.043.125-.068.187-3.207,8.053-9.176,26.292,6.951,34.522Z" transform="translate(-32.51 0)" fill="#f5d5b5"/>
        <path id="Trazado_259453" data-name="Trazado 259453" d="M378.372,212.939c-.79,1.648-1.818,3.373-2.835,3.872l-.01.08a81.2,81.2,0,0,1-12.867,2.347,19.122,19.122,0,0,0,9.745-9.2,3.318,3.318,0,0,1,4.039-1.664l.016.005a3.311,3.311,0,0,1,1.913,4.562" transform="translate(-313.225 -179.815)" fill="#f5d5b5"/>
        <g id="Grupo_174011" data-name="Grupo 174011" transform="translate(5.131 0.001)" opacity="0.3" style="isolation: isolate">
          <g id="Grupo_174010" data-name="Grupo 174010">
            <g id="Grupo_174009" data-name="Grupo 174009" clip-path="url(#clip-path-3)">
              <path id="Trazado_259454" data-name="Trazado 259454" d="M42.607,20.863C49.325,18.9,52.552,5.187,53.524.123a3.951,3.951,0,0,0-4.688,2.554L45.042,13.753A2.55,2.55,0,0,1,41.8,15.339a2.549,2.549,0,0,0-3.239,1.582l-.006.017a24.253,24.253,0,0,0-.784,9.22,6.544,6.544,0,0,1,4.831-5.295" transform="translate(-37.645 -0.006)" fill="#fbeddf"/>
            </g>
          </g>
        </g>
        <g id="Grupo_174014" data-name="Grupo 174014" transform="translate(53.847 28.379)" opacity="0.3" style="isolation: isolate">
          <g id="Grupo_174013" data-name="Grupo 174013">
            <g id="Grupo_174012" data-name="Grupo 174012" clip-path="url(#clip-path-4)">
              <path id="Trazado_259455" data-name="Trazado 259455" d="M395.033,216.63c5.958-.267,9.58-4.717,11.048-6.988a3.29,3.29,0,0,0-1.661-1.265l-.016-.005a3.319,3.319,0,0,0-4.039,1.664A19.643,19.643,0,0,1,395.033,216.63Z" transform="translate(-395.033 -208.195)" fill="#fff"/>
            </g>
          </g>
        </g>
        <g id="Grupo_174017" data-name="Grupo 174017" transform="translate(0 30.372)" opacity="0.3" style="isolation: isolate">
          <g id="Grupo_174016" data-name="Grupo 174016">
            <g id="Grupo_174015" data-name="Grupo 174015" clip-path="url(#clip-path-5)">
              <path id="Trazado_259456" data-name="Trazado 259456" d="M20.863,231.693C8.548,230.158.021,226.778,0,222.815c.078,16.457,16.447,29.72,36.561,29.626a43.566,43.566,0,0,0,12.94-2c-21.944-3.642-27.322-13.9-28.64-18.745" transform="translate(-0.002 -222.815)" fill="#fff"/>
            </g>
          </g>
        </g>
      </g>
    </g>
  </g>
</svg>
