<svg xmlns="http://www.w3.org/2000/svg" width="1020.171" height="195.902" viewBox="0 0 1020.171 195.902">
  <g id="Grupo_223748" data-name="Grupo 223748" transform="translate(-290 -9700)">
    <path id="Trazado_262616" data-name="Trazado 262616" d="M15,0H336.483a15,15,0,0,1,15,15v7.9a15,15,0,0,1-15,15H15a15.465,15.465,0,0,1-4.74-.764A14.913,14.913,0,0,1,0,22.9V15A15,15,0,0,1,15,0Z" transform="translate(625 9700)" fill="#81af1d"/>
    <path id="Trazado_262707" data-name="Trazado 262707" d="M9.789-9.258H6.375V0H3.633V-9.258H.281v-2.117H9.789ZM13.6,0H10.961V-8.453H13.6ZM10.8-10.633a1.175,1.175,0,0,1,.406-.922,1.533,1.533,0,0,1,1.055-.359,1.533,1.533,0,0,1,1.055.359,1.175,1.175,0,0,1,.406.922,1.175,1.175,0,0,1-.406.922,1.533,1.533,0,0,1-1.055.359,1.533,1.533,0,0,1-1.055-.359A1.175,1.175,0,0,1,10.8-10.633ZM23.07-4.164a5.1,5.1,0,0,1-.887,3.145A2.843,2.843,0,0,1,19.789.156,2.437,2.437,0,0,1,17.875-.7V3.25H15.242v-11.7H17.7l.078.781a2.437,2.437,0,0,1,1.992-.937A2.866,2.866,0,0,1,22.2-7.457a5.16,5.16,0,0,1,.867,3.168Zm-2.633-.164q0-2.25-1.312-2.25a1.239,1.239,0,0,0-1.25.672v3.328a1.279,1.279,0,0,0,1.266.7q1.258,0,1.3-2.172ZM23.9-4.3a4.989,4.989,0,0,1,.492-2.254A3.52,3.52,0,0,1,25.8-8.078a4.259,4.259,0,0,1,2.164-.531,3.887,3.887,0,0,1,2.992,1.176,4.512,4.512,0,0,1,1.094,3.2v.094A4.378,4.378,0,0,1,30.957-1,3.9,3.9,0,0,1,27.984.156a3.942,3.942,0,0,1-2.9-1.082,4.232,4.232,0,0,1-1.18-2.934Zm2.633.164A3.145,3.145,0,0,0,26.9-2.422a1.223,1.223,0,0,0,1.086.547q1.406,0,1.438-2.164V-4.3q0-2.273-1.453-2.273-1.32,0-1.43,1.961ZM37.641-2.375a.608.608,0,0,0-.352-.539,5.348,5.348,0,0,0-1.336-.422,6.092,6.092,0,0,1-1.625-.574,2.722,2.722,0,0,1-.977-.863,2.061,2.061,0,0,1-.336-1.164,2.336,2.336,0,0,1,.961-1.918,3.958,3.958,0,0,1,2.516-.754,4.386,4.386,0,0,1,2.688.758A2.37,2.37,0,0,1,40.2-5.859H37.555q0-1.016-1.07-1.016a1.061,1.061,0,0,0-.7.23.714.714,0,0,0-.281.574.655.655,0,0,0,.344.57,3.248,3.248,0,0,0,1.1.359,9.485,9.485,0,0,1,1.324.336A2.406,2.406,0,0,1,40.18-2.453,2.214,2.214,0,0,1,39.152-.57a4.505,4.505,0,0,1-2.66.727,4.6,4.6,0,0,1-1.937-.391A3.24,3.24,0,0,1,33.227-1.3a2.406,2.406,0,0,1-.477-1.414h2.461a1.017,1.017,0,0,0,.391.855,1.607,1.607,0,0,0,.961.27,1.264,1.264,0,0,0,.809-.219A.7.7,0,0,0,37.641-2.375Zm7.422-1.914a5.164,5.164,0,0,1,.867-3.164,2.854,2.854,0,0,1,2.422-1.156,2.428,2.428,0,0,1,1.906.891V-12H52.9V0H50.531L50.4-.906A2.493,2.493,0,0,1,48.336.156,2.849,2.849,0,0,1,45.945-1,5.327,5.327,0,0,1,45.063-4.289Zm2.633.164q0,2.25,1.313,2.25a1.3,1.3,0,0,0,1.25-.734V-5.828a1.261,1.261,0,0,0-1.234-.75q-1.219,0-1.32,1.969ZM58.484.156A4.345,4.345,0,0,1,55.336-1a4.006,4.006,0,0,1-1.2-3.02v-.219a5.191,5.191,0,0,1,.48-2.289,3.516,3.516,0,0,1,1.4-1.535A4.233,4.233,0,0,1,58.2-8.609,3.659,3.659,0,0,1,61.016-7.5a4.344,4.344,0,0,1,1.031,3.082V-3.4H56.813a1.9,1.9,0,0,0,.617,1.117,1.836,1.836,0,0,0,1.234.406,2.366,2.366,0,0,0,1.953-.875l1.2,1.422A3.363,3.363,0,0,1,60.426-.246,4.713,4.713,0,0,1,58.484.156Zm-.3-6.734q-1.156,0-1.375,1.531h2.656v-.2a1.3,1.3,0,0,0-.32-.98A1.275,1.275,0,0,0,58.188-6.578Zm12.477,4.7a1.171,1.171,0,0,0,.859-.3,1.1,1.1,0,0,0,.3-.84h2.469a2.922,2.922,0,0,1-1,2.281,3.705,3.705,0,0,1-2.566.891A3.751,3.751,0,0,1,67.82-1a4.556,4.556,0,0,1-1.062-3.2v-.109a5.149,5.149,0,0,1,.473-2.262,3.441,3.441,0,0,1,1.363-1.508A4.065,4.065,0,0,1,70.7-8.609,3.658,3.658,0,0,1,73.32-7.7a3.242,3.242,0,0,1,.969,2.477H71.82a1.445,1.445,0,0,0-.32-1.008,1.106,1.106,0,0,0-.859-.352q-1.023,0-1.2,1.3a9.206,9.206,0,0,0-.055,1.141,3.616,3.616,0,0,0,.3,1.766A1.055,1.055,0,0,0,70.664-1.875ZM80.164,0a2.973,2.973,0,0,1-.25-.758,2.448,2.448,0,0,1-2.031.914,3,3,0,0,1-2.031-.723,2.3,2.3,0,0,1-.836-1.816,2.364,2.364,0,0,1,1.016-2.078,5.174,5.174,0,0,1,2.953-.7H79.8v-.448q0-1.17-1.008-1.17a.824.824,0,0,0-.937.926H75.219a2.36,2.36,0,0,1,1.043-1.99,4.383,4.383,0,0,1,2.66-.765,3.843,3.843,0,0,1,2.555.789,2.743,2.743,0,0,1,.961,2.164v3.742A3.832,3.832,0,0,0,82.8-.133V0ZM78.516-1.719a1.469,1.469,0,0,0,.816-.211,1.322,1.322,0,0,0,.465-.477V-3.758h-.766q-1.375,0-1.375,1.234a.754.754,0,0,0,.242.582A.876.876,0,0,0,78.516-1.719ZM79.172-12h2.781L79.781-9.547l-2.148,0Zm7.211,3.547.086.992a2.906,2.906,0,0,1,2.414-1.148,2.14,2.14,0,0,1,2.164,1.273,2.813,2.813,0,0,1,2.484-1.273q2.57,0,2.641,3.109V0H93.531V-5.336a1.611,1.611,0,0,0-.219-.945.931.931,0,0,0-.8-.3,1.247,1.247,0,0,0-1.164.7l.008.109V0H88.719V-5.32a1.694,1.694,0,0,0-.211-.961.929.929,0,0,0-.8-.3,1.263,1.263,0,0,0-1.156.7V0H83.914V-8.453ZM102.438,0a2.973,2.973,0,0,1-.25-.758,2.448,2.448,0,0,1-2.031.914,3,3,0,0,1-2.031-.723,2.3,2.3,0,0,1-.836-1.816A2.364,2.364,0,0,1,98.3-4.461a5.174,5.174,0,0,1,2.953-.7h.813v-.448q0-1.17-1.008-1.17a.824.824,0,0,0-.937.926H97.492a2.36,2.36,0,0,1,1.043-1.99,4.383,4.383,0,0,1,2.66-.765,3.843,3.843,0,0,1,2.555.789,2.743,2.743,0,0,1,.961,2.164v3.742a3.832,3.832,0,0,0,.359,1.781V0Zm-1.648-1.719a1.469,1.469,0,0,0,.816-.211,1.322,1.322,0,0,0,.465-.477V-3.758H101.3q-1.375,0-1.375,1.234a.754.754,0,0,0,.242.582A.876.876,0,0,0,100.789-1.719ZM111.281-6.07l-.867-.062a1.558,1.558,0,0,0-1.594.781V0h-2.633V-8.453h2.469l.086,1.086a2.039,2.039,0,0,1,1.852-1.242,2.567,2.567,0,0,1,.734.094ZM116.758,0a2.973,2.973,0,0,1-.25-.758,2.448,2.448,0,0,1-2.031.914,3,3,0,0,1-2.031-.723,2.3,2.3,0,0,1-.836-1.816,2.364,2.364,0,0,1,1.016-2.078,5.174,5.174,0,0,1,2.953-.7h.813v-.448q0-1.17-1.008-1.17a.824.824,0,0,0-.937.926h-2.633a2.36,2.36,0,0,1,1.043-1.99,4.383,4.383,0,0,1,2.66-.765,3.843,3.843,0,0,1,2.555.789,2.743,2.743,0,0,1,.961,2.164v3.742a3.832,3.832,0,0,0,.359,1.781V0Zm-1.648-1.719a1.469,1.469,0,0,0,.816-.211,1.322,1.322,0,0,0,.465-.477V-3.758h-.766q-1.375,0-1.375,1.234a.754.754,0,0,0,.242.582A.876.876,0,0,0,115.109-1.719Zm9.8-.656a.608.608,0,0,0-.352-.539,5.348,5.348,0,0,0-1.336-.422A6.092,6.092,0,0,1,121.6-3.91a2.722,2.722,0,0,1-.977-.863,2.061,2.061,0,0,1-.336-1.164,2.336,2.336,0,0,1,.961-1.918,3.958,3.958,0,0,1,2.516-.754,4.386,4.386,0,0,1,2.688.758,2.37,2.37,0,0,1,1.016,1.992h-2.641q0-1.016-1.07-1.016a1.061,1.061,0,0,0-.7.23.714.714,0,0,0-.281.574.655.655,0,0,0,.344.57,3.248,3.248,0,0,0,1.1.359,9.486,9.486,0,0,1,1.324.336,2.406,2.406,0,0,1,1.906,2.352A2.214,2.214,0,0,1,126.426-.57a4.505,4.505,0,0,1-2.66.727,4.6,4.6,0,0,1-1.937-.391A3.24,3.24,0,0,1,120.5-1.3a2.406,2.406,0,0,1-.477-1.414h2.461a1.017,1.017,0,0,0,.391.855,1.607,1.607,0,0,0,.961.27,1.264,1.264,0,0,0,.809-.219A.7.7,0,0,0,124.914-2.375Zm7.422-1.914a5.164,5.164,0,0,1,.867-3.164,2.854,2.854,0,0,1,2.422-1.156,2.428,2.428,0,0,1,1.906.891V-12h2.641V0H137.8l-.133-.906A2.493,2.493,0,0,1,135.609.156,2.849,2.849,0,0,1,133.219-1,5.327,5.327,0,0,1,132.336-4.289Zm2.633.164q0,2.25,1.313,2.25a1.3,1.3,0,0,0,1.25-.734V-5.828a1.261,1.261,0,0,0-1.234-.75q-1.219,0-1.32,1.969ZM145.758.156A4.345,4.345,0,0,1,142.609-1a4.006,4.006,0,0,1-1.2-3.02v-.219a5.191,5.191,0,0,1,.48-2.289,3.516,3.516,0,0,1,1.4-1.535,4.233,4.233,0,0,1,2.188-.543A3.659,3.659,0,0,1,148.289-7.5a4.344,4.344,0,0,1,1.031,3.082V-3.4h-5.234a1.9,1.9,0,0,0,.617,1.117,1.836,1.836,0,0,0,1.234.406,2.366,2.366,0,0,0,1.953-.875l1.2,1.422A3.363,3.363,0,0,1,147.7-.246,4.713,4.713,0,0,1,145.758.156Zm-.3-6.734q-1.156,0-1.375,1.531h2.656v-.2a1.3,1.3,0,0,0-.32-.98A1.275,1.275,0,0,0,145.461-6.578Zm12.477,4.7a1.171,1.171,0,0,0,.859-.3,1.1,1.1,0,0,0,.3-.84h2.469a2.922,2.922,0,0,1-1,2.281A3.705,3.705,0,0,1,158,.156,3.751,3.751,0,0,1,155.094-1a4.556,4.556,0,0,1-1.062-3.2v-.109a5.149,5.149,0,0,1,.473-2.262,3.441,3.441,0,0,1,1.363-1.508,4.065,4.065,0,0,1,2.109-.527,3.658,3.658,0,0,1,2.617.914,3.242,3.242,0,0,1,.969,2.477h-2.469a1.445,1.445,0,0,0-.32-1.008,1.106,1.106,0,0,0-.859-.352q-1.023,0-1.2,1.3a9.207,9.207,0,0,0-.055,1.141,3.616,3.616,0,0,0,.3,1.766A1.055,1.055,0,0,0,157.938-1.875Zm4.406-2.43a4.989,4.989,0,0,1,.492-2.254,3.52,3.52,0,0,1,1.414-1.52,4.259,4.259,0,0,1,2.164-.531,3.887,3.887,0,0,1,2.992,1.176,4.512,4.512,0,0,1,1.094,3.2v.094A4.378,4.378,0,0,1,169.4-1,3.9,3.9,0,0,1,166.43.156a3.942,3.942,0,0,1-2.9-1.082,4.232,4.232,0,0,1-1.18-2.934Zm2.633.164a3.145,3.145,0,0,0,.367,1.719,1.223,1.223,0,0,0,1.086.547q1.406,0,1.438-2.164V-4.3q0-2.273-1.453-2.273-1.32,0-1.43,1.961Zm9.172-4.312.086.992a2.906,2.906,0,0,1,2.414-1.148,2.14,2.14,0,0,1,2.164,1.273A2.813,2.813,0,0,1,181.3-8.609q2.57,0,2.641,3.109V0H181.3V-5.336a1.612,1.612,0,0,0-.219-.945.931.931,0,0,0-.8-.3,1.247,1.247,0,0,0-1.164.7l.008.109V0h-2.641V-5.32a1.694,1.694,0,0,0-.211-.961.929.929,0,0,0-.8-.3,1.263,1.263,0,0,0-1.156.7V0H171.68V-8.453Zm19.141,4.3a5.152,5.152,0,0,1-.859,3.2A2.878,2.878,0,0,1,190.008.156,2.5,2.5,0,0,1,187.93-.867L187.82,0h-2.359V-12h2.633v4.227a2.41,2.41,0,0,1,1.9-.836,2.879,2.879,0,0,1,2.438,1.133,5.179,5.179,0,0,1,.859,3.188Zm-2.641-.168a3.437,3.437,0,0,0-.324-1.735,1.093,1.093,0,0,0-1-.519,1.261,1.261,0,0,0-1.234.679v3.354a1.268,1.268,0,0,0,1.25.671,1.118,1.118,0,0,0,1.18-.9A6.5,6.5,0,0,0,190.648-4.324Zm8.836,3.41a2.714,2.714,0,0,1-2.258,1.07,2.662,2.662,0,0,1-2.105-.809,3.4,3.4,0,0,1-.715-2.324V-8.453h2.633v5.492a.946.946,0,0,0,1.055,1.086,1.376,1.376,0,0,0,1.289-.648v-5.93h2.648V0h-2.469ZM207.9-2.375a.608.608,0,0,0-.352-.539,5.348,5.348,0,0,0-1.336-.422,6.092,6.092,0,0,1-1.625-.574,2.722,2.722,0,0,1-.977-.863,2.061,2.061,0,0,1-.336-1.164,2.336,2.336,0,0,1,.961-1.918,3.958,3.958,0,0,1,2.516-.754,4.386,4.386,0,0,1,2.688.758,2.37,2.37,0,0,1,1.016,1.992h-2.641q0-1.016-1.07-1.016a1.061,1.061,0,0,0-.7.23.714.714,0,0,0-.281.574.655.655,0,0,0,.344.57,3.248,3.248,0,0,0,1.1.359,9.485,9.485,0,0,1,1.324.336,2.406,2.406,0,0,1,1.906,2.352A2.214,2.214,0,0,1,209.41-.57a4.505,4.505,0,0,1-2.66.727,4.6,4.6,0,0,1-1.937-.391A3.24,3.24,0,0,1,203.484-1.3a2.406,2.406,0,0,1-.477-1.414h2.461a1.017,1.017,0,0,0,.391.855,1.607,1.607,0,0,0,.961.27,1.264,1.264,0,0,0,.809-.219A.7.7,0,0,0,207.9-2.375Zm6.836-8.18v2.1h1.391v1.828h-1.391v3.867a.987.987,0,0,0,.172.664.922.922,0,0,0,.68.188,3.862,3.862,0,0,0,.656-.047V-.07a4.859,4.859,0,0,1-1.484.227,2.758,2.758,0,0,1-2.008-.641A2.626,2.626,0,0,1,212.1-2.43v-4.2h-1.078V-8.453H212.1v-2.1ZM219.938,0H217.3V-8.453h2.641Zm-2.8-10.633a1.175,1.175,0,0,1,.406-.922,1.533,1.533,0,0,1,1.055-.359,1.533,1.533,0,0,1,1.055.359,1.175,1.175,0,0,1,.406.922,1.175,1.175,0,0,1-.406.922,1.533,1.533,0,0,1-1.055.359,1.533,1.533,0,0,1-1.055-.359A1.175,1.175,0,0,1,217.141-10.633ZM221.227-4.3a4.989,4.989,0,0,1,.492-2.254,3.52,3.52,0,0,1,1.414-1.52,4.259,4.259,0,0,1,2.164-.531,3.887,3.887,0,0,1,2.992,1.176,4.512,4.512,0,0,1,1.094,3.2v.094A4.378,4.378,0,0,1,228.285-1a3.9,3.9,0,0,1-2.973,1.16,3.942,3.942,0,0,1-2.9-1.082,4.232,4.232,0,0,1-1.18-2.934Zm2.633.164a3.145,3.145,0,0,0,.367,1.719,1.223,1.223,0,0,0,1.086.547q1.406,0,1.438-2.164V-4.3q0-2.273-1.453-2.273-1.32,0-1.43,1.961Zm1.8-7.859h2.781l-2.172,2.453-2.148,0Zm7.3,3.547.086.992a2.867,2.867,0,0,1,2.414-1.148,2.412,2.412,0,0,1,1.973.789,3.757,3.757,0,0,1,.676,2.375V0h-2.641V-5.336a1.426,1.426,0,0,0-.258-.941,1.193,1.193,0,0,0-.937-.3,1.256,1.256,0,0,0-1.148.609V0h-2.633V-8.453Z" transform="translate(682 9724)" fill="#fff"/>
    <g id="Trazado_262703" data-name="Trazado 262703" transform="translate(553 9858)" fill="#fff">
      <path d="M 226.9512481689453 37.40219879150391 L 14.99999904632568 37.40219879150391 C 11.12690544128418 37.40219879150391 7.485624313354492 35.89394760131836 4.746936798095703 33.1552619934082 C 2.008249044418335 30.41657447814941 0.499999076128006 26.77529335021973 0.499999076128006 22.90219879150391 L 0.499999076128006 15.0000114440918 C 0.499999076128006 11.12691783905029 2.008249044418335 7.485636234283447 4.746936798095703 4.746948719024658 C 7.485624313354492 2.008261442184448 11.12690544128418 0.5000113844871521 14.99999904632568 0.5000113844871521 L 226.9512481689453 0.5000113844871521 C 230.8243408203125 0.5000113844871521 234.4656219482422 2.008261442184448 237.2043151855469 4.746948719024658 C 239.9429931640625 7.485636234283447 241.4512481689453 11.12691783905029 241.4512481689453 15.0000114440918 L 241.4512481689453 22.90219879150391 C 241.4512481689453 26.77529335021973 239.9429931640625 30.41657447814941 237.2043151855469 33.1552619934082 C 234.4656219482422 35.89394760131836 230.8243408203125 37.40219879150391 226.9512481689453 37.40219879150391 Z" stroke="none"/>
      <path d="M 15 1.000011444091797 C 11.26046752929688 1.000011444091797 7.7447509765625 2.456260681152344 5.100494384765625 5.100509643554688 C 2.456253051757812 7.744760513305664 1 11.2604808807373 1 15.0000114440918 L 1 22.90219879150391 C 1 26.64173126220703 2.456253051757812 30.15744781494141 5.100494384765625 32.80169677734375 C 7.7447509765625 35.44594955444336 11.26046752929688 36.90219879150391 15 36.90219879150391 L 226.9512481689453 36.90219879150391 C 230.6907806396484 36.90219879150391 234.2064971923828 35.44594955444336 236.8507537841797 32.80169677734375 C 239.4949951171875 30.15744781494141 240.9512481689453 26.64173126220703 240.9512481689453 22.90219879150391 L 240.9512481689453 15.0000114440918 C 240.9512481689453 11.2604808807373 239.4949951171875 7.744760513305664 236.8507537841797 5.100509643554688 C 234.2064971923828 2.456260681152344 230.6907806396484 1.000011444091797 226.9512481689453 1.000011444091797 L 15 1.000011444091797 M 15 1.1444091796875e-05 L 226.9512481689453 1.1444091796875e-05 C 235.2355346679688 1.1444091796875e-05 241.9512481689453 6.715730667114258 241.9512481689453 15.0000114440918 L 241.9512481689453 22.90219879150391 C 241.9512481689453 31.18647956848145 235.2355346679688 37.90219879150391 226.9512481689453 37.90219879150391 L 15 37.90219879150391 C 6.715713500976562 37.90219879150391 0 31.18647956848145 0 22.90219879150391 L 0 15.0000114440918 C 0 6.715730667114258 6.715713500976562 1.1444091796875e-05 15 1.1444091796875e-05 Z" stroke="none" fill="#81af1d"/>
    </g>
    <path id="Trazado_262704" data-name="Trazado 262704" d="M-66.461-9.258h-3.414V0h-2.742V-9.258h-3.352v-2.117h9.508ZM-60.82-6.07l-.867-.062a1.558,1.558,0,0,0-1.594.781V0h-2.633V-8.453h2.469l.086,1.086a2.039,2.039,0,0,1,1.852-1.242,2.567,2.567,0,0,1,.734.094ZM-55.344,0a2.973,2.973,0,0,1-.25-.758,2.448,2.448,0,0,1-2.031.914,3,3,0,0,1-2.031-.723,2.3,2.3,0,0,1-.836-1.816,2.364,2.364,0,0,1,1.016-2.078,5.174,5.174,0,0,1,2.953-.7h.813v-.448q0-1.17-1.008-1.17a.824.824,0,0,0-.937.926h-2.633a2.36,2.36,0,0,1,1.043-1.99,4.383,4.383,0,0,1,2.66-.765,3.843,3.843,0,0,1,2.555.789,2.743,2.743,0,0,1,.961,2.164v3.742a3.832,3.832,0,0,0,.359,1.781V0Zm-1.648-1.719a1.469,1.469,0,0,0,.816-.211,1.322,1.322,0,0,0,.465-.477V-3.758h-.766q-1.375,0-1.375,1.234a.754.754,0,0,0,.242.582A.876.876,0,0,0-56.992-1.719Zm5.047-2.57a5.164,5.164,0,0,1,.867-3.164,2.854,2.854,0,0,1,2.422-1.156,2.428,2.428,0,0,1,1.906.891V-12h2.641V0h-2.367l-.133-.906A2.493,2.493,0,0,1-48.672.156,2.849,2.849,0,0,1-51.062-1,5.327,5.327,0,0,1-51.945-4.289Zm2.633.164q0,2.25,1.313,2.25a1.3,1.3,0,0,0,1.25-.734V-5.828a1.261,1.261,0,0,0-1.234-.75q-1.219,0-1.32,1.969ZM-39.836,0h-2.641V-8.453h2.641Zm-2.8-10.633a1.175,1.175,0,0,1,.406-.922,1.533,1.533,0,0,1,1.055-.359,1.533,1.533,0,0,1,1.055.359,1.175,1.175,0,0,1,.406.922,1.175,1.175,0,0,1-.406.922,1.533,1.533,0,0,1-1.055.359,1.533,1.533,0,0,1-1.055-.359A1.175,1.175,0,0,1-42.633-10.633Zm7.992,8.758a1.171,1.171,0,0,0,.859-.3,1.1,1.1,0,0,0,.3-.84h2.469a2.922,2.922,0,0,1-1,2.281,3.705,3.705,0,0,1-2.566.891A3.751,3.751,0,0,1-37.484-1a4.556,4.556,0,0,1-1.062-3.2v-.109a5.149,5.149,0,0,1,.473-2.262,3.441,3.441,0,0,1,1.363-1.508A4.065,4.065,0,0,1-34.6-8.609a3.658,3.658,0,0,1,2.617.914,3.242,3.242,0,0,1,.969,2.477h-2.469a1.445,1.445,0,0,0-.32-1.008,1.106,1.106,0,0,0-.859-.352q-1.023,0-1.2,1.3a9.206,9.206,0,0,0-.055,1.141,3.616,3.616,0,0,0,.3,1.766A1.055,1.055,0,0,0-34.641-1.875ZM-27.125,0h-2.641V-8.453h2.641Zm-2.8-10.633a1.175,1.175,0,0,1,.406-.922,1.533,1.533,0,0,1,1.055-.359,1.533,1.533,0,0,1,1.055.359,1.175,1.175,0,0,1,.406.922,1.175,1.175,0,0,1-.406.922,1.533,1.533,0,0,1-1.055.359,1.533,1.533,0,0,1-1.055-.359A1.175,1.175,0,0,1-29.922-10.633ZM-25.836-4.3a4.989,4.989,0,0,1,.492-2.254,3.52,3.52,0,0,1,1.414-1.52,4.259,4.259,0,0,1,2.164-.531,3.887,3.887,0,0,1,2.992,1.176,4.512,4.512,0,0,1,1.094,3.2v.094A4.378,4.378,0,0,1-18.777-1,3.9,3.9,0,0,1-21.75.156a3.942,3.942,0,0,1-2.9-1.082,4.232,4.232,0,0,1-1.18-2.934Zm2.633.164a3.145,3.145,0,0,0,.367,1.719,1.223,1.223,0,0,0,1.086.547q1.406,0,1.438-2.164V-4.3q0-2.273-1.453-2.273-1.32,0-1.43,1.961Zm9.1-4.312.086.992A2.867,2.867,0,0,1-11.6-8.609a2.412,2.412,0,0,1,1.973.789,3.757,3.757,0,0,1,.676,2.375V0h-2.641V-5.336a1.426,1.426,0,0,0-.258-.941,1.193,1.193,0,0,0-.937-.3,1.256,1.256,0,0,0-1.148.609V0H-16.57V-8.453ZM-2.734,0a2.973,2.973,0,0,1-.25-.758A2.448,2.448,0,0,1-5.016.156,3,3,0,0,1-7.047-.566a2.3,2.3,0,0,1-.836-1.816A2.364,2.364,0,0,1-6.867-4.461a5.174,5.174,0,0,1,2.953-.7H-3.1v-.448q0-1.17-1.008-1.17a.824.824,0,0,0-.937.926H-7.68a2.36,2.36,0,0,1,1.043-1.99,4.383,4.383,0,0,1,2.66-.765,3.843,3.843,0,0,1,2.555.789A2.743,2.743,0,0,1-.461-5.656v3.742A3.832,3.832,0,0,0-.1-.133V0ZM-4.383-1.719a1.469,1.469,0,0,0,.816-.211A1.322,1.322,0,0,0-3.1-2.406V-3.758h-.766q-1.375,0-1.375,1.234A.754.754,0,0,0-5-1.941.876.876,0,0,0-4.383-1.719ZM3.773,0H1.133V-12H3.773Zm8.094-8.453.086.992a2.906,2.906,0,0,1,2.414-1.148,2.14,2.14,0,0,1,2.164,1.273,2.813,2.813,0,0,1,2.484-1.273q2.57,0,2.641,3.109V0H19.016V-5.336a1.611,1.611,0,0,0-.219-.945.931.931,0,0,0-.8-.3,1.247,1.247,0,0,0-1.164.7l.008.109V0H14.2V-5.32a1.694,1.694,0,0,0-.211-.961.929.929,0,0,0-.8-.3,1.263,1.263,0,0,0-1.156.7V0H9.4V-8.453ZM27.25.156A4.345,4.345,0,0,1,24.1-1a4.006,4.006,0,0,1-1.2-3.02v-.219a5.191,5.191,0,0,1,.48-2.289,3.516,3.516,0,0,1,1.4-1.535,4.233,4.233,0,0,1,2.188-.543A3.659,3.659,0,0,1,29.781-7.5a4.344,4.344,0,0,1,1.031,3.082V-3.4H25.578A1.9,1.9,0,0,0,26.2-2.281a1.836,1.836,0,0,0,1.234.406,2.366,2.366,0,0,0,1.953-.875l1.2,1.422A3.363,3.363,0,0,1,29.191-.246,4.713,4.713,0,0,1,27.25.156Zm-.3-6.734q-1.156,0-1.375,1.531h2.656v-.2a1.3,1.3,0,0,0-.32-.98A1.275,1.275,0,0,0,26.953-6.578ZM34.7-8.453V.289A3.068,3.068,0,0,1,33.844,2.6a3.3,3.3,0,0,1-2.375.813,5.607,5.607,0,0,1-1.242-.133V1.289a5.037,5.037,0,0,0,.742.07A.963.963,0,0,0,32.063.273V-8.453Zm-2.836-2.18a1.175,1.175,0,0,1,.406-.922,1.533,1.533,0,0,1,1.055-.359,1.533,1.533,0,0,1,1.055.359,1.175,1.175,0,0,1,.406.922,1.175,1.175,0,0,1-.406.922,1.533,1.533,0,0,1-1.055.359,1.533,1.533,0,0,1-1.055-.359A1.175,1.175,0,0,1,31.867-10.633ZM35.859-4.3a4.989,4.989,0,0,1,.492-2.254,3.52,3.52,0,0,1,1.414-1.52,4.259,4.259,0,0,1,2.164-.531,3.887,3.887,0,0,1,2.992,1.176,4.512,4.512,0,0,1,1.094,3.2v.094A4.378,4.378,0,0,1,42.918-1,3.9,3.9,0,0,1,39.945.156a3.942,3.942,0,0,1-2.9-1.082,4.232,4.232,0,0,1-1.18-2.934Zm2.633.164a3.145,3.145,0,0,0,.367,1.719,1.223,1.223,0,0,0,1.086.547q1.406,0,1.438-2.164V-4.3q0-2.273-1.453-2.273-1.32,0-1.43,1.961Zm11.8-1.93-.867-.062a1.558,1.558,0,0,0-1.594.781V0H45.2V-8.453h2.469l.086,1.086A2.039,2.039,0,0,1,49.6-8.609a2.567,2.567,0,0,1,.734.094ZM55.766,0a2.973,2.973,0,0,1-.25-.758,2.448,2.448,0,0,1-2.031.914,3,3,0,0,1-2.031-.723,2.3,2.3,0,0,1-.836-1.816,2.364,2.364,0,0,1,1.016-2.078,5.174,5.174,0,0,1,2.953-.7H55.4v-.448q0-1.17-1.008-1.17a.824.824,0,0,0-.937.926H50.82a2.36,2.36,0,0,1,1.043-1.99,4.383,4.383,0,0,1,2.66-.765,3.843,3.843,0,0,1,2.555.789,2.743,2.743,0,0,1,.961,2.164v3.742A3.832,3.832,0,0,0,58.4-.133V0ZM54.117-1.719a1.469,1.469,0,0,0,.816-.211,1.322,1.322,0,0,0,.465-.477V-3.758h-.766q-1.375,0-1.375,1.234a.754.754,0,0,0,.242.582A.876.876,0,0,0,54.117-1.719Zm5.047-2.57a5.164,5.164,0,0,1,.867-3.164,2.854,2.854,0,0,1,2.422-1.156,2.428,2.428,0,0,1,1.906.891V-12H67V0H64.633L64.5-.906A2.493,2.493,0,0,1,62.438.156,2.849,2.849,0,0,1,60.047-1,5.327,5.327,0,0,1,59.164-4.289Zm2.633.164q0,2.25,1.313,2.25a1.3,1.3,0,0,0,1.25-.734V-5.828a1.261,1.261,0,0,0-1.234-.75q-1.219,0-1.32,1.969ZM73.258,0a2.973,2.973,0,0,1-.25-.758,2.448,2.448,0,0,1-2.031.914,3,3,0,0,1-2.031-.723,2.3,2.3,0,0,1-.836-1.816,2.364,2.364,0,0,1,1.016-2.078,5.174,5.174,0,0,1,2.953-.7h.813v-.448q0-1.17-1.008-1.17a.824.824,0,0,0-.937.926H68.313a2.36,2.36,0,0,1,1.043-1.99,4.383,4.383,0,0,1,2.66-.765,3.843,3.843,0,0,1,2.555.789,2.743,2.743,0,0,1,.961,2.164v3.742a3.832,3.832,0,0,0,.359,1.781V0ZM71.609-1.719a1.469,1.469,0,0,0,.816-.211,1.322,1.322,0,0,0,.465-.477V-3.758h-.766q-1.375,0-1.375,1.234a.754.754,0,0,0,.242.582A.876.876,0,0,0,71.609-1.719Z" transform="translate(674 9882)" fill="#e53935"/>
    <path id="Trazado_259460" data-name="Trazado 259460" d="M157.912,0H0" transform="matrix(-0.809, 0.588, -0.588, -0.809, 800, 9752.928)" fill="none" stroke="#5d5d5d" stroke-width="2"/>
    <path id="Trazado_259461" data-name="Trazado 259461" d="M7.606,9.411,3.9,4.823,0,0V18.821Z" transform="matrix(-0.755, 0.656, -0.656, -0.755, 679.641, 9852.739)" fill="#5d5d5d"/>
    <g id="Trazado_262705" data-name="Trazado 262705" transform="translate(290 9847)" fill="#fff">
      <path d="M 226.9512481689453 37.40219879150391 L 14.99999904632568 37.40219879150391 C 11.12690544128418 37.40219879150391 7.485624313354492 35.89394760131836 4.746936798095703 33.1552619934082 C 2.008249044418335 30.41657447814941 0.499999076128006 26.77529335021973 0.499999076128006 22.90219879150391 L 0.499999076128006 15.0000114440918 C 0.499999076128006 11.12691783905029 2.008249044418335 7.485636234283447 4.746936798095703 4.746948719024658 C 7.485624313354492 2.008261442184448 11.12690544128418 0.5000113844871521 14.99999904632568 0.5000113844871521 L 226.9512481689453 0.5000113844871521 C 230.8243408203125 0.5000113844871521 234.4656219482422 2.008261442184448 237.2043151855469 4.746948719024658 C 239.9429931640625 7.485636234283447 241.4512481689453 11.12691783905029 241.4512481689453 15.0000114440918 L 241.4512481689453 22.90219879150391 C 241.4512481689453 26.77529335021973 239.9429931640625 30.41657447814941 237.2043151855469 33.1552619934082 C 234.4656219482422 35.89394760131836 230.8243408203125 37.40219879150391 226.9512481689453 37.40219879150391 Z" stroke="none"/>
      <path d="M 15 1.000011444091797 C 11.26046752929688 1.000011444091797 7.7447509765625 2.456260681152344 5.100494384765625 5.100509643554688 C 2.456253051757812 7.744760513305664 1 11.2604808807373 1 15.0000114440918 L 1 22.90219879150391 C 1 26.64173126220703 2.456253051757812 30.15744781494141 5.100494384765625 32.80169677734375 C 7.7447509765625 35.44594955444336 11.26046752929688 36.90219879150391 15 36.90219879150391 L 226.9512481689453 36.90219879150391 C 230.6907806396484 36.90219879150391 234.2064971923828 35.44594955444336 236.8507537841797 32.80169677734375 C 239.4949951171875 30.15744781494141 240.9512481689453 26.64173126220703 240.9512481689453 22.90219879150391 L 240.9512481689453 15.0000114440918 C 240.9512481689453 11.2604808807373 239.4949951171875 7.744760513305664 236.8507537841797 5.100509643554688 C 234.2064971923828 2.456260681152344 230.6907806396484 1.000011444091797 226.9512481689453 1.000011444091797 L 15 1.000011444091797 M 15 1.1444091796875e-05 L 226.9512481689453 1.1444091796875e-05 C 235.2355346679688 1.1444091796875e-05 241.9512481689453 6.715730667114258 241.9512481689453 15.0000114440918 L 241.9512481689453 22.90219879150391 C 241.9512481689453 31.18647956848145 235.2355346679688 37.90219879150391 226.9512481689453 37.90219879150391 L 15 37.90219879150391 C 6.715713500976562 37.90219879150391 0 31.18647956848145 0 22.90219879150391 L 0 15.0000114440918 C 0 6.715730667114258 6.715713500976562 1.1444091796875e-05 15 1.1444091796875e-05 Z" stroke="none" fill="#81af1d"/>
    </g>
    <path id="Trazado_262706" data-name="Trazado 262706" d="M-66.461-9.258h-3.414V0h-2.742V-9.258h-3.352v-2.117h9.508ZM-60.82-6.07l-.867-.062a1.558,1.558,0,0,0-1.594.781V0h-2.633V-8.453h2.469l.086,1.086a2.039,2.039,0,0,1,1.852-1.242,2.567,2.567,0,0,1,.734.094ZM-55.344,0a2.973,2.973,0,0,1-.25-.758,2.448,2.448,0,0,1-2.031.914,3,3,0,0,1-2.031-.723,2.3,2.3,0,0,1-.836-1.816,2.364,2.364,0,0,1,1.016-2.078,5.174,5.174,0,0,1,2.953-.7h.813v-.448q0-1.17-1.008-1.17a.824.824,0,0,0-.937.926h-2.633a2.36,2.36,0,0,1,1.043-1.99,4.383,4.383,0,0,1,2.66-.765,3.843,3.843,0,0,1,2.555.789,2.743,2.743,0,0,1,.961,2.164v3.742a3.832,3.832,0,0,0,.359,1.781V0Zm-1.648-1.719a1.469,1.469,0,0,0,.816-.211,1.322,1.322,0,0,0,.465-.477V-3.758h-.766q-1.375,0-1.375,1.234a.754.754,0,0,0,.242.582A.876.876,0,0,0-56.992-1.719Zm5.047-2.57a5.164,5.164,0,0,1,.867-3.164,2.854,2.854,0,0,1,2.422-1.156,2.428,2.428,0,0,1,1.906.891V-12h2.641V0h-2.367l-.133-.906A2.493,2.493,0,0,1-48.672.156,2.849,2.849,0,0,1-51.062-1,5.327,5.327,0,0,1-51.945-4.289Zm2.633.164q0,2.25,1.313,2.25a1.3,1.3,0,0,0,1.25-.734V-5.828a1.261,1.261,0,0,0-1.234-.75q-1.219,0-1.32,1.969ZM-39.836,0h-2.641V-8.453h2.641Zm-2.8-10.633a1.175,1.175,0,0,1,.406-.922,1.533,1.533,0,0,1,1.055-.359,1.533,1.533,0,0,1,1.055.359,1.175,1.175,0,0,1,.406.922,1.175,1.175,0,0,1-.406.922,1.533,1.533,0,0,1-1.055.359,1.533,1.533,0,0,1-1.055-.359A1.175,1.175,0,0,1-42.633-10.633Zm7.992,8.758a1.171,1.171,0,0,0,.859-.3,1.1,1.1,0,0,0,.3-.84h2.469a2.922,2.922,0,0,1-1,2.281,3.705,3.705,0,0,1-2.566.891A3.751,3.751,0,0,1-37.484-1a4.556,4.556,0,0,1-1.062-3.2v-.109a5.149,5.149,0,0,1,.473-2.262,3.441,3.441,0,0,1,1.363-1.508A4.065,4.065,0,0,1-34.6-8.609a3.658,3.658,0,0,1,2.617.914,3.242,3.242,0,0,1,.969,2.477h-2.469a1.445,1.445,0,0,0-.32-1.008,1.106,1.106,0,0,0-.859-.352q-1.023,0-1.2,1.3a9.206,9.206,0,0,0-.055,1.141,3.616,3.616,0,0,0,.3,1.766A1.055,1.055,0,0,0-34.641-1.875ZM-27.125,0h-2.641V-8.453h2.641Zm-2.8-10.633a1.175,1.175,0,0,1,.406-.922,1.533,1.533,0,0,1,1.055-.359,1.533,1.533,0,0,1,1.055.359,1.175,1.175,0,0,1,.406.922,1.175,1.175,0,0,1-.406.922,1.533,1.533,0,0,1-1.055.359,1.533,1.533,0,0,1-1.055-.359A1.175,1.175,0,0,1-29.922-10.633ZM-25.836-4.3a4.989,4.989,0,0,1,.492-2.254,3.52,3.52,0,0,1,1.414-1.52,4.259,4.259,0,0,1,2.164-.531,3.887,3.887,0,0,1,2.992,1.176,4.512,4.512,0,0,1,1.094,3.2v.094A4.378,4.378,0,0,1-18.777-1,3.9,3.9,0,0,1-21.75.156a3.942,3.942,0,0,1-2.9-1.082,4.232,4.232,0,0,1-1.18-2.934Zm2.633.164a3.145,3.145,0,0,0,.367,1.719,1.223,1.223,0,0,0,1.086.547q1.406,0,1.438-2.164V-4.3q0-2.273-1.453-2.273-1.32,0-1.43,1.961Zm9.1-4.312.086.992A2.867,2.867,0,0,1-11.6-8.609a2.412,2.412,0,0,1,1.973.789,3.757,3.757,0,0,1,.676,2.375V0h-2.641V-5.336a1.426,1.426,0,0,0-.258-.941,1.193,1.193,0,0,0-.937-.3,1.256,1.256,0,0,0-1.148.609V0H-16.57V-8.453ZM-2.734,0a2.973,2.973,0,0,1-.25-.758A2.448,2.448,0,0,1-5.016.156,3,3,0,0,1-7.047-.566a2.3,2.3,0,0,1-.836-1.816A2.364,2.364,0,0,1-6.867-4.461a5.174,5.174,0,0,1,2.953-.7H-3.1v-.448q0-1.17-1.008-1.17a.824.824,0,0,0-.937.926H-7.68a2.36,2.36,0,0,1,1.043-1.99,4.383,4.383,0,0,1,2.66-.765,3.843,3.843,0,0,1,2.555.789A2.743,2.743,0,0,1-.461-5.656v3.742A3.832,3.832,0,0,0-.1-.133V0ZM-4.383-1.719a1.469,1.469,0,0,0,.816-.211A1.322,1.322,0,0,0-3.1-2.406V-3.758h-.766q-1.375,0-1.375,1.234A.754.754,0,0,0-5-1.941.876.876,0,0,0-4.383-1.719ZM3.773,0H1.133V-12H3.773Zm8.094-8.453.086.992a2.906,2.906,0,0,1,2.414-1.148,2.14,2.14,0,0,1,2.164,1.273,2.813,2.813,0,0,1,2.484-1.273q2.57,0,2.641,3.109V0H19.016V-5.336a1.611,1.611,0,0,0-.219-.945.931.931,0,0,0-.8-.3,1.247,1.247,0,0,0-1.164.7l.008.109V0H14.2V-5.32a1.694,1.694,0,0,0-.211-.961.929.929,0,0,0-.8-.3,1.263,1.263,0,0,0-1.156.7V0H9.4V-8.453ZM27.25.156A4.345,4.345,0,0,1,24.1-1a4.006,4.006,0,0,1-1.2-3.02v-.219a5.191,5.191,0,0,1,.48-2.289,3.516,3.516,0,0,1,1.4-1.535,4.233,4.233,0,0,1,2.188-.543A3.659,3.659,0,0,1,29.781-7.5a4.344,4.344,0,0,1,1.031,3.082V-3.4H25.578A1.9,1.9,0,0,0,26.2-2.281a1.836,1.836,0,0,0,1.234.406,2.366,2.366,0,0,0,1.953-.875l1.2,1.422A3.363,3.363,0,0,1,29.191-.246,4.713,4.713,0,0,1,27.25.156Zm-.3-6.734q-1.156,0-1.375,1.531h2.656v-.2a1.3,1.3,0,0,0-.32-.98A1.275,1.275,0,0,0,26.953-6.578ZM34.7-8.453V.289A3.068,3.068,0,0,1,33.844,2.6a3.3,3.3,0,0,1-2.375.813,5.607,5.607,0,0,1-1.242-.133V1.289a5.037,5.037,0,0,0,.742.07A.963.963,0,0,0,32.063.273V-8.453Zm-2.836-2.18a1.175,1.175,0,0,1,.406-.922,1.533,1.533,0,0,1,1.055-.359,1.533,1.533,0,0,1,1.055.359,1.175,1.175,0,0,1,.406.922,1.175,1.175,0,0,1-.406.922,1.533,1.533,0,0,1-1.055.359,1.533,1.533,0,0,1-1.055-.359A1.175,1.175,0,0,1,31.867-10.633ZM35.859-4.3a4.989,4.989,0,0,1,.492-2.254,3.52,3.52,0,0,1,1.414-1.52,4.259,4.259,0,0,1,2.164-.531,3.887,3.887,0,0,1,2.992,1.176,4.512,4.512,0,0,1,1.094,3.2v.094A4.378,4.378,0,0,1,42.918-1,3.9,3.9,0,0,1,39.945.156a3.942,3.942,0,0,1-2.9-1.082,4.232,4.232,0,0,1-1.18-2.934Zm2.633.164a3.145,3.145,0,0,0,.367,1.719,1.223,1.223,0,0,0,1.086.547q1.406,0,1.438-2.164V-4.3q0-2.273-1.453-2.273-1.32,0-1.43,1.961Zm11.8-1.93-.867-.062a1.558,1.558,0,0,0-1.594.781V0H45.2V-8.453h2.469l.086,1.086A2.039,2.039,0,0,1,49.6-8.609a2.567,2.567,0,0,1,.734.094ZM55.766,0a2.973,2.973,0,0,1-.25-.758,2.448,2.448,0,0,1-2.031.914,3,3,0,0,1-2.031-.723,2.3,2.3,0,0,1-.836-1.816,2.364,2.364,0,0,1,1.016-2.078,5.174,5.174,0,0,1,2.953-.7H55.4v-.448q0-1.17-1.008-1.17a.824.824,0,0,0-.937.926H50.82a2.36,2.36,0,0,1,1.043-1.99,4.383,4.383,0,0,1,2.66-.765,3.843,3.843,0,0,1,2.555.789,2.743,2.743,0,0,1,.961,2.164v3.742A3.832,3.832,0,0,0,58.4-.133V0ZM54.117-1.719a1.469,1.469,0,0,0,.816-.211,1.322,1.322,0,0,0,.465-.477V-3.758h-.766q-1.375,0-1.375,1.234a.754.754,0,0,0,.242.582A.876.876,0,0,0,54.117-1.719Zm5.047-2.57a5.164,5.164,0,0,1,.867-3.164,2.854,2.854,0,0,1,2.422-1.156,2.428,2.428,0,0,1,1.906.891V-12H67V0H64.633L64.5-.906A2.493,2.493,0,0,1,62.438.156,2.849,2.849,0,0,1,60.047-1,5.327,5.327,0,0,1,59.164-4.289Zm2.633.164q0,2.25,1.313,2.25a1.3,1.3,0,0,0,1.25-.734V-5.828a1.261,1.261,0,0,0-1.234-.75q-1.219,0-1.32,1.969ZM73.258,0a2.973,2.973,0,0,1-.25-.758,2.448,2.448,0,0,1-2.031.914,3,3,0,0,1-2.031-.723,2.3,2.3,0,0,1-.836-1.816,2.364,2.364,0,0,1,1.016-2.078,5.174,5.174,0,0,1,2.953-.7h.813v-.448q0-1.17-1.008-1.17a.824.824,0,0,0-.937.926H68.313a2.36,2.36,0,0,1,1.043-1.99,4.383,4.383,0,0,1,2.66-.765,3.843,3.843,0,0,1,2.555.789,2.743,2.743,0,0,1,.961,2.164v3.742a3.832,3.832,0,0,0,.359,1.781V0ZM71.609-1.719a1.469,1.469,0,0,0,.816-.211,1.322,1.322,0,0,0,.465-.477V-3.758h-.766q-1.375,0-1.375,1.234a.754.754,0,0,0,.242.582A.876.876,0,0,0,71.609-1.719Z" transform="translate(411 9871)" fill="#e53935"/>
    <path id="Trazado_259463" data-name="Trazado 259463" d="M7.606,9.411,3.9,4.823,0,0V18.821Z" transform="matrix(-0.956, 0.292, -0.292, -0.956, 417.364, 9838.478)" fill="#5d5d5d"/>
    <g id="Trazado_262699" data-name="Trazado 262699" transform="translate(1041 9847)" fill="#fff">
      <path d="M 254.1707458496094 37.40220642089844 L 15.00000667572021 37.40220642089844 C 11.1269063949585 37.40220642089844 7.485639572143555 35.89393997192383 4.746973037719727 33.15523910522461 C 2.008272886276245 30.41657257080078 0.5000062584877014 26.77530479431152 0.5000062584877014 22.9022045135498 L 0.5000062584877014 15.00000476837158 C 0.5000062584877014 11.12690544128418 2.008272886276245 7.485638618469238 4.746973037719727 4.746971607208252 C 7.485639572143555 2.00827169418335 11.1269063949585 0.5000051259994507 15.00000667572021 0.5000051259994507 L 254.1707458496094 0.5000051259994507 C 258.0438537597656 0.5000051259994507 261.6851196289062 2.00827169418335 264.4237670898438 4.746971607208252 C 267.1624755859375 7.485638618469238 268.6707458496094 11.12690544128418 268.6707458496094 15.00000476837158 L 268.6707458496094 22.9022045135498 C 268.6707458496094 26.77530479431152 267.1624755859375 30.41657257080078 264.4237670898438 33.15523910522461 C 261.6851196289062 35.89393997192383 258.0438537597656 37.40220642089844 254.1707458496094 37.40220642089844 Z" stroke="none"/>
      <path d="M 14.99998474121094 0.9999961853027344 C 11.26043701171875 0.9999961853027344 7.744720458984375 2.456249237060547 5.100494384765625 5.100498199462891 C 2.45623779296875 7.744747161865234 0.999969482421875 11.26046180725098 0.999969482421875 14.99999809265137 L 0.999969482421875 22.90221214294434 C 0.999969482421875 26.64174842834473 2.45623779296875 30.15746307373047 5.100494384765625 32.80171203613281 C 7.744720458984375 35.44596099853516 11.26043701171875 36.90221405029297 14.99998474121094 36.90221405029297 L 254.1707305908203 36.90221405029297 C 257.9102783203125 36.90221405029297 261.4259948730469 35.44596099853516 264.0702209472656 32.80171203613281 C 266.7144775390625 30.15746307373047 268.1707153320312 26.64174842834473 268.1707153320312 22.90221214294434 L 268.1707153320312 14.99999809265137 C 268.1707153320312 11.26046180725098 266.7144775390625 7.744747161865234 264.0702209472656 5.100498199462891 C 261.4259948730469 2.456249237060547 257.9102783203125 0.9999961853027344 254.1707305908203 0.9999961853027344 L 14.99998474121094 0.9999961853027344 M 14.99998474121094 -3.814697265625e-06 L 254.1707305908203 -3.814697265625e-06 C 262.4550170898438 -3.814697265625e-06 269.1707153320312 6.71571159362793 269.1707153320312 14.99999809265137 L 269.1707153320312 22.90221214294434 C 269.1707153320312 31.18649864196777 262.4550170898438 37.90221405029297 254.1707305908203 37.90221405029297 L 14.99998474121094 37.90221405029297 C 6.715728759765625 37.90221405029297 -3.0517578125e-05 31.18649864196777 -3.0517578125e-05 22.90221214294434 L -3.0517578125e-05 14.99999809265137 C -3.0517578125e-05 6.71571159362793 6.715728759765625 -3.814697265625e-06 14.99998474121094 -3.814697265625e-06 Z" stroke="none" fill="#81af1d"/>
    </g>
    <path id="Trazado_262700" data-name="Trazado 262700" d="M-80.887-3.852a4.154,4.154,0,0,1-.641,2.1,3.866,3.866,0,0,1-1.645,1.41,5.6,5.6,0,0,1-2.418.5A4.467,4.467,0,0,1-89.121-1.3,6.032,6.032,0,0,1-90.41-5.43v-.562a6.885,6.885,0,0,1,.582-2.926,4.41,4.41,0,0,1,1.676-1.937,4.676,4.676,0,0,1,2.531-.684,4.9,4.9,0,0,1,3.328,1.09,4.306,4.306,0,0,1,1.43,3H-83.6a2.037,2.037,0,0,0-.523-1.492,2.153,2.153,0,0,0-1.5-.453,1.638,1.638,0,0,0-1.5.766,4.921,4.921,0,0,0-.5,2.445v.8a5.445,5.445,0,0,0,.457,2.6,1.672,1.672,0,0,0,1.574.781,2.106,2.106,0,0,0,1.445-.445,1.89,1.89,0,0,0,.531-1.414ZM-74.949,0a2.973,2.973,0,0,1-.25-.758A2.448,2.448,0,0,1-77.23.156a3,3,0,0,1-2.031-.723A2.3,2.3,0,0,1-80.1-2.383a2.364,2.364,0,0,1,1.016-2.078,5.174,5.174,0,0,1,2.953-.7h.813v-.448q0-1.17-1.008-1.17a.824.824,0,0,0-.937.926h-2.633a2.36,2.36,0,0,1,1.043-1.99,4.383,4.383,0,0,1,2.66-.765,3.843,3.843,0,0,1,2.555.789,2.743,2.743,0,0,1,.961,2.164v3.742a3.832,3.832,0,0,0,.359,1.781V0ZM-76.6-1.719a1.469,1.469,0,0,0,.816-.211,1.322,1.322,0,0,0,.465-.477V-3.758h-.766q-1.375,0-1.375,1.234a.754.754,0,0,0,.242.582A.876.876,0,0,0-76.6-1.719ZM-75.941-12h2.781l-2.172,2.453-2.148,0Zm7.211,3.547.086.992A2.906,2.906,0,0,1-66.23-8.609a2.14,2.14,0,0,1,2.164,1.273,2.813,2.813,0,0,1,2.484-1.273q2.57,0,2.641,3.109V0h-2.641V-5.336a1.611,1.611,0,0,0-.219-.945.931.931,0,0,0-.8-.3,1.247,1.247,0,0,0-1.164.7l.008.109V0h-2.641V-5.32a1.694,1.694,0,0,0-.211-.961.929.929,0,0,0-.8-.3,1.263,1.263,0,0,0-1.156.7V0H-71.2V-8.453ZM-52.676,0a2.973,2.973,0,0,1-.25-.758,2.448,2.448,0,0,1-2.031.914,3,3,0,0,1-2.031-.723,2.3,2.3,0,0,1-.836-1.816,2.364,2.364,0,0,1,1.016-2.078,5.174,5.174,0,0,1,2.953-.7h.813v-.448q0-1.17-1.008-1.17a.824.824,0,0,0-.937.926h-2.633a2.36,2.36,0,0,1,1.043-1.99,4.383,4.383,0,0,1,2.66-.765,3.843,3.843,0,0,1,2.555.789A2.743,2.743,0,0,1-50.4-5.656v3.742a3.832,3.832,0,0,0,.359,1.781V0Zm-1.648-1.719a1.469,1.469,0,0,0,.816-.211,1.322,1.322,0,0,0,.465-.477V-3.758h-.766q-1.375,0-1.375,1.234a.754.754,0,0,0,.242.582A.876.876,0,0,0-54.324-1.719ZM-43.832-6.07l-.867-.062a1.558,1.558,0,0,0-1.594.781V0h-2.633V-8.453h2.469l.086,1.086A2.039,2.039,0,0,1-44.52-8.609a2.567,2.567,0,0,1,.734.094ZM-38.355,0a2.973,2.973,0,0,1-.25-.758,2.448,2.448,0,0,1-2.031.914,3,3,0,0,1-2.031-.723A2.3,2.3,0,0,1-43.5-2.383a2.364,2.364,0,0,1,1.016-2.078,5.174,5.174,0,0,1,2.953-.7h.813v-.448q0-1.17-1.008-1.17a.824.824,0,0,0-.937.926H-43.3a2.36,2.36,0,0,1,1.043-1.99,4.383,4.383,0,0,1,2.66-.765,3.843,3.843,0,0,1,2.555.789,2.743,2.743,0,0,1,.961,2.164v3.742a3.832,3.832,0,0,0,.359,1.781V0ZM-40-1.719a1.469,1.469,0,0,0,.816-.211,1.322,1.322,0,0,0,.465-.477V-3.758h-.766q-1.375,0-1.375,1.234a.754.754,0,0,0,.242.582A.876.876,0,0,0-40-1.719Zm18.3-2.523,1.3-7.133h2.719L-20.1,0h-2.844l-1.523-6.484L-25.957,0h-2.836l-2.422-11.375h2.727l1.3,7.133,1.563-7.133h2.328ZM-12.23,0a2.973,2.973,0,0,1-.25-.758,2.448,2.448,0,0,1-2.031.914,3,3,0,0,1-2.031-.723,2.3,2.3,0,0,1-.836-1.816,2.364,2.364,0,0,1,1.016-2.078,5.174,5.174,0,0,1,2.953-.7h.813v-.448q0-1.17-1.008-1.17a.824.824,0,0,0-.937.926h-2.633a2.36,2.36,0,0,1,1.043-1.99,4.383,4.383,0,0,1,2.66-.765,3.843,3.843,0,0,1,2.555.789,2.743,2.743,0,0,1,.961,2.164v3.742A3.832,3.832,0,0,0-9.6-.133V0Zm-1.648-1.719a1.469,1.469,0,0,0,.816-.211,1.322,1.322,0,0,0,.465-.477V-3.758h-.766q-1.375,0-1.375,1.234a.754.754,0,0,0,.242.582A.876.876,0,0,0-13.879-1.719ZM-3.387-6.07l-.867-.062a1.558,1.558,0,0,0-1.594.781V0H-8.48V-8.453h2.469l.086,1.086A2.039,2.039,0,0,1-4.074-8.609a2.567,2.567,0,0,1,.734.094Zm.617,1.781A5.164,5.164,0,0,1-1.9-7.453,2.854,2.854,0,0,1,.52-8.609a2.428,2.428,0,0,1,1.906.891V-12H5.066V0H2.7L2.566-.906A2.493,2.493,0,0,1,.5.156,2.849,2.849,0,0,1-1.887-1,5.327,5.327,0,0,1-2.77-4.289Zm2.633.164q0,2.25,1.313,2.25a1.3,1.3,0,0,0,1.25-.734V-5.828a1.261,1.261,0,0,0-1.234-.75q-1.219,0-1.32,1.969Zm13.75-6.43v2.1H15v1.828H13.613v3.867a.987.987,0,0,0,.172.664.922.922,0,0,0,.68.188,3.862,3.862,0,0,0,.656-.047V-.07a4.859,4.859,0,0,1-1.484.227,2.758,2.758,0,0,1-2.008-.641A2.626,2.626,0,0,1,10.98-2.43v-4.2H9.9V-8.453H10.98v-2.1ZM18.816,0H16.176V-8.453h2.641Zm-2.8-10.633a1.175,1.175,0,0,1,.406-.922,1.533,1.533,0,0,1,1.055-.359,1.533,1.533,0,0,1,1.055.359,1.175,1.175,0,0,1,.406.922,1.175,1.175,0,0,1-.406.922,1.533,1.533,0,0,1-1.055.359,1.533,1.533,0,0,1-1.055-.359A1.175,1.175,0,0,1,16.02-10.633ZM28.285-4.164A5.1,5.1,0,0,1,27.4-1.02,2.843,2.843,0,0,1,25,.156,2.437,2.437,0,0,1,23.09-.7V3.25H20.457v-11.7h2.461L23-7.672a2.437,2.437,0,0,1,1.992-.937,2.866,2.866,0,0,1,2.43,1.152,5.16,5.16,0,0,1,.867,3.168Zm-2.633-.164q0-2.25-1.312-2.25a1.239,1.239,0,0,0-1.25.672v3.328a1.279,1.279,0,0,0,1.266.7q1.258,0,1.3-2.172Zm3.461.023a4.989,4.989,0,0,1,.492-2.254,3.52,3.52,0,0,1,1.414-1.52,4.259,4.259,0,0,1,2.164-.531,3.887,3.887,0,0,1,2.992,1.176,4.512,4.512,0,0,1,1.094,3.2v.094A4.378,4.378,0,0,1,36.172-1,3.9,3.9,0,0,1,33.2.156,3.942,3.942,0,0,1,30.3-.926a4.232,4.232,0,0,1-1.18-2.934Zm2.633.164a3.145,3.145,0,0,0,.367,1.719,1.223,1.223,0,0,0,1.086.547q1.406,0,1.438-2.164V-4.3q0-2.273-1.453-2.273-1.32,0-1.43,1.961Zm19.992.289a4.154,4.154,0,0,1-.641,2.1,3.866,3.866,0,0,1-1.645,1.41,5.6,5.6,0,0,1-2.418.5A4.467,4.467,0,0,1,43.5-1.3,6.032,6.032,0,0,1,42.215-5.43v-.562A6.885,6.885,0,0,1,42.8-8.918a4.41,4.41,0,0,1,1.676-1.937A4.676,4.676,0,0,1,47-11.539a4.9,4.9,0,0,1,3.328,1.09,4.306,4.306,0,0,1,1.43,3H49.027A2.037,2.037,0,0,0,48.5-8.937,2.153,2.153,0,0,0,47-9.391a1.638,1.638,0,0,0-1.5.766A4.921,4.921,0,0,0,45-6.18v.8a5.445,5.445,0,0,0,.457,2.6,1.672,1.672,0,0,0,1.574.781,2.106,2.106,0,0,0,1.445-.445,1.89,1.89,0,0,0,.531-1.414ZM55.957,0H53.223V-11.375h2.734Zm5.508-11.375L64-3.461l2.531-7.914h3.609V0h-2.75V-2.656l.266-5.437L64.91,0H63.1L60.34-8.1l.266,5.445V0H57.863V-11.375ZM74.629-3.859V0H71.887V-11.375h4.539a5.287,5.287,0,0,1,2.309.48,3.621,3.621,0,0,1,1.555,1.367,3.734,3.734,0,0,1,.551,2.012,3.291,3.291,0,0,1-1.191,2.66,4.943,4.943,0,0,1-3.27,1Zm0-2.117h1.8a1.7,1.7,0,0,0,1.215-.4A1.48,1.48,0,0,0,78.059-7.5a1.83,1.83,0,0,0-.43-1.273,1.522,1.522,0,0,0-1.172-.484H74.629ZM87.371-2.125H83.613L82.957,0h-2.93L84.2-11.375h2.578L90.98,0H88.035Zm-3.1-2.117h2.445L85.488-8.187Z" transform="translate(1175 9871)" fill="#e53935"/>
    <g id="Trazado_262701" data-name="Trazado 262701" transform="translate(806 9858)" fill="#fff">
      <path d="M 205.7805023193359 37.40221786499023 L 15.00000095367432 37.40221786499023 C 11.12691783905029 37.40221786499023 7.485640048980713 35.89396667480469 4.746945381164551 33.1552734375 C 2.008251190185547 30.41657829284668 0.5000011324882507 26.77529907226562 0.5000011324882507 22.9022159576416 L 0.5000011324882507 14.9999942779541 C 0.5000011324882507 11.12691020965576 2.008251190185547 7.48563289642334 4.746945381164551 4.746938228607178 C 7.485640048980713 2.008244037628174 11.12691783905029 0.4999940097332001 15.00000095367432 0.4999940097332001 L 205.7805023193359 0.4999940097332001 C 209.6535797119141 0.4999940097332001 213.2948608398438 2.008244037628174 216.0335540771484 4.746938228607178 C 218.7722473144531 7.48563289642334 220.2805023193359 11.12691020965576 220.2805023193359 14.9999942779541 L 220.2805023193359 22.9022159576416 C 220.2805023193359 26.77529907226562 218.7722473144531 30.41657829284668 216.0335540771484 33.1552734375 C 213.2948608398438 35.89396667480469 209.6535797119141 37.40221786499023 205.7805023193359 37.40221786499023 Z" stroke="none"/>
      <path d="M 15 0.9999923706054688 C 11.26046752929688 0.9999923706054688 7.7447509765625 2.456245422363281 5.100494384765625 5.100494384765625 C 2.456253051757812 7.744743347167969 1 11.26046562194824 1 14.9999942779541 L 1 22.9022159576416 C 1 26.64174270629883 2.456253051757812 30.15746688842773 5.100494384765625 32.80171585083008 C 7.7447509765625 35.44596481323242 11.26046752929688 36.90221786499023 15 36.90221786499023 L 205.7805023193359 36.90221786499023 C 209.5200347900391 36.90221786499023 213.0357513427734 35.44596481323242 215.6800079345703 32.80171585083008 C 218.3242492675781 30.15746688842773 219.7805023193359 26.64174270629883 219.7805023193359 22.9022159576416 L 219.7805023193359 14.9999942779541 C 219.7805023193359 11.26046562194824 218.3242492675781 7.744743347167969 215.6800079345703 5.100494384765625 C 213.0357513427734 2.456245422363281 209.5200347900391 0.9999923706054688 205.7805023193359 0.9999923706054688 L 15 0.9999923706054688 M 15 -7.62939453125e-06 L 205.7805023193359 -7.62939453125e-06 C 214.0647735595703 -7.62939453125e-06 220.7805023193359 6.715715408325195 220.7805023193359 14.9999942779541 L 220.7805023193359 22.9022159576416 C 220.7805023193359 31.18649291992188 214.0647735595703 37.90221786499023 205.7805023193359 37.90221786499023 L 15 37.90221786499023 C 6.715728759765625 37.90221786499023 0 31.18649291992188 0 22.9022159576416 L 0 14.9999942779541 C 0 6.715715408325195 6.715728759765625 -7.62939453125e-06 15 -7.62939453125e-06 Z" stroke="none" fill="#81af1d"/>
    </g>
    <path id="Trazado_262702" data-name="Trazado 262702" d="M-54.258-3.852a4.154,4.154,0,0,1-.641,2.1,3.866,3.866,0,0,1-1.645,1.41,5.6,5.6,0,0,1-2.418.5A4.467,4.467,0,0,1-62.492-1.3,6.032,6.032,0,0,1-63.781-5.43v-.562A6.885,6.885,0,0,1-63.2-8.918a4.41,4.41,0,0,1,1.676-1.937,4.676,4.676,0,0,1,2.531-.684,4.9,4.9,0,0,1,3.328,1.09,4.306,4.306,0,0,1,1.43,3h-2.734a2.037,2.037,0,0,0-.523-1.492,2.153,2.153,0,0,0-1.5-.453,1.638,1.638,0,0,0-1.5.766,4.921,4.921,0,0,0-.5,2.445v.8a5.445,5.445,0,0,0,.457,2.6,1.672,1.672,0,0,0,1.574.781,2.106,2.106,0,0,0,1.445-.445,1.89,1.89,0,0,0,.531-1.414ZM-48.32,0a2.973,2.973,0,0,1-.25-.758A2.448,2.448,0,0,1-50.6.156a3,3,0,0,1-2.031-.723,2.3,2.3,0,0,1-.836-1.816,2.364,2.364,0,0,1,1.016-2.078,5.174,5.174,0,0,1,2.953-.7h.813v-.448q0-1.17-1.008-1.17a.824.824,0,0,0-.937.926h-2.633a2.36,2.36,0,0,1,1.043-1.99,4.383,4.383,0,0,1,2.66-.765,3.843,3.843,0,0,1,2.555.789,2.743,2.743,0,0,1,.961,2.164v3.742a3.832,3.832,0,0,0,.359,1.781V0Zm-1.648-1.719a1.469,1.469,0,0,0,.816-.211,1.322,1.322,0,0,0,.465-.477V-3.758h-.766q-1.375,0-1.375,1.234a.754.754,0,0,0,.242.582A.876.876,0,0,0-49.969-1.719ZM-49.312-12h2.781L-48.7-9.547l-2.148,0ZM-42.1-8.453l.086.992A2.906,2.906,0,0,1-39.6-8.609a2.14,2.14,0,0,1,2.164,1.273,2.813,2.813,0,0,1,2.484-1.273q2.57,0,2.641,3.109V0h-2.641V-5.336a1.611,1.611,0,0,0-.219-.945.931.931,0,0,0-.8-.3,1.247,1.247,0,0,0-1.164.7l.008.109V0h-2.641V-5.32a1.694,1.694,0,0,0-.211-.961.929.929,0,0,0-.8-.3,1.263,1.263,0,0,0-1.156.7V0H-44.57V-8.453ZM-26.047,0a2.973,2.973,0,0,1-.25-.758,2.448,2.448,0,0,1-2.031.914,3,3,0,0,1-2.031-.723A2.3,2.3,0,0,1-31.2-2.383,2.364,2.364,0,0,1-30.18-4.461a5.174,5.174,0,0,1,2.953-.7h.813v-.448q0-1.17-1.008-1.17a.824.824,0,0,0-.937.926h-2.633a2.36,2.36,0,0,1,1.043-1.99,4.383,4.383,0,0,1,2.66-.765,3.843,3.843,0,0,1,2.555.789,2.743,2.743,0,0,1,.961,2.164v3.742a3.832,3.832,0,0,0,.359,1.781V0ZM-27.7-1.719a1.469,1.469,0,0,0,.816-.211,1.322,1.322,0,0,0,.465-.477V-3.758h-.766q-1.375,0-1.375,1.234a.754.754,0,0,0,.242.582A.876.876,0,0,0-27.7-1.719ZM-17.2-6.07l-.867-.062a1.558,1.558,0,0,0-1.594.781V0H-22.3V-8.453h2.469l.086,1.086a2.039,2.039,0,0,1,1.852-1.242,2.567,2.567,0,0,1,.734.094ZM-11.727,0a2.973,2.973,0,0,1-.25-.758,2.448,2.448,0,0,1-2.031.914,3,3,0,0,1-2.031-.723,2.3,2.3,0,0,1-.836-1.816,2.364,2.364,0,0,1,1.016-2.078,5.174,5.174,0,0,1,2.953-.7h.813v-.448q0-1.17-1.008-1.17a.824.824,0,0,0-.937.926h-2.633a2.36,2.36,0,0,1,1.043-1.99,4.383,4.383,0,0,1,2.66-.765,3.843,3.843,0,0,1,2.555.789,2.743,2.743,0,0,1,.961,2.164v3.742A3.832,3.832,0,0,0-9.094-.133V0Zm-1.648-1.719a1.469,1.469,0,0,0,.816-.211,1.322,1.322,0,0,0,.465-.477V-3.758h-.766q-1.375,0-1.375,1.234a.754.754,0,0,0,.242.582A.876.876,0,0,0-13.375-1.719Zm12.43-8.836v2.1H.445v1.828H-.945v3.867a.987.987,0,0,0,.172.664.922.922,0,0,0,.68.188,3.862,3.862,0,0,0,.656-.047V-.07A4.859,4.859,0,0,1-.922.156,2.758,2.758,0,0,1-2.93-.484,2.626,2.626,0,0,1-3.578-2.43v-4.2H-4.656V-8.453h1.078v-2.1ZM4.258,0H1.617V-8.453H4.258Zm-2.8-10.633a1.175,1.175,0,0,1,.406-.922,1.533,1.533,0,0,1,1.055-.359,1.533,1.533,0,0,1,1.055.359,1.175,1.175,0,0,1,.406.922,1.175,1.175,0,0,1-.406.922,1.533,1.533,0,0,1-1.055.359,1.533,1.533,0,0,1-1.055-.359A1.175,1.175,0,0,1,1.461-10.633ZM13.727-4.164A5.1,5.1,0,0,1,12.84-1.02,2.843,2.843,0,0,1,10.445.156,2.437,2.437,0,0,1,8.531-.7V3.25H5.9v-11.7H8.359l.078.781a2.437,2.437,0,0,1,1.992-.937,2.866,2.866,0,0,1,2.43,1.152,5.16,5.16,0,0,1,.867,3.168Zm-2.633-.164q0-2.25-1.312-2.25a1.239,1.239,0,0,0-1.25.672v3.328a1.279,1.279,0,0,0,1.266.7q1.258,0,1.3-2.172Zm3.461.023a4.989,4.989,0,0,1,.492-2.254,3.52,3.52,0,0,1,1.414-1.52,4.259,4.259,0,0,1,2.164-.531,3.887,3.887,0,0,1,2.992,1.176,4.512,4.512,0,0,1,1.094,3.2v.094A4.378,4.378,0,0,1,21.613-1,3.9,3.9,0,0,1,18.641.156a3.942,3.942,0,0,1-2.9-1.082,4.232,4.232,0,0,1-1.18-2.934Zm2.633.164a3.145,3.145,0,0,0,.367,1.719,1.223,1.223,0,0,0,1.086.547q1.406,0,1.438-2.164V-4.3q0-2.273-1.453-2.273-1.32,0-1.43,1.961Zm19.6-.1,1.3-7.133h2.719L38.4,0H35.555L34.031-6.484,32.539,0H29.7L27.281-11.375h2.727l1.3,7.133,1.563-7.133H35.2ZM46.266,0a2.973,2.973,0,0,1-.25-.758,2.448,2.448,0,0,1-2.031.914,3,3,0,0,1-2.031-.723,2.3,2.3,0,0,1-.836-1.816,2.364,2.364,0,0,1,1.016-2.078,5.174,5.174,0,0,1,2.953-.7H45.9v-.448q0-1.17-1.008-1.17a.824.824,0,0,0-.937.926H41.32a2.36,2.36,0,0,1,1.043-1.99,4.383,4.383,0,0,1,2.66-.765,3.843,3.843,0,0,1,2.555.789,2.743,2.743,0,0,1,.961,2.164v3.742A3.832,3.832,0,0,0,48.9-.133V0ZM44.617-1.719a1.469,1.469,0,0,0,.816-.211,1.322,1.322,0,0,0,.465-.477V-3.758h-.766q-1.375,0-1.375,1.234A.754.754,0,0,0,44-1.941.876.876,0,0,0,44.617-1.719ZM55.109-6.07l-.867-.062a1.558,1.558,0,0,0-1.594.781V0H50.016V-8.453h2.469l.086,1.086a2.039,2.039,0,0,1,1.852-1.242,2.567,2.567,0,0,1,.734.094Zm.617,1.781a5.164,5.164,0,0,1,.867-3.164,2.854,2.854,0,0,1,2.422-1.156,2.428,2.428,0,0,1,1.906.891V-12h2.641V0H61.2l-.133-.906A2.493,2.493,0,0,1,59,.156,2.849,2.849,0,0,1,56.609-1,5.327,5.327,0,0,1,55.727-4.289Zm2.633.164q0,2.25,1.313,2.25a1.3,1.3,0,0,0,1.25-.734V-5.828a1.261,1.261,0,0,0-1.234-.75q-1.219,0-1.32,1.969Z" transform="translate(916 9882)" fill="#e53935"/>
    <path id="Trazado_259468" data-name="Trazado 259468" d="M157.912,0H0" transform="matrix(0.809, 0.588, -0.588, 0.809, 800, 9752.926)" fill="none" stroke="#5d5d5d" stroke-width="2"/>
    <path id="Trazado_259469" data-name="Trazado 259469" d="M7.606,9.41,3.9,14,0,18.821V0Z" transform="translate(932.707 9838.533) rotate(41)" fill="#5d5d5d"/>
    <path id="Trazado_259470" data-name="Trazado 259470" d="M-7901-1841.589l390.291-76.916" transform="translate(8312 11672.18)" fill="none" stroke="#5d5d5d" stroke-width="2"/>
    <path id="Trazado_259471" data-name="Trazado 259471" d="M7.606,9.41,3.9,14,0,18.821V0Z" transform="translate(1174.7 9820.479) rotate(17)" fill="#5d5d5d"/>
    <path id="Trazado_259472" data-name="Trazado 259472" d="M-7525.414-1841.589-7901-1918.505" transform="translate(8700.999 11672.18)" fill="none" stroke="#5d5d5d" stroke-width="2"/>
  </g>
</svg>
