<svg xmlns="http://www.w3.org/2000/svg" width="190" height="110" viewBox="0 0 190 110">
  <g id="Grupo_175334" data-name="Grupo 175334" transform="translate(-180 -2639)">
    <rect id="Rectángulo_40420" data-name="Rectángulo 40420" width="190" height="110" transform="translate(180 2639)" fill="none"/>
    <g id="Grupo_131655" data-name="Grupo 131655" transform="translate(0 -5043)">
      <rect id="Rectángulo_40418" data-name="Rectángulo 40418" width="50" height="50" rx="8" transform="translate(207 7687)" fill="#e2872c" opacity="0.2"/>
      <rect id="Rectángulo_40419" data-name="Rectángulo 40419" width="50" height="50" rx="8" transform="translate(293 7737)" fill="#5000c7" opacity="0.2"/>
    </g>
    <g id="_x34_4_Camp_Fire" transform="translate(184.277 2644)">
      <g id="Grupo_175342" data-name="Grupo 175342" transform="translate(44.723 0)">
        <g id="Grupo_175340" data-name="Grupo 175340" transform="translate(1.473 1.469)">
          <g id="Grupo_175337" data-name="Grupo 175337" transform="translate(0 52.246)">
            <g id="Grupo_175335" data-name="Grupo 175335">
              <path id="Trazado_262582" data-name="Trazado 262582" d="M131.161,314.961a8.136,8.136,0,0,1-10.718,4.187L57.137,290.612a8.136,8.136,0,1,1,6.531-14.9l63.307,28.535A8.136,8.136,0,0,1,131.161,314.961Z" transform="translate(-52.264 -275.022)" fill="#703be9"/>
              <path id="Trazado_262583" data-name="Trazado 262583" d="M127.516,343.737l-.369-.162a8.137,8.137,0,0,1-11.273,8.9L52.937,324.1a8.128,8.128,0,0,0,4.742,6l63.307,28.535a8.136,8.136,0,1,0,6.531-14.9Z" transform="translate(-52.806 -314.515)" fill="#5000c7"/>
            </g>
            <g id="Grupo_175336" data-name="Grupo 175336" transform="translate(0)">
              <path id="Trazado_262584" data-name="Trazado 262584" d="M52.951,314.961a8.136,8.136,0,0,0,10.718,4.187l63.307-28.535a8.136,8.136,0,1,0-6.531-14.9L57.138,304.243a8.136,8.136,0,0,0-4.187,10.718Z" transform="translate(-52.265 -275.022)" fill="#723deb"/>
              <path id="Trazado_262585" data-name="Trazado 262585" d="M57.138,343.737l.369-.162a8.137,8.137,0,0,0,11.273,8.9L131.717,324.1a8.128,8.128,0,0,1-4.742,6L63.669,358.642a8.136,8.136,0,0,1-6.531-14.9Z" transform="translate(-52.265 -314.516)" fill="#5000c7"/>
            </g>
          </g>
          <path id="Trazado_262586" data-name="Trazado 262586" d="M163.136,25.342a3.7,3.7,0,0,1-4.953,3.241l-2.635-.836a8.694,8.694,0,0,1-5.763-7.973V19.75a14.649,14.649,0,0,1,4.97-10.892,14.21,14.21,0,0,0-6.051-1.337,13.175,13.175,0,0,0-10.675,4.92,11.961,11.961,0,0,0-2.113,4.7,28.383,28.383,0,0,1-9.4,15.474,23.741,23.741,0,0,0-8.369,18.172c.145,13.436,12.1,24.386,26.728,24.481C159.838,75.364,172,64.254,172,50.535v-2.86a45.046,45.046,0,0,0-6.291-22.864l-.035-.059a1.371,1.371,0,0,0-2.536.589Z" transform="translate(-105.283 -7.521)" fill="#ffbd7a"/>
          <g id="Grupo_175339" data-name="Grupo 175339" transform="translate(12.869)">
            <g id="Grupo_175338" data-name="Grupo 175338" transform="translate(23.212)">
              <path id="Trazado_262587" data-name="Trazado 262587" d="M247.01,8.858a14.65,14.65,0,0,0-4.97,10.892v.024a8.693,8.693,0,0,0,5.763,7.973l2.634.836a3.932,3.932,0,0,0,4.152-1.117,8.619,8.619,0,0,1-5.111-7.693V19.75a14.649,14.649,0,0,1,4.97-10.892A14.21,14.21,0,0,0,248.4,7.521,15.169,15.169,0,0,0,244.622,8a13.993,13.993,0,0,1,2.388.861Z" transform="translate(-241.055 -7.521)" fill="#f93"/>
              <path id="Trazado_262588" data-name="Trazado 262588" d="M261.341,93.122l-.035-.059a1.371,1.371,0,0,0-2.536.589,3.5,3.5,0,0,1-2.836,3.33,44.777,44.777,0,0,1,4.26,19v2.86c0,12.5-10.091,22.828-23.2,24.5a29.22,29.22,0,0,0,3.517.236c14.958.1,27.118-11.013,27.118-24.731v-2.86a45.046,45.046,0,0,0-6.291-22.864Z" transform="translate(-236.998 -75.831)" fill="#f93"/>
            </g>
            <path id="Trazado_262589" data-name="Trazado 262589" d="M217.286,199.681c0,5.492-5.555,9.944-12.408,9.944s-12.408-4.452-12.408-9.944,5.555-25.191,12.408-25.191S217.286,194.19,217.286,199.681Z" transform="translate(-177.956 -141.879)" fill="#e2872c"/>
            <path id="Trazado_262590" data-name="Trazado 262590" d="M127.668,32.694a4.758,4.758,0,0,1-9.516,0c0-2.628,2.13-12.053,4.758-12.053S127.668,30.067,127.668,32.694Z" transform="translate(-118.152 -18.079)" fill="#ffbd7a"/>
            <circle id="Elipse_6276" data-name="Elipse 6276" cx="4.237" cy="4.237" r="4.237" transform="translate(37.083 5.366)" fill="#e2872c"/>
          </g>
        </g>
        <g id="Grupo_175341" data-name="Grupo 175341" transform="translate(0 0)">
          <path id="Trazado_262591" data-name="Trazado 262591" d="M121.512,81.6l-12.146-5.475L121.5,70.652a9.607,9.607,0,1,0-7.727-17.592l-1.15.519a24.407,24.407,0,0,0,1.759-9.1v-1.6a1.47,1.47,0,1,0-2.939,0v1.6a22.13,22.13,0,0,1-6.717,15.743,25.3,25.3,0,0,1-6.733,4.763,9.853,9.853,0,0,0,1.875-5.719c0-2.878-1.4-9.351-3.739-15.2-2.092-5.228-5.549-11.46-10.138-11.46-3.035,0-5.916,2.67-8.562,7.937a1.47,1.47,0,0,0,2.627,1.32c2.017-4.015,4.18-6.317,5.935-6.317,2.231,0,5,3.593,7.409,9.612,2.18,5.447,3.529,11.565,3.529,14.108,0,4.62-4.8,8.386-10.734,8.471l-.208,0H85.9c-5.989-.039-10.846-3.824-10.846-8.473A29.9,29.9,0,0,1,76,53.308a1.47,1.47,0,1,0-2.858-.687,31.685,31.685,0,0,0-1.028,6.649,9.845,9.845,0,0,0,1.85,5.683c-7.9-3.912-13.331-11.531-13.425-20.237A22.125,22.125,0,0,1,68.4,27.669a29.7,29.7,0,0,0,9.868-16.285A10.526,10.526,0,0,1,80.128,7.26,11.654,11.654,0,0,1,89.62,2.939a12.846,12.846,0,0,1,3.433.46A15.818,15.818,0,0,0,89.23,13.7v.029a10.138,10.138,0,0,0,6.7,9.338q.043.017.087.031l2.636.837a5.456,5.456,0,0,0,4.859-.774,4.79,4.79,0,0,0,1.985-3.407,44.242,44.242,0,0,1,4.724,11.722,1.47,1.47,0,0,0,2.856-.695,47.223,47.223,0,0,0-5.2-12.773l-.028-.047a2.825,2.825,0,0,0-3.226-1.274,2.7,2.7,0,0,0-2.047,2.606,1.858,1.858,0,0,1-.8,1.5,2.508,2.508,0,0,1-2.234.345l-2.59-.822a7.215,7.215,0,0,1-4.784-6.585V13.7a13.124,13.124,0,0,1,4.487-9.8,1.47,1.47,0,0,0-.361-2.421A15.588,15.588,0,0,0,89.619,0a14.589,14.589,0,0,0-11.86,5.52,13.447,13.447,0,0,0-2.367,5.269,26.789,26.789,0,0,1-8.924,14.666A25.354,25.354,0,0,0,57.6,44.749a24.267,24.267,0,0,0,1.765,8.835l-1.172-.529a9.606,9.606,0,0,0-7.725,17.59L62.613,76.12,50.479,81.59A9.606,9.606,0,1,0,58.2,99.181l9.631-4.342a1.469,1.469,0,1,0-1.207-2.68L57.01,96.494a6.666,6.666,0,1,1-5.338-12.217l30.64-13.812a30.909,30.909,0,0,0,3.472.218h.12l.084,0c.06,0,.119,0,.178,0a29.615,29.615,0,0,0,20.629-8.37,26.52,26.52,0,0,0,3.664-4.534l4.507-2.031a6.663,6.663,0,0,1,7.443,1.449,9.563,9.563,0,0,0-4.3.8l-6.927,3.036a1.47,1.47,0,1,0,1.18,2.692l6.927-3.036a6.618,6.618,0,0,1,4.884-.183,6.667,6.667,0,0,1-3.869,7.461l-12.078,5.443-2.437,1.1-3.576,1.613L85.989,83.433l-3.576,1.611-.584.264-4.381,1.975a1.47,1.47,0,1,0,1.209,2.68l7.332-3.3,27.8,12.529A9.607,9.607,0,0,0,121.512,81.6ZM66.189,74.509l-14.53-6.55A6.675,6.675,0,0,1,47.807,60.5a6.621,6.621,0,0,1,4.882.183l6.927,3.036A1.47,1.47,0,0,0,60.8,61.03l-6.927-3.036a9.566,9.566,0,0,0-4.3-.8,6.7,6.7,0,0,1,4.778-2.011A6.6,6.6,0,0,1,57,55.74l4.548,2.05a26.923,26.923,0,0,0,4.462,5.27,28.888,28.888,0,0,0,11.391,6.4Zm57.559,18.555A6.668,6.668,0,0,1,114.98,96.5L89.566,85.045l16.223-7.312,14.527,6.549a6.667,6.667,0,0,1,3.432,8.783Z" transform="translate(-44.723 0)"/>
          <path id="Trazado_262592" data-name="Trazado 262592" d="M346.549,416.419l-14.716-6.335a1.47,1.47,0,0,0-1.162,2.7l14.717,6.335a1.47,1.47,0,1,0,1.162-2.7Z" transform="translate(-274.106 -329.894)"/>
          <path id="Trazado_262593" data-name="Trazado 262593" d="M96.361,434.3,92.7,435.9a1.47,1.47,0,1,0,1.18,2.692l3.666-1.607a1.47,1.47,0,1,0-1.18-2.692Z" transform="translate(-82.618 -349.373)"/>
          <path id="Trazado_262594" data-name="Trazado 262594" d="M160.639,372.156a1.469,1.469,0,0,0-1.948-.723l-22.081,10.126a1.47,1.47,0,1,0,1.225,2.672L159.915,374.1A1.469,1.469,0,0,0,160.639,372.156Z" transform="translate(-117.973 -298.78)"/>
          <path id="Trazado_262595" data-name="Trazado 262595" d="M116.853,32.866a6.235,6.235,0,0,0,6.228-6.228,30.068,30.068,0,0,0-1.464-7.461c-1.308-4.079-2.866-6.062-4.764-6.062S113.4,15.1,112.09,19.178a30.069,30.069,0,0,0-1.464,7.461A6.235,6.235,0,0,0,116.853,32.866Zm-2.115-12.309c.911-3.022,1.756-4.169,2.115-4.453.359.285,1.2,1.432,2.115,4.453a26.824,26.824,0,0,1,1.173,6.081,3.288,3.288,0,0,1-6.577,0A26.82,26.82,0,0,1,114.739,20.558Z" transform="translate(-97.754 -10.554)"/>
          <path id="Trazado_262596" data-name="Trazado 262596" d="M300.495,33.177A5.707,5.707,0,1,0,306.2,27.47,5.713,5.713,0,0,0,300.495,33.177Zm5.707-2.767a2.767,2.767,0,1,1-2.767,2.767,2.77,2.77,0,0,1,2.767-2.767Z" transform="translate(-250.54 -22.105)"/>
        </g>
      </g>
    </g>
  </g>
</svg>
