<svg xmlns="http://www.w3.org/2000/svg" width="1020.171" height="195.902" viewBox="0 0 1020.171 195.902">
  <g id="Grupo_223749" data-name="Grupo 223749" transform="translate(10339 1745)">
    <path id="Trazado_262616" data-name="Trazado 262616" d="M15,0H336.483a15,15,0,0,1,15,15v7.9a15,15,0,0,1-15,15H15a15.465,15.465,0,0,1-4.74-.764A14.913,14.913,0,0,1,0,22.9V15A15,15,0,0,1,15,0Z" transform="translate(-10004 -1745)" fill="#81af1d"/>
    <path id="Trazado_262724" data-name="Trazado 262724" d="M8.82-9.344H5.813V0H3.172V-9.344H.219v-2.031h8.6ZM12.5,0H9.852V-8.453H12.5Zm0-10.414H9.852v-1.773H12.5Zm9.445,6.367a5,5,0,0,1-.859,3.059A2.845,2.845,0,0,1,18.664.164,2.4,2.4,0,0,1,17.582-.07a2.409,2.409,0,0,1-.824-.68v4H14.117v-11.7h2.492l.078.922a2.569,2.569,0,0,1,.84-.8,2.205,2.205,0,0,1,1.121-.281A2.815,2.815,0,0,1,21.082-7.4a5.375,5.375,0,0,1,.863,3.188Zm-2.633-.164A3.992,3.992,0,0,0,19-5.93a1.043,1.043,0,0,0-1-.648,1.589,1.589,0,0,0-.754.164,1.21,1.21,0,0,0-.488.477v3.531a1.131,1.131,0,0,0,.5.406,1.929,1.929,0,0,0,.762.133,1.038,1.038,0,0,0,1-.574,3.51,3.51,0,0,0,.3-1.605ZM22.758-4.3A4.468,4.468,0,0,1,23.836-7.41a3.837,3.837,0,0,1,3.008-1.2,3.847,3.847,0,0,1,3.016,1.2A4.468,4.468,0,0,1,30.938-4.3v.164a4.465,4.465,0,0,1-1.078,3.109,3.834,3.834,0,0,1-3,1.2,3.863,3.863,0,0,1-3.023-1.2,4.465,4.465,0,0,1-1.078-3.109Zm2.641.164a3.5,3.5,0,0,0,.332,1.668,1.181,1.181,0,0,0,1.129.605,1.168,1.168,0,0,0,1.109-.609A3.465,3.465,0,0,0,28.3-4.141V-4.3a3.478,3.478,0,0,0-.336-1.652,1.177,1.177,0,0,0-1.125-.621,1.16,1.16,0,0,0-1.113.625A3.517,3.517,0,0,0,25.4-4.3ZM36.508-2.375a.689.689,0,0,0-.355-.559,3.834,3.834,0,0,0-1.293-.441,5.1,5.1,0,0,1-2.227-.895,2.026,2.026,0,0,1-.75-1.668,2.377,2.377,0,0,1,.938-1.895,3.856,3.856,0,0,1,2.539-.777,4.36,4.36,0,0,1,2.688.754A2.217,2.217,0,0,1,39-5.906l-.016.047H36.422a1.047,1.047,0,0,0-.25-.758,1.106,1.106,0,0,0-.82-.258,1.073,1.073,0,0,0-.7.227.71.71,0,0,0-.281.578.688.688,0,0,0,.324.57,3.668,3.668,0,0,0,1.309.422,5.257,5.257,0,0,1,2.3.91,2.088,2.088,0,0,1,.742,1.715A2.239,2.239,0,0,1,38.035-.574a4.438,4.438,0,0,1-2.676.738,4.013,4.013,0,0,1-2.73-.875,2.41,2.41,0,0,1-.957-1.953l.016-.047h2.391a1.06,1.06,0,0,0,.363.867,1.6,1.6,0,0,0,.988.266,1.319,1.319,0,0,0,.8-.207A.7.7,0,0,0,36.508-2.375Zm7.414-1.836A5.375,5.375,0,0,1,44.785-7.4a2.815,2.815,0,0,1,2.434-1.211,2.1,2.1,0,0,1,1.059.27,2.8,2.8,0,0,1,.848.77v-4.617h2.641V0H49.453l-.18-1.031a2.842,2.842,0,0,1-.895.887A2.232,2.232,0,0,1,47.2.164,2.842,2.842,0,0,1,44.781-.992a5,5,0,0,1-.859-3.055Zm2.641.164a3.51,3.51,0,0,0,.3,1.605,1.051,1.051,0,0,0,1.012.574,1.665,1.665,0,0,0,.73-.152,1.309,1.309,0,0,0,.52-.449V-5.883a1.438,1.438,0,0,0-.516-.516,1.416,1.416,0,0,0-.719-.18,1.054,1.054,0,0,0-1.016.648,3.992,3.992,0,0,0-.312,1.719ZM57.016.164A3.924,3.924,0,0,1,54-1a4.14,4.14,0,0,1-1.09-2.945v-.3A4.73,4.73,0,0,1,53.941-7.4a3.649,3.649,0,0,1,2.973-1.211,3.423,3.423,0,0,1,2.652,1.023,3.984,3.984,0,0,1,.941,2.8V-3.4H55.664l-.016.047a1.641,1.641,0,0,0,.492,1.074,1.719,1.719,0,0,0,1.234.41,5.35,5.35,0,0,0,1.262-.125,7.953,7.953,0,0,0,1.152-.4l.633,1.609a4.832,4.832,0,0,1-1.469.672A6.778,6.778,0,0,1,57.016.164Zm-.1-6.742a1.09,1.09,0,0,0-.934.4,2.019,2.019,0,0,0-.348,1.09l.016.039H57.93v-.2a1.757,1.757,0,0,0-.23-.992A.883.883,0,0,0,56.914-6.578ZM69.227-1.867a1.033,1.033,0,0,0,.8-.293,1.221,1.221,0,0,0,.266-.848H72.7l.016.047a2.775,2.775,0,0,1-.957,2.254,3.693,3.693,0,0,1-2.535.871,3.74,3.74,0,0,1-2.973-1.191,4.543,4.543,0,0,1-1.043-3.105v-.18a4.557,4.557,0,0,1,1.039-3.1,3.712,3.712,0,0,1,2.961-1.2,3.636,3.636,0,0,1,2.574.895,3.085,3.085,0,0,1,.934,2.449l-.016.047H70.3a1.636,1.636,0,0,0-.273-.98.937.937,0,0,0-.812-.379,1.085,1.085,0,0,0-1.066.613,3.792,3.792,0,0,0-.3,1.652v.18a3.778,3.778,0,0,0,.3,1.664A1.1,1.1,0,0,0,69.227-1.867ZM78.68-.008a3.189,3.189,0,0,1-.254-.6,4.612,4.612,0,0,1-.16-.7,3.23,3.23,0,0,1-.848,1.074,2.046,2.046,0,0,1-1.316.4A2.927,2.927,0,0,1,74.035-.52,2.415,2.415,0,0,1,73.3-2.383a2.254,2.254,0,0,1,.945-1.941,4.9,4.9,0,0,1,2.867-.684H78.2v-.6a1.2,1.2,0,0,0-.258-.828,1,1,0,0,0-.789-.289.952.952,0,0,0-.684.215.891.891,0,0,0-.223.668L73.68-5.852,73.664-5.9a2.2,2.2,0,0,1,.965-1.934,4.324,4.324,0,0,1,2.691-.777,3.937,3.937,0,0,1,2.543.781,2.7,2.7,0,0,1,.973,2.234v3.188a6.5,6.5,0,0,0,.113,1.25A6.7,6.7,0,0,0,81.289,0ZM76.82-1.719a1.609,1.609,0,0,0,.855-.227,1.3,1.3,0,0,0,.52-.539V-3.6H77.133a1.194,1.194,0,0,0-.914.3,1.1,1.1,0,0,0-.281.773.748.748,0,0,0,.246.582A.913.913,0,0,0,76.82-1.719Zm.766-10.352h2.9l.016.047L78.3-9.992H75.977Zm7.18,3.617.094,1.117a2.8,2.8,0,0,1,1-.941,2.837,2.837,0,0,1,1.387-.332,2.584,2.584,0,0,1,1.359.344,2.112,2.112,0,0,1,.859,1.047,2.837,2.837,0,0,1,1-1.027,2.76,2.76,0,0,1,1.434-.363,2.348,2.348,0,0,1,1.941.887,4.347,4.347,0,0,1,.707,2.73V0H91.906V-4.992a2.2,2.2,0,0,0-.254-1.246.89.89,0,0,0-.762-.34,1.582,1.582,0,0,0-.676.137,1.426,1.426,0,0,0-.5.379q0,.133.008.23t.008.191V0H87.094V-4.992a2.221,2.221,0,0,0-.25-1.25.9.9,0,0,0-.773-.336,1.524,1.524,0,0,0-.652.137,1.426,1.426,0,0,0-.5.379V0H82.281V-8.453Zm16.18,8.445a3.189,3.189,0,0,1-.254-.6,4.612,4.612,0,0,1-.16-.7,3.23,3.23,0,0,1-.848,1.074,2.046,2.046,0,0,1-1.316.4A2.927,2.927,0,0,1,96.3-.52a2.415,2.415,0,0,1-.738-1.863,2.254,2.254,0,0,1,.945-1.941,4.9,4.9,0,0,1,2.867-.684h1.086v-.6a1.2,1.2,0,0,0-.258-.828,1,1,0,0,0-.789-.289.952.952,0,0,0-.684.215.891.891,0,0,0-.223.668l-2.562-.008L95.93-5.9a2.2,2.2,0,0,1,.965-1.934,4.324,4.324,0,0,1,2.691-.777,3.937,3.937,0,0,1,2.543.781,2.7,2.7,0,0,1,.973,2.234v3.188a6.5,6.5,0,0,0,.113,1.25A6.7,6.7,0,0,0,103.555,0ZM99.086-1.719a1.609,1.609,0,0,0,.855-.227,1.3,1.3,0,0,0,.52-.539V-3.6H99.4a1.194,1.194,0,0,0-.914.3,1.1,1.1,0,0,0-.281.773.748.748,0,0,0,.246.582A.913.913,0,0,0,99.086-1.719ZM109.219-6.2l-.859-.008a1.463,1.463,0,0,0-.742.168,1.036,1.036,0,0,0-.43.473V0h-2.641V-8.453h2.484l.094,1.242a2.549,2.549,0,0,1,.7-1.031,1.543,1.543,0,0,1,1.023-.367,1.963,1.963,0,0,1,.32.023,2.423,2.423,0,0,1,.3.07Zm5.852,6.2a3.189,3.189,0,0,1-.254-.6,4.612,4.612,0,0,1-.16-.7,3.23,3.23,0,0,1-.848,1.074,2.046,2.046,0,0,1-1.316.4,2.927,2.927,0,0,1-2.066-.684,2.415,2.415,0,0,1-.738-1.863,2.254,2.254,0,0,1,.945-1.941,4.9,4.9,0,0,1,2.867-.684h1.086v-.6a1.2,1.2,0,0,0-.258-.828,1,1,0,0,0-.789-.289.952.952,0,0,0-.684.215.891.891,0,0,0-.223.668l-2.562-.008-.016-.047a2.2,2.2,0,0,1,.965-1.934,4.324,4.324,0,0,1,2.691-.777,3.937,3.937,0,0,1,2.543.781,2.7,2.7,0,0,1,.973,2.234v3.188a6.5,6.5,0,0,0,.113,1.25A6.7,6.7,0,0,0,117.68,0Zm-1.859-1.711a1.609,1.609,0,0,0,.855-.227,1.3,1.3,0,0,0,.52-.539V-3.6h-1.062a1.194,1.194,0,0,0-.914.3,1.1,1.1,0,0,0-.281.773.748.748,0,0,0,.246.582A.913.913,0,0,0,113.211-1.719Zm9.867-.656a.689.689,0,0,0-.355-.559,3.834,3.834,0,0,0-1.293-.441A5.1,5.1,0,0,1,119.2-4.27a2.026,2.026,0,0,1-.75-1.668,2.377,2.377,0,0,1,.938-1.895,3.856,3.856,0,0,1,2.539-.777,4.36,4.36,0,0,1,2.688.754,2.217,2.217,0,0,1,.953,1.949l-.016.047h-2.562a1.047,1.047,0,0,0-.25-.758,1.106,1.106,0,0,0-.82-.258,1.073,1.073,0,0,0-.7.227.71.71,0,0,0-.281.578.688.688,0,0,0,.324.57,3.668,3.668,0,0,0,1.309.422,5.257,5.257,0,0,1,2.3.91,2.088,2.088,0,0,1,.742,1.715,2.239,2.239,0,0,1-1.012,1.879,4.438,4.438,0,0,1-2.676.738,4.013,4.013,0,0,1-2.73-.875,2.41,2.41,0,0,1-.957-1.953l.016-.047h2.391a1.06,1.06,0,0,0,.363.867,1.6,1.6,0,0,0,.988.266,1.319,1.319,0,0,0,.8-.207A.7.7,0,0,0,123.078-2.375Zm7.414-1.836a5.375,5.375,0,0,1,.863-3.187,2.815,2.815,0,0,1,2.434-1.211,2.1,2.1,0,0,1,1.059.27,2.8,2.8,0,0,1,.848.77v-4.617h2.641V0h-2.312l-.18-1.031a2.842,2.842,0,0,1-.895.887,2.232,2.232,0,0,1-1.176.309,2.842,2.842,0,0,1-2.422-1.156,5,5,0,0,1-.859-3.055Zm2.641.164a3.51,3.51,0,0,0,.3,1.605,1.051,1.051,0,0,0,1.012.574,1.665,1.665,0,0,0,.73-.152,1.309,1.309,0,0,0,.52-.449V-5.883a1.438,1.438,0,0,0-.516-.516,1.416,1.416,0,0,0-.719-.18,1.054,1.054,0,0,0-1.016.648,3.992,3.992,0,0,0-.312,1.719ZM143.586.164A3.924,3.924,0,0,1,140.574-1a4.14,4.14,0,0,1-1.09-2.945v-.3A4.73,4.73,0,0,1,140.512-7.4a3.649,3.649,0,0,1,2.973-1.211,3.423,3.423,0,0,1,2.652,1.023,3.984,3.984,0,0,1,.941,2.8V-3.4h-4.844l-.016.047a1.641,1.641,0,0,0,.492,1.074,1.719,1.719,0,0,0,1.234.41,5.35,5.35,0,0,0,1.262-.125,7.954,7.954,0,0,0,1.152-.4l.633,1.609a4.832,4.832,0,0,1-1.469.672A6.778,6.778,0,0,1,143.586.164Zm-.1-6.742a1.09,1.09,0,0,0-.934.4,2.019,2.019,0,0,0-.348,1.09l.016.039H144.5v-.2a1.757,1.757,0,0,0-.23-.992A.883.883,0,0,0,143.484-6.578ZM155.8-1.867a1.033,1.033,0,0,0,.8-.293,1.221,1.221,0,0,0,.266-.848h2.406l.016.047a2.775,2.775,0,0,1-.957,2.254A3.693,3.693,0,0,1,155.8.164a3.74,3.74,0,0,1-2.973-1.191,4.543,4.543,0,0,1-1.043-3.105v-.18a4.557,4.557,0,0,1,1.039-3.1,3.712,3.712,0,0,1,2.961-1.2,3.636,3.636,0,0,1,2.574.895,3.085,3.085,0,0,1,.934,2.449l-.016.047h-2.406a1.636,1.636,0,0,0-.273-.98.937.937,0,0,0-.812-.379,1.085,1.085,0,0,0-1.066.613,3.792,3.792,0,0,0-.3,1.652v.18a3.778,3.778,0,0,0,.3,1.664A1.1,1.1,0,0,0,155.8-1.867ZM160.016-4.3a4.468,4.468,0,0,1,1.078-3.105,3.837,3.837,0,0,1,3.008-1.2,3.847,3.847,0,0,1,3.016,1.2A4.468,4.468,0,0,1,168.2-4.3v.164a4.465,4.465,0,0,1-1.078,3.109,3.834,3.834,0,0,1-3,1.2,3.863,3.863,0,0,1-3.023-1.2,4.465,4.465,0,0,1-1.078-3.109Zm2.641.164a3.5,3.5,0,0,0,.332,1.668,1.181,1.181,0,0,0,1.129.605,1.168,1.168,0,0,0,1.109-.609,3.465,3.465,0,0,0,.336-1.664V-4.3a3.478,3.478,0,0,0-.336-1.652,1.177,1.177,0,0,0-1.125-.621,1.16,1.16,0,0,0-1.113.625,3.517,3.517,0,0,0-.332,1.648Zm9.188-4.312.094,1.117a2.8,2.8,0,0,1,1-.941,2.837,2.837,0,0,1,1.387-.332,2.584,2.584,0,0,1,1.359.344,2.112,2.112,0,0,1,.859,1.047,2.837,2.837,0,0,1,1-1.027,2.76,2.76,0,0,1,1.434-.363,2.348,2.348,0,0,1,1.941.887,4.347,4.347,0,0,1,.707,2.73V0h-2.648V-4.992a2.2,2.2,0,0,0-.254-1.246.89.89,0,0,0-.762-.34,1.582,1.582,0,0,0-.676.137,1.426,1.426,0,0,0-.5.379q0,.133.008.23t.008.191V0h-2.641V-4.992a2.221,2.221,0,0,0-.25-1.25.9.9,0,0,0-.773-.336,1.524,1.524,0,0,0-.652.137,1.426,1.426,0,0,0-.5.379V0h-2.641V-8.453Zm19.125,4.406a5.121,5.121,0,0,1-.828,3.07A2.837,2.837,0,0,1,187.688.164a2.369,2.369,0,0,1-1.2-.3,2.617,2.617,0,0,1-.883-.859L185.445,0h-2.3V-12.187h2.641v4.555a2.547,2.547,0,0,1,.816-.723,2.205,2.205,0,0,1,1.074-.254,2.808,2.808,0,0,1,2.465,1.2,5.511,5.511,0,0,1,.832,3.2Zm-2.633-.164a4.346,4.346,0,0,0-.281-1.746,1.045,1.045,0,0,0-1.047-.621,1.584,1.584,0,0,0-.738.16,1.2,1.2,0,0,0-.488.465V-2.4a1.151,1.151,0,0,0,.5.4,1.883,1.883,0,0,0,.746.133,1.05,1.05,0,0,0,1.047-.543,3.879,3.879,0,0,0,.266-1.637Zm8.891,2.945a2.779,2.779,0,0,1-.973,1.059,2.56,2.56,0,0,1-1.379.371,2.5,2.5,0,0,1-2.059-.922,4.494,4.494,0,0,1-.746-2.852V-8.453H194.7v4.859a2.563,2.563,0,0,0,.254,1.359.889.889,0,0,0,.785.367,2.155,2.155,0,0,0,.742-.117,1.434,1.434,0,0,0,.547-.352V-8.453h2.641V0h-2.125Zm8.3-1.109a.689.689,0,0,0-.355-.559,3.834,3.834,0,0,0-1.293-.441,5.1,5.1,0,0,1-2.227-.895,2.026,2.026,0,0,1-.75-1.668,2.377,2.377,0,0,1,.938-1.895,3.856,3.856,0,0,1,2.539-.777,4.36,4.36,0,0,1,2.688.754,2.217,2.217,0,0,1,.953,1.949l-.016.047h-2.562a1.047,1.047,0,0,0-.25-.758,1.106,1.106,0,0,0-.82-.258,1.073,1.073,0,0,0-.7.227.71.71,0,0,0-.281.578.688.688,0,0,0,.324.57,3.667,3.667,0,0,0,1.309.422,5.257,5.257,0,0,1,2.3.91,2.088,2.088,0,0,1,.742,1.715,2.239,2.239,0,0,1-1.012,1.879,4.438,4.438,0,0,1-2.676.738,4.013,4.013,0,0,1-2.73-.875,2.41,2.41,0,0,1-.957-1.953l.016-.047H203.1a1.06,1.06,0,0,0,.363.867,1.6,1.6,0,0,0,.988.266,1.319,1.319,0,0,0,.8-.207A.7.7,0,0,0,205.531-2.375Zm6.813-8.18v2.1h1.336v1.828h-1.336V-2.75a.948.948,0,0,0,.184.652.642.642,0,0,0,.5.2,2.654,2.654,0,0,0,.324-.016,2.807,2.807,0,0,0,.309-.062l.18,1.953a6.374,6.374,0,0,1-.719.145,5.789,5.789,0,0,1-.758.043,2.639,2.639,0,0,1-1.98-.7,3.069,3.069,0,0,1-.676-2.2V-6.625h-1.18V-8.453h1.18v-2.1ZM217.727,0h-2.648V-8.453h2.648Zm0-10.414h-2.648v-1.773h2.648ZM218.992-4.3A4.468,4.468,0,0,1,220.07-7.41a3.837,3.837,0,0,1,3.008-1.2,3.847,3.847,0,0,1,3.016,1.2A4.468,4.468,0,0,1,227.172-4.3v.164a4.465,4.465,0,0,1-1.078,3.109,3.834,3.834,0,0,1-3,1.2,3.863,3.863,0,0,1-3.023-1.2,4.465,4.465,0,0,1-1.078-3.109Zm2.641.164a3.5,3.5,0,0,0,.332,1.668,1.181,1.181,0,0,0,1.129.605,1.168,1.168,0,0,0,1.109-.609,3.465,3.465,0,0,0,.336-1.664V-4.3a3.478,3.478,0,0,0-.336-1.652,1.177,1.177,0,0,0-1.125-.621,1.16,1.16,0,0,0-1.113.625,3.517,3.517,0,0,0-.332,1.648Zm1.766-7.93h2.9l.016.047-2.2,2.031h-2.328Zm7.367,3.617.1,1.188a3.06,3.06,0,0,1,1.023-.988,2.648,2.648,0,0,1,1.359-.355,2.383,2.383,0,0,1,1.941.844,4.174,4.174,0,0,1,.7,2.68V0H233.25V-5.094a1.937,1.937,0,0,0-.258-1.145.884.884,0,0,0-.75-.34,1.856,1.856,0,0,0-.758.148,1.513,1.513,0,0,0-.562.422V0h-2.633V-8.453Z" transform="translate(-9947 -1721)" fill="#fff"/>
    <g id="Trazado_262725" data-name="Trazado 262725" transform="translate(-10076 -1587)" fill="#fff">
      <path d="M 226.9512481689453 37.40219879150391 L 14.99999904632568 37.40219879150391 C 11.12690544128418 37.40219879150391 7.485624313354492 35.89394760131836 4.746936798095703 33.1552619934082 C 2.008249044418335 30.41657447814941 0.499999076128006 26.77529335021973 0.499999076128006 22.90219879150391 L 0.499999076128006 15.0000114440918 C 0.499999076128006 11.12691783905029 2.008249044418335 7.485636234283447 4.746936798095703 4.746948719024658 C 7.485624313354492 2.008261442184448 11.12690544128418 0.5000113844871521 14.99999904632568 0.5000113844871521 L 226.9512481689453 0.5000113844871521 C 230.8243408203125 0.5000113844871521 234.4656219482422 2.008261442184448 237.2043151855469 4.746948719024658 C 239.9429931640625 7.485636234283447 241.4512481689453 11.12691783905029 241.4512481689453 15.0000114440918 L 241.4512481689453 22.90219879150391 C 241.4512481689453 26.77529335021973 239.9429931640625 30.41657447814941 237.2043151855469 33.1552619934082 C 234.4656219482422 35.89394760131836 230.8243408203125 37.40219879150391 226.9512481689453 37.40219879150391 Z" stroke="none"/>
      <path d="M 15 1.000011444091797 C 11.26046752929688 1.000011444091797 7.7447509765625 2.456260681152344 5.100494384765625 5.100509643554688 C 2.456253051757812 7.744760513305664 1 11.2604808807373 1 15.0000114440918 L 1 22.90219879150391 C 1 26.64173126220703 2.456253051757812 30.15744781494141 5.100494384765625 32.80169677734375 C 7.7447509765625 35.44594955444336 11.26046752929688 36.90219879150391 15 36.90219879150391 L 226.9512481689453 36.90219879150391 C 230.6907806396484 36.90219879150391 234.2064971923828 35.44594955444336 236.8507537841797 32.80169677734375 C 239.4949951171875 30.15744781494141 240.9512481689453 26.64173126220703 240.9512481689453 22.90219879150391 L 240.9512481689453 15.0000114440918 C 240.9512481689453 11.2604808807373 239.4949951171875 7.744760513305664 236.8507537841797 5.100509643554688 C 234.2064971923828 2.456260681152344 230.6907806396484 1.000011444091797 226.9512481689453 1.000011444091797 L 15 1.000011444091797 M 15 1.1444091796875e-05 L 226.9512481689453 1.1444091796875e-05 C 235.2355346679688 1.1444091796875e-05 241.9512481689453 6.715730667114258 241.9512481689453 15.0000114440918 L 241.9512481689453 22.90219879150391 C 241.9512481689453 31.18647956848145 235.2355346679688 37.90219879150391 226.9512481689453 37.90219879150391 L 15 37.90219879150391 C 6.715713500976562 37.90219879150391 0 31.18647956848145 0 22.90219879150391 L 0 15.0000114440918 C 0 6.715730667114258 6.715713500976562 1.1444091796875e-05 15 1.1444091796875e-05 Z" stroke="none" fill="#81af1d"/>
    </g>
    <path id="Trazado_262726" data-name="Trazado 262726" d="M-66.379-9.344h-3.008V0h-2.641V-9.344H-74.98v-2.031h8.6ZM-61.3-6.2l-.859-.008a1.463,1.463,0,0,0-.742.168,1.036,1.036,0,0,0-.43.473V0h-2.641V-8.453h2.484l.094,1.242a2.549,2.549,0,0,1,.7-1.031,1.543,1.543,0,0,1,1.023-.367,1.963,1.963,0,0,1,.32.023,2.423,2.423,0,0,1,.3.07Zm5.852,6.2a3.189,3.189,0,0,1-.254-.6,4.612,4.612,0,0,1-.16-.7,3.23,3.23,0,0,1-.848,1.074,2.046,2.046,0,0,1-1.316.4A2.927,2.927,0,0,1-60.094-.52a2.415,2.415,0,0,1-.738-1.863,2.254,2.254,0,0,1,.945-1.941,4.9,4.9,0,0,1,2.867-.684h1.086v-.6a1.2,1.2,0,0,0-.258-.828,1,1,0,0,0-.789-.289.952.952,0,0,0-.684.215.891.891,0,0,0-.223.668l-2.562-.008-.016-.047A2.2,2.2,0,0,1-59.5-7.832a4.324,4.324,0,0,1,2.691-.777,3.937,3.937,0,0,1,2.543.781,2.7,2.7,0,0,1,.973,2.234v3.188a6.5,6.5,0,0,0,.113,1.25A6.694,6.694,0,0,0-52.84,0Zm-1.859-1.711a1.609,1.609,0,0,0,.855-.227,1.3,1.3,0,0,0,.52-.539V-3.6H-57a1.194,1.194,0,0,0-.914.3,1.1,1.1,0,0,0-.281.773.748.748,0,0,0,.246.582A.913.913,0,0,0-57.309-1.719ZM-52.2-4.211A5.375,5.375,0,0,1-51.336-7.4,2.815,2.815,0,0,1-48.9-8.609a2.1,2.1,0,0,1,1.059.27A2.8,2.8,0,0,1-47-7.57v-4.617h2.641V0h-2.312l-.18-1.031a2.842,2.842,0,0,1-.895.887,2.232,2.232,0,0,1-1.176.309A2.842,2.842,0,0,1-51.34-.992,5,5,0,0,1-52.2-4.047Zm2.641.164a3.51,3.51,0,0,0,.3,1.605,1.051,1.051,0,0,0,1.012.574,1.665,1.665,0,0,0,.73-.152A1.309,1.309,0,0,0-47-2.469V-5.883a1.438,1.438,0,0,0-.516-.516,1.416,1.416,0,0,0-.719-.18,1.054,1.054,0,0,0-1.016.648,3.992,3.992,0,0,0-.312,1.719ZM-40.09,0h-2.648V-8.453h2.648Zm0-10.414h-2.648v-1.773h2.648Zm5.234,8.547a1.033,1.033,0,0,0,.8-.293,1.221,1.221,0,0,0,.266-.848h2.406l.016.047A2.775,2.775,0,0,1-32.32-.707a3.693,3.693,0,0,1-2.535.871,3.74,3.74,0,0,1-2.973-1.191,4.543,4.543,0,0,1-1.043-3.105v-.18a4.557,4.557,0,0,1,1.039-3.1,3.712,3.712,0,0,1,2.961-1.2,3.636,3.636,0,0,1,2.574.895,3.085,3.085,0,0,1,.934,2.449l-.016.047h-2.406a1.636,1.636,0,0,0-.273-.98.937.937,0,0,0-.812-.379,1.085,1.085,0,0,0-1.066.613,3.792,3.792,0,0,0-.3,1.652v.18a3.778,3.778,0,0,0,.3,1.664A1.1,1.1,0,0,0-34.855-1.867ZM-27.52,0h-2.648V-8.453h2.648Zm0-10.414h-2.648v-1.773h2.648ZM-26.254-4.3A4.468,4.468,0,0,1-25.176-7.41a3.837,3.837,0,0,1,3.008-1.2,3.847,3.847,0,0,1,3.016,1.2A4.468,4.468,0,0,1-18.074-4.3v.164a4.465,4.465,0,0,1-1.078,3.109,3.834,3.834,0,0,1-3,1.2,3.863,3.863,0,0,1-3.023-1.2,4.465,4.465,0,0,1-1.078-3.109Zm2.641.164a3.5,3.5,0,0,0,.332,1.668,1.181,1.181,0,0,0,1.129.605,1.168,1.168,0,0,0,1.109-.609,3.465,3.465,0,0,0,.336-1.664V-4.3a3.478,3.478,0,0,0-.336-1.652,1.177,1.177,0,0,0-1.125-.621,1.16,1.16,0,0,0-1.113.625A3.517,3.517,0,0,0-23.613-4.3Zm9.133-4.312.1,1.188a3.06,3.06,0,0,1,1.023-.988A2.648,2.648,0,0,1-12-8.609a2.383,2.383,0,0,1,1.941.844,4.174,4.174,0,0,1,.7,2.68V0H-12V-5.094a1.937,1.937,0,0,0-.258-1.145.884.884,0,0,0-.75-.34,1.856,1.856,0,0,0-.758.148,1.513,1.513,0,0,0-.562.422V0h-2.633V-8.453ZM-3.035-.008a3.189,3.189,0,0,1-.254-.6,4.612,4.612,0,0,1-.16-.7A3.23,3.23,0,0,1-4.3-.238a2.046,2.046,0,0,1-1.316.4A2.927,2.927,0,0,1-7.68-.52a2.415,2.415,0,0,1-.738-1.863,2.254,2.254,0,0,1,.945-1.941,4.9,4.9,0,0,1,2.867-.684H-3.52v-.6a1.2,1.2,0,0,0-.258-.828,1,1,0,0,0-.789-.289.952.952,0,0,0-.684.215.891.891,0,0,0-.223.668l-2.562-.008L-8.051-5.9a2.2,2.2,0,0,1,.965-1.934,4.324,4.324,0,0,1,2.691-.777,3.937,3.937,0,0,1,2.543.781A2.7,2.7,0,0,1-.879-5.594v3.188a6.5,6.5,0,0,0,.113,1.25A6.694,6.694,0,0,0-.426,0ZM-4.895-1.719a1.609,1.609,0,0,0,.855-.227,1.3,1.3,0,0,0,.52-.539V-3.6H-4.582a1.194,1.194,0,0,0-.914.3,1.1,1.1,0,0,0-.281.773.748.748,0,0,0,.246.582A.913.913,0,0,0-4.895-1.719ZM3.332,0H.684V-12.187H3.332Zm8.086-8.453.094,1.117a2.8,2.8,0,0,1,1-.941A2.837,2.837,0,0,1,13.9-8.609a2.584,2.584,0,0,1,1.359.344,2.112,2.112,0,0,1,.859,1.047,2.837,2.837,0,0,1,1-1.027,2.76,2.76,0,0,1,1.434-.363,2.348,2.348,0,0,1,1.941.887,4.347,4.347,0,0,1,.707,2.73V0H18.559V-4.992A2.2,2.2,0,0,0,18.3-6.238a.89.89,0,0,0-.762-.34,1.582,1.582,0,0,0-.676.137,1.426,1.426,0,0,0-.5.379q0,.133.008.23t.008.191V0H13.746V-4.992a2.221,2.221,0,0,0-.25-1.25.9.9,0,0,0-.773-.336,1.524,1.524,0,0,0-.652.137,1.426,1.426,0,0,0-.5.379V0H8.934V-8.453ZM26.465.164A3.924,3.924,0,0,1,23.453-1a4.14,4.14,0,0,1-1.09-2.945v-.3A4.73,4.73,0,0,1,23.391-7.4a3.649,3.649,0,0,1,2.973-1.211,3.423,3.423,0,0,1,2.652,1.023,3.984,3.984,0,0,1,.941,2.8V-3.4H25.113l-.016.047a1.641,1.641,0,0,0,.492,1.074,1.719,1.719,0,0,0,1.234.41,5.35,5.35,0,0,0,1.262-.125,7.953,7.953,0,0,0,1.152-.4l.633,1.609A4.832,4.832,0,0,1,28.4-.109,6.778,6.778,0,0,1,26.465.164Zm-.1-6.742a1.09,1.09,0,0,0-.934.4,2.019,2.019,0,0,0-.348,1.09l.016.039h2.281v-.2a1.757,1.757,0,0,0-.23-.992A.883.883,0,0,0,26.363-6.578Zm7.508-1.875V.117a3.324,3.324,0,0,1-.848,2.438,3.159,3.159,0,0,1-2.355.859,5.8,5.8,0,0,1-.629-.031,6.125,6.125,0,0,1-.613-.1l.109-1.992q.227.047.387.07a2.858,2.858,0,0,0,.4.023.772.772,0,0,0,.668-.32,1.612,1.612,0,0,0,.23-.945v-8.57Zm-.047-1.969H31.176v-1.766h2.648ZM35-4.3A4.468,4.468,0,0,1,36.082-7.41a3.837,3.837,0,0,1,3.008-1.2,3.847,3.847,0,0,1,3.016,1.2A4.468,4.468,0,0,1,43.184-4.3v.164a4.465,4.465,0,0,1-1.078,3.109,3.834,3.834,0,0,1-3,1.2,3.863,3.863,0,0,1-3.023-1.2A4.465,4.465,0,0,1,35-4.141Zm2.641.164a3.5,3.5,0,0,0,.332,1.668,1.181,1.181,0,0,0,1.129.605,1.168,1.168,0,0,0,1.109-.609,3.465,3.465,0,0,0,.336-1.664V-4.3a3.478,3.478,0,0,0-.336-1.652,1.177,1.177,0,0,0-1.125-.621,1.16,1.16,0,0,0-1.113.625A3.517,3.517,0,0,0,37.645-4.3ZM49.02-6.2l-.859-.008a1.463,1.463,0,0,0-.742.168,1.036,1.036,0,0,0-.43.473V0H44.348V-8.453h2.484l.094,1.242a2.549,2.549,0,0,1,.7-1.031,1.543,1.543,0,0,1,1.023-.367,1.963,1.963,0,0,1,.32.023,2.423,2.423,0,0,1,.3.07Zm5.852,6.2a3.189,3.189,0,0,1-.254-.6,4.612,4.612,0,0,1-.16-.7,3.23,3.23,0,0,1-.848,1.074,2.046,2.046,0,0,1-1.316.4A2.927,2.927,0,0,1,50.227-.52a2.415,2.415,0,0,1-.738-1.863,2.254,2.254,0,0,1,.945-1.941A4.9,4.9,0,0,1,53.3-5.008h1.086v-.6a1.2,1.2,0,0,0-.258-.828,1,1,0,0,0-.789-.289.952.952,0,0,0-.684.215.891.891,0,0,0-.223.668l-2.562-.008L49.855-5.9a2.2,2.2,0,0,1,.965-1.934,4.324,4.324,0,0,1,2.691-.777,3.937,3.937,0,0,1,2.543.781,2.7,2.7,0,0,1,.973,2.234v3.188a6.5,6.5,0,0,0,.113,1.25A6.694,6.694,0,0,0,57.48,0ZM53.012-1.719a1.609,1.609,0,0,0,.855-.227,1.3,1.3,0,0,0,.52-.539V-3.6H53.324a1.194,1.194,0,0,0-.914.3,1.1,1.1,0,0,0-.281.773.748.748,0,0,0,.246.582A.913.913,0,0,0,53.012-1.719Zm5.109-2.492A5.375,5.375,0,0,1,58.984-7.4a2.815,2.815,0,0,1,2.434-1.211,2.1,2.1,0,0,1,1.059.27,2.8,2.8,0,0,1,.848.77v-4.617h2.641V0H63.652l-.18-1.031a2.842,2.842,0,0,1-.895.887A2.232,2.232,0,0,1,61.4.164,2.842,2.842,0,0,1,58.98-.992a5,5,0,0,1-.859-3.055Zm2.641.164a3.51,3.51,0,0,0,.3,1.605,1.051,1.051,0,0,0,1.012.574,1.665,1.665,0,0,0,.73-.152,1.309,1.309,0,0,0,.52-.449V-5.883a1.438,1.438,0,0,0-.516-.516,1.416,1.416,0,0,0-.719-.18,1.054,1.054,0,0,0-1.016.648,3.992,3.992,0,0,0-.312,1.719ZM72.348-.008a3.189,3.189,0,0,1-.254-.6,4.612,4.612,0,0,1-.16-.7,3.23,3.23,0,0,1-.848,1.074,2.046,2.046,0,0,1-1.316.4A2.927,2.927,0,0,1,67.7-.52a2.415,2.415,0,0,1-.738-1.863,2.254,2.254,0,0,1,.945-1.941,4.9,4.9,0,0,1,2.867-.684h1.086v-.6a1.2,1.2,0,0,0-.258-.828,1,1,0,0,0-.789-.289.952.952,0,0,0-.684.215.891.891,0,0,0-.223.668l-2.562-.008L67.332-5.9A2.2,2.2,0,0,1,68.3-7.832a4.324,4.324,0,0,1,2.691-.777,3.937,3.937,0,0,1,2.543.781A2.7,2.7,0,0,1,74.5-5.594v3.188a6.5,6.5,0,0,0,.113,1.25A6.7,6.7,0,0,0,74.957,0ZM70.488-1.719a1.609,1.609,0,0,0,.855-.227,1.3,1.3,0,0,0,.52-.539V-3.6H70.8a1.194,1.194,0,0,0-.914.3,1.1,1.1,0,0,0-.281.773.748.748,0,0,0,.246.582A.913.913,0,0,0,70.488-1.719Z" transform="translate(-9955 -1563)" fill="#e53935"/>
    <path id="Trazado_259460" data-name="Trazado 259460" d="M157.912,0H0" transform="matrix(-0.809, 0.588, -0.588, -0.809, -9829, -1692.072)" fill="none" stroke="#5d5d5d" stroke-width="2"/>
    <path id="Trazado_259461" data-name="Trazado 259461" d="M7.606,9.411,3.9,4.823,0,0V18.821Z" transform="matrix(-0.755, 0.656, -0.656, -0.755, -9949.359, -1592.261)" fill="#5d5d5d"/>
    <g id="Trazado_262727" data-name="Trazado 262727" transform="translate(-10339 -1598)" fill="#fff">
      <path d="M 226.9512481689453 37.40219879150391 L 14.99999904632568 37.40219879150391 C 11.12690544128418 37.40219879150391 7.485624313354492 35.89394760131836 4.746936798095703 33.1552619934082 C 2.008249044418335 30.41657447814941 0.499999076128006 26.77529335021973 0.499999076128006 22.90219879150391 L 0.499999076128006 15.0000114440918 C 0.499999076128006 11.12691783905029 2.008249044418335 7.485636234283447 4.746936798095703 4.746948719024658 C 7.485624313354492 2.008261442184448 11.12690544128418 0.5000113844871521 14.99999904632568 0.5000113844871521 L 226.9512481689453 0.5000113844871521 C 230.8243408203125 0.5000113844871521 234.4656219482422 2.008261442184448 237.2043151855469 4.746948719024658 C 239.9429931640625 7.485636234283447 241.4512481689453 11.12691783905029 241.4512481689453 15.0000114440918 L 241.4512481689453 22.90219879150391 C 241.4512481689453 26.77529335021973 239.9429931640625 30.41657447814941 237.2043151855469 33.1552619934082 C 234.4656219482422 35.89394760131836 230.8243408203125 37.40219879150391 226.9512481689453 37.40219879150391 Z" stroke="none"/>
      <path d="M 15 1.000011444091797 C 11.26046752929688 1.000011444091797 7.7447509765625 2.456260681152344 5.100494384765625 5.100509643554688 C 2.456253051757812 7.744760513305664 1 11.2604808807373 1 15.0000114440918 L 1 22.90219879150391 C 1 26.64173126220703 2.456253051757812 30.15744781494141 5.100494384765625 32.80169677734375 C 7.7447509765625 35.44594955444336 11.26046752929688 36.90219879150391 15 36.90219879150391 L 226.9512481689453 36.90219879150391 C 230.6907806396484 36.90219879150391 234.2064971923828 35.44594955444336 236.8507537841797 32.80169677734375 C 239.4949951171875 30.15744781494141 240.9512481689453 26.64173126220703 240.9512481689453 22.90219879150391 L 240.9512481689453 15.0000114440918 C 240.9512481689453 11.2604808807373 239.4949951171875 7.744760513305664 236.8507537841797 5.100509643554688 C 234.2064971923828 2.456260681152344 230.6907806396484 1.000011444091797 226.9512481689453 1.000011444091797 L 15 1.000011444091797 M 15 1.1444091796875e-05 L 226.9512481689453 1.1444091796875e-05 C 235.2355346679688 1.1444091796875e-05 241.9512481689453 6.715730667114258 241.9512481689453 15.0000114440918 L 241.9512481689453 22.90219879150391 C 241.9512481689453 31.18647956848145 235.2355346679688 37.90219879150391 226.9512481689453 37.90219879150391 L 15 37.90219879150391 C 6.715713500976562 37.90219879150391 0 31.18647956848145 0 22.90219879150391 L 0 15.0000114440918 C 0 6.715730667114258 6.715713500976562 1.1444091796875e-05 15 1.1444091796875e-05 Z" stroke="none" fill="#81af1d"/>
    </g>
    <path id="Trazado_262728" data-name="Trazado 262728" d="M-30.879-9.344h-3.008V0h-2.641V-9.344H-39.48v-2.031h8.6ZM-25.8-6.2l-.859-.008a1.463,1.463,0,0,0-.742.168,1.036,1.036,0,0,0-.43.473V0h-2.641V-8.453h2.484l.094,1.242a2.549,2.549,0,0,1,.7-1.031,1.543,1.543,0,0,1,1.023-.367,1.963,1.963,0,0,1,.32.023,2.423,2.423,0,0,1,.3.07Zm5.852,6.2a3.189,3.189,0,0,1-.254-.6,4.612,4.612,0,0,1-.16-.7,3.23,3.23,0,0,1-.848,1.074,2.046,2.046,0,0,1-1.316.4A2.927,2.927,0,0,1-24.594-.52a2.415,2.415,0,0,1-.738-1.863,2.254,2.254,0,0,1,.945-1.941,4.9,4.9,0,0,1,2.867-.684h1.086v-.6a1.2,1.2,0,0,0-.258-.828,1,1,0,0,0-.789-.289.952.952,0,0,0-.684.215.891.891,0,0,0-.223.668l-2.562-.008-.016-.047A2.2,2.2,0,0,1-24-7.832a4.324,4.324,0,0,1,2.691-.777,3.937,3.937,0,0,1,2.543.781,2.7,2.7,0,0,1,.973,2.234v3.188a6.5,6.5,0,0,0,.113,1.25A6.694,6.694,0,0,0-17.34,0Zm-1.859-1.711a1.609,1.609,0,0,0,.855-.227,1.3,1.3,0,0,0,.52-.539V-3.6H-21.5a1.194,1.194,0,0,0-.914.3,1.1,1.1,0,0,0-.281.773.748.748,0,0,0,.246.582A.913.913,0,0,0-21.809-1.719ZM-16.7-4.211A5.375,5.375,0,0,1-15.836-7.4,2.815,2.815,0,0,1-13.4-8.609a2.1,2.1,0,0,1,1.059.27,2.8,2.8,0,0,1,.848.77v-4.617h2.641V0h-2.312l-.18-1.031a2.842,2.842,0,0,1-.895.887,2.232,2.232,0,0,1-1.176.309A2.842,2.842,0,0,1-15.84-.992,5,5,0,0,1-16.7-4.047Zm2.641.164a3.51,3.51,0,0,0,.3,1.605,1.051,1.051,0,0,0,1.012.574,1.665,1.665,0,0,0,.73-.152,1.309,1.309,0,0,0,.52-.449V-5.883a1.438,1.438,0,0,0-.516-.516,1.416,1.416,0,0,0-.719-.18,1.054,1.054,0,0,0-1.016.648,3.992,3.992,0,0,0-.312,1.719ZM-4.59,0H-7.238V-8.453H-4.59Zm0-10.414H-7.238v-1.773H-4.59ZM.645-1.867a1.033,1.033,0,0,0,.8-.293,1.221,1.221,0,0,0,.266-.848H4.121l.016.047A2.775,2.775,0,0,1,3.18-.707,3.693,3.693,0,0,1,.645.164,3.74,3.74,0,0,1-2.328-1.027,4.543,4.543,0,0,1-3.371-4.133v-.18a4.557,4.557,0,0,1,1.039-3.1,3.712,3.712,0,0,1,2.961-1.2A3.636,3.636,0,0,1,3.2-7.715a3.085,3.085,0,0,1,.934,2.449l-.016.047H1.715a1.636,1.636,0,0,0-.273-.98.937.937,0,0,0-.812-.379,1.085,1.085,0,0,0-1.066.613,3.792,3.792,0,0,0-.3,1.652v.18a3.778,3.778,0,0,0,.3,1.664A1.1,1.1,0,0,0,.645-1.867ZM7.98,0H5.332V-8.453H7.98Zm0-10.414H5.332v-1.773H7.98ZM9.246-4.3A4.468,4.468,0,0,1,10.324-7.41a3.837,3.837,0,0,1,3.008-1.2,3.847,3.847,0,0,1,3.016,1.2A4.468,4.468,0,0,1,17.426-4.3v.164a4.465,4.465,0,0,1-1.078,3.109,3.834,3.834,0,0,1-3,1.2,3.863,3.863,0,0,1-3.023-1.2A4.465,4.465,0,0,1,9.246-4.141Zm2.641.164a3.5,3.5,0,0,0,.332,1.668,1.181,1.181,0,0,0,1.129.605,1.168,1.168,0,0,0,1.109-.609,3.465,3.465,0,0,0,.336-1.664V-4.3a3.478,3.478,0,0,0-.336-1.652,1.177,1.177,0,0,0-1.125-.621,1.16,1.16,0,0,0-1.113.625A3.517,3.517,0,0,0,11.887-4.3ZM21.02-8.453l.1,1.188a3.06,3.06,0,0,1,1.023-.988A2.648,2.648,0,0,1,23.5-8.609a2.383,2.383,0,0,1,1.941.844,4.174,4.174,0,0,1,.7,2.68V0H23.5V-5.094a1.937,1.937,0,0,0-.258-1.145.884.884,0,0,0-.75-.34,1.856,1.856,0,0,0-.758.148,1.513,1.513,0,0,0-.562.422V0H18.543V-8.453ZM32.465-.008a3.189,3.189,0,0,1-.254-.6,4.612,4.612,0,0,1-.16-.7A3.23,3.23,0,0,1,31.2-.238a2.046,2.046,0,0,1-1.316.4A2.927,2.927,0,0,1,27.82-.52a2.415,2.415,0,0,1-.738-1.863,2.254,2.254,0,0,1,.945-1.941,4.9,4.9,0,0,1,2.867-.684H31.98v-.6a1.2,1.2,0,0,0-.258-.828,1,1,0,0,0-.789-.289.952.952,0,0,0-.684.215.891.891,0,0,0-.223.668l-2.562-.008L27.449-5.9a2.2,2.2,0,0,1,.965-1.934,4.324,4.324,0,0,1,2.691-.777,3.937,3.937,0,0,1,2.543.781,2.7,2.7,0,0,1,.973,2.234v3.188a6.5,6.5,0,0,0,.113,1.25A6.694,6.694,0,0,0,35.074,0ZM30.605-1.719a1.609,1.609,0,0,0,.855-.227,1.3,1.3,0,0,0,.52-.539V-3.6H30.918A1.194,1.194,0,0,0,30-3.3a1.1,1.1,0,0,0-.281.773.748.748,0,0,0,.246.582A.913.913,0,0,0,30.605-1.719ZM38.832,0H36.184V-12.187h2.648Z" transform="translate(-10218 -1574)" fill="#e53935"/>
    <path id="Trazado_259463" data-name="Trazado 259463" d="M7.606,9.411,3.9,4.823,0,0V18.821Z" transform="matrix(-0.956, 0.292, -0.292, -0.956, -10211.636, -1606.522)" fill="#5d5d5d"/>
    <g id="Trazado_262731" data-name="Trazado 262731" transform="translate(-9588 -1598)" fill="#fff">
      <path d="M 254.1707458496094 37.40220642089844 L 15.00000667572021 37.40220642089844 C 11.1269063949585 37.40220642089844 7.485639572143555 35.89393997192383 4.746973037719727 33.15523910522461 C 2.008272886276245 30.41657257080078 0.5000062584877014 26.77530479431152 0.5000062584877014 22.9022045135498 L 0.5000062584877014 15.00000476837158 C 0.5000062584877014 11.12690544128418 2.008272886276245 7.485638618469238 4.746973037719727 4.746971607208252 C 7.485639572143555 2.00827169418335 11.1269063949585 0.5000051259994507 15.00000667572021 0.5000051259994507 L 254.1707458496094 0.5000051259994507 C 258.0438537597656 0.5000051259994507 261.6851196289062 2.00827169418335 264.4237670898438 4.746971607208252 C 267.1624755859375 7.485638618469238 268.6707458496094 11.12690544128418 268.6707458496094 15.00000476837158 L 268.6707458496094 22.9022045135498 C 268.6707458496094 26.77530479431152 267.1624755859375 30.41657257080078 264.4237670898438 33.15523910522461 C 261.6851196289062 35.89393997192383 258.0438537597656 37.40220642089844 254.1707458496094 37.40220642089844 Z" stroke="none"/>
      <path d="M 14.99998474121094 0.9999961853027344 C 11.26043701171875 0.9999961853027344 7.744720458984375 2.456249237060547 5.100494384765625 5.100498199462891 C 2.45623779296875 7.744747161865234 0.999969482421875 11.26046180725098 0.999969482421875 14.99999809265137 L 0.999969482421875 22.90221214294434 C 0.999969482421875 26.64174842834473 2.45623779296875 30.15746307373047 5.100494384765625 32.80171203613281 C 7.744720458984375 35.44596099853516 11.26043701171875 36.90221405029297 14.99998474121094 36.90221405029297 L 254.1707305908203 36.90221405029297 C 257.9102783203125 36.90221405029297 261.4259948730469 35.44596099853516 264.0702209472656 32.80171203613281 C 266.7144775390625 30.15746307373047 268.1707153320312 26.64174842834473 268.1707153320312 22.90221214294434 L 268.1707153320312 14.99999809265137 C 268.1707153320312 11.26046180725098 266.7144775390625 7.744747161865234 264.0702209472656 5.100498199462891 C 261.4259948730469 2.456249237060547 257.9102783203125 0.9999961853027344 254.1707305908203 0.9999961853027344 L 14.99998474121094 0.9999961853027344 M 14.99998474121094 -3.814697265625e-06 L 254.1707305908203 -3.814697265625e-06 C 262.4550170898438 -3.814697265625e-06 269.1707153320312 6.71571159362793 269.1707153320312 14.99999809265137 L 269.1707153320312 22.90221214294434 C 269.1707153320312 31.18649864196777 262.4550170898438 37.90221405029297 254.1707305908203 37.90221405029297 L 14.99998474121094 37.90221405029297 C 6.715728759765625 37.90221405029297 -3.0517578125e-05 31.18649864196777 -3.0517578125e-05 22.90221214294434 L -3.0517578125e-05 14.99999809265137 C -3.0517578125e-05 6.71571159362793 6.715728759765625 -3.814697265625e-06 14.99998474121094 -3.814697265625e-06 Z" stroke="none" fill="#81af1d"/>
    </g>
    <path id="Trazado_262732" data-name="Trazado 262732" d="M-80.34-3.836l.016.047a3.656,3.656,0,0,1-1.1,2.949,4.656,4.656,0,0,1-3.2,1,4.555,4.555,0,0,1-3.387-1.289A4.587,4.587,0,0,1-89.285-4.5V-6.875a4.688,4.688,0,0,1,1.23-3.371A4.284,4.284,0,0,1-84.8-11.539a5.015,5.015,0,0,1,3.348,1.008A3.553,3.553,0,0,1-80.3-7.6l-.023.047h-2.57a2.091,2.091,0,0,0-.445-1.5A1.987,1.987,0,0,0-84.8-9.508a1.545,1.545,0,0,0-1.367.715,3.38,3.38,0,0,0-.477,1.9V-4.5a3.181,3.181,0,0,0,.523,1.914,1.743,1.743,0,0,0,1.5.719,1.67,1.67,0,0,0,1.309-.453,2.272,2.272,0,0,0,.4-1.516Zm6.2,3.828a3.189,3.189,0,0,1-.254-.6,4.612,4.612,0,0,1-.16-.7A3.23,3.23,0,0,1-75.4-.238a2.046,2.046,0,0,1-1.316.4A2.927,2.927,0,0,1-78.781-.52a2.415,2.415,0,0,1-.738-1.863,2.254,2.254,0,0,1,.945-1.941,4.9,4.9,0,0,1,2.867-.684h1.086v-.6a1.2,1.2,0,0,0-.258-.828,1,1,0,0,0-.789-.289.952.952,0,0,0-.684.215.891.891,0,0,0-.223.668l-2.562-.008-.016-.047a2.2,2.2,0,0,1,.965-1.934A4.324,4.324,0,0,1-75.5-8.609a3.937,3.937,0,0,1,2.543.781,2.7,2.7,0,0,1,.973,2.234v3.188a6.5,6.5,0,0,0,.113,1.25A6.7,6.7,0,0,0-71.527,0ZM-76-1.719a1.609,1.609,0,0,0,.855-.227,1.3,1.3,0,0,0,.52-.539V-3.6h-1.062a1.194,1.194,0,0,0-.914.3,1.1,1.1,0,0,0-.281.773.748.748,0,0,0,.246.582A.913.913,0,0,0-76-1.719Zm.766-10.352h2.9l.016.047-2.2,2.031H-76.84Zm7.18,3.617.094,1.117a2.8,2.8,0,0,1,1-.941,2.837,2.837,0,0,1,1.387-.332,2.584,2.584,0,0,1,1.359.344,2.112,2.112,0,0,1,.859,1.047,2.837,2.837,0,0,1,1-1.027,2.76,2.76,0,0,1,1.434-.363,2.348,2.348,0,0,1,1.941.887,4.347,4.347,0,0,1,.707,2.73V0H-60.91V-4.992a2.2,2.2,0,0,0-.254-1.246.89.89,0,0,0-.762-.34,1.582,1.582,0,0,0-.676.137,1.426,1.426,0,0,0-.5.379q0,.133.008.23t.008.191V0h-2.641V-4.992a2.221,2.221,0,0,0-.25-1.25.9.9,0,0,0-.773-.336,1.524,1.524,0,0,0-.652.137,1.426,1.426,0,0,0-.5.379V0h-2.641V-8.453Zm16.18,8.445a3.189,3.189,0,0,1-.254-.6,4.612,4.612,0,0,1-.16-.7,3.23,3.23,0,0,1-.848,1.074,2.046,2.046,0,0,1-1.316.4A2.927,2.927,0,0,1-56.516-.52a2.415,2.415,0,0,1-.738-1.863,2.254,2.254,0,0,1,.945-1.941,4.9,4.9,0,0,1,2.867-.684h1.086v-.6a1.2,1.2,0,0,0-.258-.828,1,1,0,0,0-.789-.289.952.952,0,0,0-.684.215.891.891,0,0,0-.223.668l-2.562-.008-.016-.047a2.2,2.2,0,0,1,.965-1.934,4.324,4.324,0,0,1,2.691-.777,3.937,3.937,0,0,1,2.543.781,2.7,2.7,0,0,1,.973,2.234v3.188a6.5,6.5,0,0,0,.113,1.25A6.694,6.694,0,0,0-49.262,0ZM-53.73-1.719a1.609,1.609,0,0,0,.855-.227,1.3,1.3,0,0,0,.52-.539V-3.6h-1.062a1.194,1.194,0,0,0-.914.3,1.1,1.1,0,0,0-.281.773.748.748,0,0,0,.246.582A.913.913,0,0,0-53.73-1.719ZM-43.6-6.2l-.859-.008a1.463,1.463,0,0,0-.742.168,1.036,1.036,0,0,0-.43.473V0H-48.27V-8.453h2.484l.094,1.242a2.549,2.549,0,0,1,.7-1.031,1.543,1.543,0,0,1,1.023-.367,1.963,1.963,0,0,1,.32.023,2.423,2.423,0,0,1,.3.07Zm5.852,6.2A3.189,3.189,0,0,1-38-.609a4.612,4.612,0,0,1-.16-.7,3.23,3.23,0,0,1-.848,1.074,2.046,2.046,0,0,1-1.316.4A2.927,2.927,0,0,1-42.391-.52a2.415,2.415,0,0,1-.738-1.863,2.254,2.254,0,0,1,.945-1.941,4.9,4.9,0,0,1,2.867-.684h1.086v-.6a1.2,1.2,0,0,0-.258-.828,1,1,0,0,0-.789-.289.952.952,0,0,0-.684.215.891.891,0,0,0-.223.668l-2.562-.008-.016-.047A2.2,2.2,0,0,1-41.8-7.832a4.324,4.324,0,0,1,2.691-.777,3.937,3.937,0,0,1,2.543.781,2.7,2.7,0,0,1,.973,2.234v3.188a6.5,6.5,0,0,0,.113,1.25A6.694,6.694,0,0,0-35.137,0Zm-1.859-1.711a1.609,1.609,0,0,0,.855-.227,1.3,1.3,0,0,0,.52-.539V-3.6h-1.062a1.194,1.194,0,0,0-.914.3,1.1,1.1,0,0,0-.281.773.748.748,0,0,0,.246.582A.913.913,0,0,0-39.605-1.719ZM-20.855-4h.047l1.375-7.375h2.672L-19.371,0h-2.484L-23.77-7.023h-.047L-25.715,0H-28.2l-2.617-11.375h2.68l1.375,7.383.047.008,1.93-7.391h1.992Zm9.578,3.992a3.189,3.189,0,0,1-.254-.6,4.612,4.612,0,0,1-.16-.7,3.23,3.23,0,0,1-.848,1.074,2.046,2.046,0,0,1-1.316.4A2.927,2.927,0,0,1-15.922-.52a2.415,2.415,0,0,1-.738-1.863,2.254,2.254,0,0,1,.945-1.941,4.9,4.9,0,0,1,2.867-.684h1.086v-.6a1.2,1.2,0,0,0-.258-.828,1,1,0,0,0-.789-.289.952.952,0,0,0-.684.215.891.891,0,0,0-.223.668l-2.562-.008-.016-.047a2.2,2.2,0,0,1,.965-1.934,4.324,4.324,0,0,1,2.691-.777,3.937,3.937,0,0,1,2.543.781,2.7,2.7,0,0,1,.973,2.234v3.188a6.5,6.5,0,0,0,.113,1.25A6.694,6.694,0,0,0-8.668,0Zm-1.859-1.711a1.609,1.609,0,0,0,.855-.227,1.3,1.3,0,0,0,.52-.539V-3.6h-1.062a1.194,1.194,0,0,0-.914.3,1.1,1.1,0,0,0-.281.773.748.748,0,0,0,.246.582A.913.913,0,0,0-13.137-1.719ZM-3-6.2l-.859-.008a1.463,1.463,0,0,0-.742.168,1.036,1.036,0,0,0-.43.473V0H-7.676V-8.453h2.484L-5.1-7.211a2.549,2.549,0,0,1,.7-1.031,1.543,1.543,0,0,1,1.023-.367,1.963,1.963,0,0,1,.32.023,2.423,2.423,0,0,1,.3.07Zm.469,1.992A5.375,5.375,0,0,1-1.672-7.4,2.815,2.815,0,0,1,.762-8.609a2.1,2.1,0,0,1,1.059.27,2.8,2.8,0,0,1,.848.77v-4.617H5.309V0H3l-.18-1.031a2.842,2.842,0,0,1-.895.887A2.232,2.232,0,0,1,.746.164,2.842,2.842,0,0,1-1.676-.992a5,5,0,0,1-.859-3.055Zm2.641.164a3.51,3.51,0,0,0,.3,1.605,1.051,1.051,0,0,0,1.012.574,1.665,1.665,0,0,0,.73-.152,1.309,1.309,0,0,0,.52-.449V-5.883A1.438,1.438,0,0,0,2.152-6.4a1.416,1.416,0,0,0-.719-.18A1.054,1.054,0,0,0,.418-5.93,3.992,3.992,0,0,0,.105-4.211Zm13.719-6.508v2.1H15.16v1.828H13.824V-2.75a.948.948,0,0,0,.184.652.642.642,0,0,0,.5.2,2.654,2.654,0,0,0,.324-.016,2.807,2.807,0,0,0,.309-.062l.18,1.953A6.374,6.374,0,0,1,14.6.121a5.789,5.789,0,0,1-.758.043,2.639,2.639,0,0,1-1.98-.7,3.069,3.069,0,0,1-.676-2.2V-6.625H10V-8.453h1.18v-2.1ZM19.207,0H16.559V-8.453h2.648Zm0-10.414H16.559v-1.773h2.648Zm9.445,6.367a5,5,0,0,1-.859,3.059A2.845,2.845,0,0,1,25.371.164,2.4,2.4,0,0,1,24.289-.07a2.409,2.409,0,0,1-.824-.68v4H20.824v-11.7h2.492l.078.922a2.569,2.569,0,0,1,.84-.8,2.205,2.205,0,0,1,1.121-.281A2.815,2.815,0,0,1,27.789-7.4a5.375,5.375,0,0,1,.863,3.188ZM26.02-4.211a3.992,3.992,0,0,0-.312-1.719,1.043,1.043,0,0,0-1-.648,1.589,1.589,0,0,0-.754.164,1.21,1.21,0,0,0-.488.477v3.531a1.131,1.131,0,0,0,.5.406,1.929,1.929,0,0,0,.762.133,1.038,1.038,0,0,0,1-.574,3.51,3.51,0,0,0,.3-1.605ZM29.465-4.3A4.468,4.468,0,0,1,30.543-7.41a3.837,3.837,0,0,1,3.008-1.2,3.847,3.847,0,0,1,3.016,1.2A4.468,4.468,0,0,1,37.645-4.3v.164a4.465,4.465,0,0,1-1.078,3.109,3.834,3.834,0,0,1-3,1.2,3.863,3.863,0,0,1-3.023-1.2,4.465,4.465,0,0,1-1.078-3.109Zm2.641.164a3.5,3.5,0,0,0,.332,1.668,1.181,1.181,0,0,0,1.129.605,1.168,1.168,0,0,0,1.109-.609,3.465,3.465,0,0,0,.336-1.664V-4.3a3.478,3.478,0,0,0-.336-1.652,1.177,1.177,0,0,0-1.125-.621,1.16,1.16,0,0,0-1.113.625A3.517,3.517,0,0,0,32.105-4.3Zm19.578.3.016.047A3.656,3.656,0,0,1,50.6-.84a4.656,4.656,0,0,1-3.2,1,4.555,4.555,0,0,1-3.387-1.289A4.587,4.587,0,0,1,42.738-4.5V-6.875a4.688,4.688,0,0,1,1.23-3.371,4.284,4.284,0,0,1,3.254-1.293,5.015,5.015,0,0,1,3.348,1.008A3.553,3.553,0,0,1,51.723-7.6l-.023.047h-2.57a2.091,2.091,0,0,0-.445-1.5,1.987,1.987,0,0,0-1.461-.453,1.545,1.545,0,0,0-1.367.715,3.38,3.38,0,0,0-.477,1.9V-4.5A3.181,3.181,0,0,0,45.9-2.586a1.743,1.743,0,0,0,1.5.719,1.67,1.67,0,0,0,1.309-.453,2.272,2.272,0,0,0,.4-1.516ZM55.957,0H53.324V-11.375h2.633Zm7.984-3.414h.047l2.57-7.961h3.492V0H67.41V-7.328l-.047-.008L64.855,0H63.082L60.621-7.227l-.047.008V0H57.934V-11.375h3.461ZM74.5-3.9V0H71.863V-11.375h4.344a4.728,4.728,0,0,1,3.211,1.031,3.417,3.417,0,0,1,1.188,2.711,3.4,3.4,0,0,1-1.187,2.707A4.74,4.74,0,0,1,76.207-3.9Zm0-2.031h1.7A1.734,1.734,0,0,0,77.52-6.4a1.683,1.683,0,0,0,.453-1.215,1.755,1.755,0,0,0-.449-1.242,1.708,1.708,0,0,0-1.316-.484H74.5ZM86.629-2.211H83.246L82.59,0H79.809L83.52-11.375h1.414v.008l.008-.008h1.414L90.074,0H87.293ZM83.855-4.242H86.02L84.957-7.773H84.91Z" transform="translate(-9454 -1574)" fill="#e53935"/>
    <g id="Trazado_262729" data-name="Trazado 262729" transform="translate(-9823 -1587)" fill="#fff">
      <path d="M 205.7805023193359 37.40221786499023 L 15.00000095367432 37.40221786499023 C 11.12691783905029 37.40221786499023 7.485640048980713 35.89396667480469 4.746945381164551 33.1552734375 C 2.008251190185547 30.41657829284668 0.5000011324882507 26.77529907226562 0.5000011324882507 22.9022159576416 L 0.5000011324882507 14.9999942779541 C 0.5000011324882507 11.12691020965576 2.008251190185547 7.48563289642334 4.746945381164551 4.746938228607178 C 7.485640048980713 2.008244037628174 11.12691783905029 0.4999940097332001 15.00000095367432 0.4999940097332001 L 205.7805023193359 0.4999940097332001 C 209.6535797119141 0.4999940097332001 213.2948608398438 2.008244037628174 216.0335540771484 4.746938228607178 C 218.7722473144531 7.48563289642334 220.2805023193359 11.12691020965576 220.2805023193359 14.9999942779541 L 220.2805023193359 22.9022159576416 C 220.2805023193359 26.77529907226562 218.7722473144531 30.41657829284668 216.0335540771484 33.1552734375 C 213.2948608398438 35.89396667480469 209.6535797119141 37.40221786499023 205.7805023193359 37.40221786499023 Z" stroke="none"/>
      <path d="M 15 0.9999923706054688 C 11.26046752929688 0.9999923706054688 7.7447509765625 2.456245422363281 5.100494384765625 5.100494384765625 C 2.456253051757812 7.744743347167969 1 11.26046562194824 1 14.9999942779541 L 1 22.9022159576416 C 1 26.64174270629883 2.456253051757812 30.15746688842773 5.100494384765625 32.80171585083008 C 7.7447509765625 35.44596481323242 11.26046752929688 36.90221786499023 15 36.90221786499023 L 205.7805023193359 36.90221786499023 C 209.5200347900391 36.90221786499023 213.0357513427734 35.44596481323242 215.6800079345703 32.80171585083008 C 218.3242492675781 30.15746688842773 219.7805023193359 26.64174270629883 219.7805023193359 22.9022159576416 L 219.7805023193359 14.9999942779541 C 219.7805023193359 11.26046562194824 218.3242492675781 7.744743347167969 215.6800079345703 5.100494384765625 C 213.0357513427734 2.456245422363281 209.5200347900391 0.9999923706054688 205.7805023193359 0.9999923706054688 L 15 0.9999923706054688 M 15 -7.62939453125e-06 L 205.7805023193359 -7.62939453125e-06 C 214.0647735595703 -7.62939453125e-06 220.7805023193359 6.715715408325195 220.7805023193359 14.9999942779541 L 220.7805023193359 22.9022159576416 C 220.7805023193359 31.18649291992188 214.0647735595703 37.90221786499023 205.7805023193359 37.90221786499023 L 15 37.90221786499023 C 6.715728759765625 37.90221786499023 0 31.18649291992188 0 22.9022159576416 L 0 14.9999942779541 C 0 6.715715408325195 6.715728759765625 -7.62939453125e-06 15 -7.62939453125e-06 Z" stroke="none" fill="#81af1d"/>
    </g>
    <path id="Trazado_262730" data-name="Trazado 262730" d="M-54.379-3.836l.016.047a3.656,3.656,0,0,1-1.1,2.949,4.656,4.656,0,0,1-3.2,1,4.555,4.555,0,0,1-3.387-1.289A4.587,4.587,0,0,1-63.324-4.5V-6.875a4.688,4.688,0,0,1,1.23-3.371,4.284,4.284,0,0,1,3.254-1.293,5.015,5.015,0,0,1,3.348,1.008A3.553,3.553,0,0,1-54.34-7.6l-.023.047h-2.57a2.091,2.091,0,0,0-.445-1.5,1.987,1.987,0,0,0-1.461-.453,1.545,1.545,0,0,0-1.367.715,3.38,3.38,0,0,0-.477,1.9V-4.5a3.181,3.181,0,0,0,.523,1.914,1.743,1.743,0,0,0,1.5.719,1.67,1.67,0,0,0,1.309-.453,2.272,2.272,0,0,0,.4-1.516Zm6.2,3.828a3.189,3.189,0,0,1-.254-.6,4.612,4.612,0,0,1-.16-.7,3.23,3.23,0,0,1-.848,1.074,2.046,2.046,0,0,1-1.316.4A2.927,2.927,0,0,1-52.82-.52a2.415,2.415,0,0,1-.738-1.863,2.254,2.254,0,0,1,.945-1.941,4.9,4.9,0,0,1,2.867-.684h1.086v-.6a1.2,1.2,0,0,0-.258-.828,1,1,0,0,0-.789-.289.952.952,0,0,0-.684.215.891.891,0,0,0-.223.668l-2.562-.008-.016-.047a2.2,2.2,0,0,1,.965-1.934,4.324,4.324,0,0,1,2.691-.777,3.937,3.937,0,0,1,2.543.781,2.7,2.7,0,0,1,.973,2.234v3.188a6.5,6.5,0,0,0,.113,1.25A6.694,6.694,0,0,0-45.566,0Zm-1.859-1.711a1.609,1.609,0,0,0,.855-.227,1.3,1.3,0,0,0,.52-.539V-3.6h-1.062a1.194,1.194,0,0,0-.914.3,1.1,1.1,0,0,0-.281.773.748.748,0,0,0,.246.582A.913.913,0,0,0-50.035-1.719Zm.766-10.352h2.9l.016.047-2.2,2.031h-2.328Zm7.18,3.617L-42-7.336a2.8,2.8,0,0,1,1-.941,2.837,2.837,0,0,1,1.387-.332,2.584,2.584,0,0,1,1.359.344,2.112,2.112,0,0,1,.859,1.047,2.837,2.837,0,0,1,1-1.027,2.76,2.76,0,0,1,1.434-.363,2.348,2.348,0,0,1,1.941.887,4.347,4.347,0,0,1,.707,2.73V0h-2.648V-4.992A2.2,2.2,0,0,0-35.2-6.238a.89.89,0,0,0-.762-.34,1.582,1.582,0,0,0-.676.137,1.426,1.426,0,0,0-.5.379q0,.133.008.23t.008.191V0h-2.641V-4.992a2.221,2.221,0,0,0-.25-1.25.9.9,0,0,0-.773-.336,1.524,1.524,0,0,0-.652.137,1.426,1.426,0,0,0-.5.379V0h-2.641V-8.453ZM-25.91-.008a3.189,3.189,0,0,1-.254-.6,4.612,4.612,0,0,1-.16-.7,3.23,3.23,0,0,1-.848,1.074,2.046,2.046,0,0,1-1.316.4A2.927,2.927,0,0,1-30.555-.52a2.415,2.415,0,0,1-.738-1.863,2.254,2.254,0,0,1,.945-1.941,4.9,4.9,0,0,1,2.867-.684h1.086v-.6a1.2,1.2,0,0,0-.258-.828,1,1,0,0,0-.789-.289.952.952,0,0,0-.684.215.891.891,0,0,0-.223.668l-2.562-.008-.016-.047a2.2,2.2,0,0,1,.965-1.934,4.324,4.324,0,0,1,2.691-.777,3.937,3.937,0,0,1,2.543.781,2.7,2.7,0,0,1,.973,2.234v3.188a6.5,6.5,0,0,0,.113,1.25A6.694,6.694,0,0,0-23.3,0ZM-27.77-1.719a1.609,1.609,0,0,0,.855-.227,1.3,1.3,0,0,0,.52-.539V-3.6h-1.062a1.194,1.194,0,0,0-.914.3,1.1,1.1,0,0,0-.281.773.748.748,0,0,0,.246.582A.913.913,0,0,0-27.77-1.719ZM-17.637-6.2l-.859-.008a1.463,1.463,0,0,0-.742.168,1.036,1.036,0,0,0-.43.473V0h-2.641V-8.453h2.484l.094,1.242a2.549,2.549,0,0,1,.7-1.031A1.543,1.543,0,0,1-18-8.609a1.963,1.963,0,0,1,.32.023,2.423,2.423,0,0,1,.3.07Zm5.852,6.2a3.189,3.189,0,0,1-.254-.6,4.612,4.612,0,0,1-.16-.7,3.23,3.23,0,0,1-.848,1.074,2.046,2.046,0,0,1-1.316.4A2.927,2.927,0,0,1-16.43-.52a2.415,2.415,0,0,1-.738-1.863,2.254,2.254,0,0,1,.945-1.941,4.9,4.9,0,0,1,2.867-.684h1.086v-.6a1.2,1.2,0,0,0-.258-.828,1,1,0,0,0-.789-.289A.952.952,0,0,0-14-6.512a.891.891,0,0,0-.223.668l-2.562-.008L-16.8-5.9a2.2,2.2,0,0,1,.965-1.934,4.324,4.324,0,0,1,2.691-.777,3.937,3.937,0,0,1,2.543.781,2.7,2.7,0,0,1,.973,2.234v3.188a6.5,6.5,0,0,0,.113,1.25A6.694,6.694,0,0,0-9.176,0Zm-1.859-1.711a1.609,1.609,0,0,0,.855-.227,1.3,1.3,0,0,0,.52-.539V-3.6h-1.062a1.194,1.194,0,0,0-.914.3,1.1,1.1,0,0,0-.281.773.748.748,0,0,0,.246.582A.913.913,0,0,0-13.645-1.719Zm12.477-8.836v2.1H.168v1.828H-1.168V-2.75A.948.948,0,0,0-.984-2.1a.642.642,0,0,0,.5.2,2.654,2.654,0,0,0,.324-.016,2.807,2.807,0,0,0,.309-.062L.324-.023A6.374,6.374,0,0,1-.395.121a5.789,5.789,0,0,1-.758.043,2.639,2.639,0,0,1-1.98-.7,3.069,3.069,0,0,1-.676-2.2V-6.625h-1.18V-8.453h1.18v-2.1ZM4.215,0H1.566V-8.453H4.215Zm0-10.414H1.566v-1.773H4.215ZM13.66-4.047A5,5,0,0,1,12.8-.988,2.845,2.845,0,0,1,10.379.164,2.4,2.4,0,0,1,9.3-.07a2.409,2.409,0,0,1-.824-.68v4H5.832v-11.7H8.324l.078.922a2.569,2.569,0,0,1,.84-.8,2.205,2.205,0,0,1,1.121-.281A2.815,2.815,0,0,1,12.8-7.4a5.375,5.375,0,0,1,.863,3.188Zm-2.633-.164a3.992,3.992,0,0,0-.312-1.719,1.043,1.043,0,0,0-1-.648,1.589,1.589,0,0,0-.754.164,1.21,1.21,0,0,0-.488.477v3.531a1.131,1.131,0,0,0,.5.406,1.929,1.929,0,0,0,.762.133,1.038,1.038,0,0,0,1-.574,3.51,3.51,0,0,0,.3-1.605ZM14.473-4.3A4.468,4.468,0,0,1,15.551-7.41a3.837,3.837,0,0,1,3.008-1.2,3.847,3.847,0,0,1,3.016,1.2A4.468,4.468,0,0,1,22.652-4.3v.164a4.465,4.465,0,0,1-1.078,3.109,3.834,3.834,0,0,1-3,1.2,3.863,3.863,0,0,1-3.023-1.2,4.465,4.465,0,0,1-1.078-3.109Zm2.641.164a3.5,3.5,0,0,0,.332,1.668,1.181,1.181,0,0,0,1.129.605,1.168,1.168,0,0,0,1.109-.609,3.465,3.465,0,0,0,.336-1.664V-4.3a3.478,3.478,0,0,0-.336-1.652,1.177,1.177,0,0,0-1.125-.621,1.16,1.16,0,0,0-1.113.625A3.517,3.517,0,0,0,17.113-4.3ZM37.105-4h.047l1.375-7.375H41.2L38.59,0H36.105L34.191-7.023h-.047L32.246,0H29.762L27.145-11.375h2.68L31.2-3.992l.047.008,1.93-7.391h1.992ZM46.684-.008a3.189,3.189,0,0,1-.254-.6,4.612,4.612,0,0,1-.16-.7,3.23,3.23,0,0,1-.848,1.074,2.046,2.046,0,0,1-1.316.4A2.927,2.927,0,0,1,42.039-.52,2.415,2.415,0,0,1,41.3-2.383a2.254,2.254,0,0,1,.945-1.941,4.9,4.9,0,0,1,2.867-.684H46.2v-.6a1.2,1.2,0,0,0-.258-.828,1,1,0,0,0-.789-.289.952.952,0,0,0-.684.215.891.891,0,0,0-.223.668l-2.562-.008L41.668-5.9a2.2,2.2,0,0,1,.965-1.934,4.324,4.324,0,0,1,2.691-.777,3.937,3.937,0,0,1,2.543.781,2.7,2.7,0,0,1,.973,2.234v3.188a6.5,6.5,0,0,0,.113,1.25A6.694,6.694,0,0,0,49.293,0ZM44.824-1.719a1.609,1.609,0,0,0,.855-.227,1.3,1.3,0,0,0,.52-.539V-3.6H45.137a1.194,1.194,0,0,0-.914.3,1.1,1.1,0,0,0-.281.773.748.748,0,0,0,.246.582A.913.913,0,0,0,44.824-1.719ZM54.957-6.2,54.1-6.211a1.463,1.463,0,0,0-.742.168,1.036,1.036,0,0,0-.43.473V0H50.285V-8.453H52.77l.094,1.242a2.549,2.549,0,0,1,.7-1.031,1.543,1.543,0,0,1,1.023-.367,1.963,1.963,0,0,1,.32.023,2.423,2.423,0,0,1,.3.07Zm.469,1.992A5.375,5.375,0,0,1,56.289-7.4a2.815,2.815,0,0,1,2.434-1.211,2.1,2.1,0,0,1,1.059.27,2.8,2.8,0,0,1,.848.77v-4.617H63.27V0H60.957l-.18-1.031a2.842,2.842,0,0,1-.895.887,2.232,2.232,0,0,1-1.176.309A2.842,2.842,0,0,1,56.285-.992a5,5,0,0,1-.859-3.055Zm2.641.164a3.51,3.51,0,0,0,.3,1.605,1.051,1.051,0,0,0,1.012.574,1.665,1.665,0,0,0,.73-.152,1.309,1.309,0,0,0,.52-.449V-5.883a1.438,1.438,0,0,0-.516-.516,1.416,1.416,0,0,0-.719-.18,1.054,1.054,0,0,0-1.016.648,3.992,3.992,0,0,0-.312,1.719Z" transform="translate(-9713 -1563)" fill="#e53935"/>
    <path id="Trazado_259468" data-name="Trazado 259468" d="M157.912,0H0" transform="matrix(0.809, 0.588, -0.588, 0.809, -9829, -1692.074)" fill="none" stroke="#5d5d5d" stroke-width="2"/>
    <path id="Trazado_259469" data-name="Trazado 259469" d="M7.606,9.41,3.9,14,0,18.821V0Z" transform="translate(-9696.293 -1606.467) rotate(41)" fill="#5d5d5d"/>
    <path id="Trazado_259470" data-name="Trazado 259470" d="M-7901-1841.589l390.291-76.916" transform="translate(-2317 227.18)" fill="none" stroke="#5d5d5d" stroke-width="2"/>
    <path id="Trazado_259471" data-name="Trazado 259471" d="M7.606,9.41,3.9,14,0,18.821V0Z" transform="translate(-9454.3 -1624.521) rotate(17)" fill="#5d5d5d"/>
    <path id="Trazado_259472" data-name="Trazado 259472" d="M-7525.414-1841.589-7901-1918.505" transform="translate(-1928.001 227.18)" fill="none" stroke="#5d5d5d" stroke-width="2"/>
  </g>
</svg>
