<svg xmlns="http://www.w3.org/2000/svg" width="64.11" height="84.797" viewBox="0 0 64.11 84.797">
  <g id="Grupo_144182" data-name="Grupo 144182" transform="translate(-9.564)">
    <g id="Grupo_144183" data-name="Grupo 144183" transform="translate(9.564)">
      <path id="Trazado_204297" data-name="Trazado 204297" d="M90.587,177.769a16.136,16.136,0,1,1-16.136,16.136,16.136,16.136,0,0,1,16.136-16.136" transform="translate(-60.769 -125.244)" fill="#f6bab8"/>
      <path id="Trazado_204298" data-name="Trazado 204298" d="M104.56,178.386a16.136,16.136,0,0,1-11.3,27.658,16.263,16.263,0,0,1-2.433-.182,16.137,16.137,0,1,0,13.73-27.476" transform="translate(-72.308 -125.679)" fill="#e53935"/>
      <path id="Trazado_204299" data-name="Trazado 204299" d="M74.7,52.525A16.067,16.067,0,0,1,84.44,55.8L97.49.38a.309.309,0,0,0-.3-.38H52.209a.309.309,0,0,0-.3.38L64.958,55.8A16.065,16.065,0,0,1,74.7,52.525Z" transform="translate(-44.881)" fill="#d3e3b0"/>
      <path id="Trazado_204300" data-name="Trazado 204300" d="M123.172,0h-12.82l-9.434,40.059a8.878,8.878,0,0,1-9.9,6.7,16.307,16.307,0,0,0-2.158-.143h-.084l2.162,9.18a16.141,16.141,0,0,1,19.482,0L123.473.38A.309.309,0,0,0,123.172,0Z" transform="translate(-70.863)" fill="#81af1d"/>
      <path id="Trazado_204301" data-name="Trazado 204301" d="M61.371,258.313h-4.1a3.144,3.144,0,0,0-3.1,2.6l-1.029,5.873H75.576A16.132,16.132,0,0,1,61.371,258.313Z" transform="translate(-45.757 -181.99)" fill="#678c18"/>
      <path id="Trazado_204302" data-name="Trazado 204302" d="M150.467,260.914a3.144,3.144,0,0,0-3.1-2.6h-4.1a16.134,16.134,0,0,1-14.2,8.475H151.5Z" transform="translate(-99.246 -181.99)" fill="#678c18"/>
      <path id="Trazado_204303" data-name="Trazado 204303" d="M202.345,177.049l4.44-4.44a.642.642,0,0,0,0-.909l-10.274-10.274a.643.643,0,0,0-.909,0l-4.44,4.44a.643.643,0,0,0,0,.909l10.274,10.274a.643.643,0,0,0,.909,0" transform="translate(-142.864 -113.598)" fill="#d3e3b0"/>
      <path id="Trazado_204304" data-name="Trazado 204304" d="M180.59,182.818l-5.813,5.813a16.154,16.154,0,0,1,.7,16.494l13.71-13.71Z" transform="translate(-131.452 -128.802)" fill="#81af1d"/>
      <path id="Trazado_204308" data-name="Trazado 204308" d="M39.657,209.367h4.1a16.146,16.146,0,0,1,4.463-20.528H41.678a13.534,13.534,0,0,0-13.534,13.534v15.467h7.387l1.029-5.873A3.144,3.144,0,0,1,39.657,209.367Z" transform="translate(-28.144 -133.044)" fill="#d3e3b0"/>
      <path id="Trazado_204309" data-name="Trazado 204309" d="M109.491,203.383h8.444a2.216,2.216,0,0,0,0-4.432h-8.444a2.216,2.216,0,1,0,0,4.432Z" transform="translate(-83.895 -140.168)"/>
      <path id="Trazado_204310" data-name="Trazado 204310" d="M91.952,227.1a2.216,2.216,0,0,0,2.216,2.216h17.5a2.216,2.216,0,0,0,0-4.432h-17.5A2.216,2.216,0,0,0,91.952,227.1Z" transform="translate(-73.099 -158.437)"/>
      <path id="Trazado_204311" data-name="Trazado 204311" d="M117.935,250.813H109.49a2.216,2.216,0,0,0,0,4.432h8.445a2.216,2.216,0,1,0,0-4.432" transform="translate(-83.894 -176.706)"/>
    </g>
  </g>
</svg>
