<svg xmlns="http://www.w3.org/2000/svg" width="300" height="60" viewBox="0 0 300 60">
  <g id="Grupo_223752" data-name="Grupo 223752" transform="translate(352 7907)">
    <path id="Trazado_262821" data-name="Trazado 262821" d="M0,0H300V60H0Z" transform="translate(-352 -7907)" fill="#ecf3dd"/>
    <path id="Trazado_262822" data-name="Trazado 262822" d="M0,0H60V8H0Z" transform="translate(-344 -7907) rotate(90)" fill="#81af1d"/>
    <path id="Trazado_262823" data-name="Trazado 262823" d="M-43.4-4.664a6.63,6.63,0,0,1-.469,1.605,5.509,5.509,0,0,1-.828,1.34l1.422,1.7-1.891,1.3L-46.539-.328a5.666,5.666,0,0,1-1.152.367,6.147,6.147,0,0,1-1.246.125A4.071,4.071,0,0,1-52.2-1.215a4.083,4.083,0,0,1-.863-3.449l.3-2.047a5.539,5.539,0,0,1,1.848-3.5A5.465,5.465,0,0,1-47.2-11.539a4.018,4.018,0,0,1,3.234,1.379,4.145,4.145,0,0,1,.867,3.449Zm-2.328-2.062a3.028,3.028,0,0,0-.266-2.023A1.617,1.617,0,0,0-47.5-9.508a2.249,2.249,0,0,0-1.738.785,3.719,3.719,0,0,0-.887,2l-.3,2.063a3.019,3.019,0,0,0,.262,2.039,1.649,1.649,0,0,0,1.535.758,2.212,2.212,0,0,0,1.707-.789,3.8,3.8,0,0,0,.895-2.008Zm15.648,1.008h-7.234l.3-2.031h7.234Zm-.516,3.43h-7.234l.3-2.031h7.234Zm9.172-5.086a3.381,3.381,0,0,1,1.137-.914,3.226,3.226,0,0,1,1.441-.32,2.289,2.289,0,0,1,1.273.34,1.738,1.738,0,0,1,.719,1.035A3.386,3.386,0,0,1-15.7-8.254a3.174,3.174,0,0,1,1.508-.355,2,2,0,0,1,1.785.895,3.894,3.894,0,0,1,.324,2.723L-12.828,0h-2.648l.75-4.992a2.1,2.1,0,0,0-.059-1.266.782.782,0,0,0-.723-.32,1.644,1.644,0,0,0-.691.145,1.829,1.829,0,0,0-.559.395l-.047.4L-17.648,0h-2.641l.75-4.992A2.1,2.1,0,0,0-19.6-6.258a.791.791,0,0,0-.73-.32,1.581,1.581,0,0,0-.656.141,1.987,1.987,0,0,0-.57.391L-22.461,0H-25.1l1.266-8.453h2.484Zm52.68,2.711a5.61,5.61,0,0,1-1.852,3.508A5.419,5.419,0,0,1,25.719.164a4.071,4.071,0,0,1-3.262-1.379,4.083,4.083,0,0,1-.863-3.449l.3-2.047a5.539,5.539,0,0,1,1.848-3.5,5.465,5.465,0,0,1,3.715-1.328A4.018,4.018,0,0,1,30.7-10.16a4.145,4.145,0,0,1,.867,3.449ZM28.93-6.727a3.028,3.028,0,0,0-.266-2.023,1.617,1.617,0,0,0-1.508-.758,2.249,2.249,0,0,0-1.738.785,3.719,3.719,0,0,0-.887,2l-.3,2.063a3.019,3.019,0,0,0,.262,2.039,1.649,1.649,0,0,0,1.535.758,2.212,2.212,0,0,0,1.707-.789,3.8,3.8,0,0,0,.895-2.008ZM39.328,0H36.7l.336-2.219h2.633Zm8.258,0H44.773l4.117-8.375-.3-.742a.97.97,0,0,0-.371-.512,1.111,1.111,0,0,0-.66-.191q-.109,0-.273.016t-.242.031l.211-1.883q.422-.109.684-.156a3.467,3.467,0,0,1,.605-.047,2.4,2.4,0,0,1,1.855.633,3.383,3.383,0,0,1,.785,1.516l1.828,6.836a1.508,1.508,0,0,0,.254.578.878.878,0,0,0,.473.32.675.675,0,0,0,.184.031q.121.008.238.008L53.648.031a6.466,6.466,0,0,1-.66.059,4.977,4.977,0,0,1-.652-.02,1.8,1.8,0,0,1-1.492-.926,5.544,5.544,0,0,1-.625-1.824l-.492-2.453-.047-.008-.133.422Z" transform="translate(-202 -7871)" fill="#12263f"/>
    <path id="Trazado_262824" data-name="Trazado 262824" d="M9.766,15H7.133l.68-4.578H3.6L2.922,15H.281l1.7-11.375H4.625L3.906,8.391H8.117l.719-4.766h2.633Zm6.261,5H11.415l.141-1,2.356-2.242a5.455,5.455,0,0,0,.715-.827,1.641,1.641,0,0,0,.283-.636.923.923,0,0,0-.091-.62.577.577,0,0,0-.524-.219.748.748,0,0,0-.59.3,1.452,1.452,0,0,0-.312.747h-1.5l-.009-.027a2.409,2.409,0,0,1,.823-1.579,2.574,2.574,0,0,1,1.761-.622,2.131,2.131,0,0,1,1.584.542,1.652,1.652,0,0,1,.408,1.467,2.206,2.206,0,0,1-.469,1.11,18.676,18.676,0,0,1-1.417,1.438l-.948.962.014.027h2.556Z" transform="translate(-205.5 -7886)" fill="#12263f"/>
  </g>
</svg>
