<svg xmlns="http://www.w3.org/2000/svg" xmlns:xlink="http://www.w3.org/1999/xlink" width="157" height="157" viewBox="0 0 157 157">
  <defs>
    <clipPath id="clip-path">
      <rect id="Rectángulo_44485" data-name="Rectángulo 44485" width="80" height="80" fill="none"/>
    </clipPath>
  </defs>
  <g id="Grupo_175358" data-name="Grupo 175358" transform="translate(-1077 -5945)">
    <circle id="Elipse_5047" data-name="Elipse 5047" cx="78.5" cy="78.5" r="78.5" transform="translate(1077 5945)" fill="#fff"/>
    <g id="Grupo_175288" data-name="Grupo 175288" transform="translate(1115 5984)">
      <g id="Grupo_171753" data-name="Grupo 171753" clip-path="url(#clip-path)">
        <path id="Trazado_259264" data-name="Trazado 259264" d="M35.833,47.834A90.571,90.571,0,0,1,25.767,63.881c-.566.695-1.147,1.375-1.742,2.032-.679.747-1.375,1.466-2.087,2.139-.662.625-1.337,1.214-2.022,1.752-2.6,2.04-5.342,3.363-8.083,3.363-6.666,0-10.666-4-10.666-10.667,0-2.742,1.323-5.485,3.363-8.083.538-.685,1.126-1.36,1.751-2.022.673-.711,1.392-1.408,2.141-2.086.656-.6,1.336-1.177,2.032-1.742A90.549,90.549,0,0,1,26.5,38.5Z" transform="translate(0.167 5.5)" fill="#ffd33a"/>
        <rect id="Rectángulo_44482" data-name="Rectángulo 44482" width="5.656" height="22.624" transform="translate(5.326 58.662) rotate(-45)" fill="#ffb632"/>
        <path id="Trazado_259265" data-name="Trazado 259265" d="M33.833,72.5H44.5V66.658a27.856,27.856,0,0,0,10.851-4.64l3.816,3.816,6.666-6.667-3.816-3.815A27.856,27.856,0,0,0,66.657,44.5H72.5V33.834H66.657a27.856,27.856,0,0,0-4.64-10.851l3.816-3.816L59.167,12.5l-3.816,3.816A27.856,27.856,0,0,0,44.5,11.676V5.834H33.833v5.842a27.856,27.856,0,0,0-10.851,4.64L19.167,12.5,12.5,19.167l3.816,3.816a27.854,27.854,0,0,0-4.639,10.851H5.833V44.5h5.843a27.854,27.854,0,0,0,4.639,10.851L12.5,59.167l6.667,6.667,3.815-3.816a27.837,27.837,0,0,0,10.851,4.639Z" transform="translate(0.833 0.833)" fill="#81af1d"/>
        <path id="Trazado_259266" data-name="Trazado 259266" d="M37.833,15.167A22.667,22.667,0,1,1,15.167,37.833,22.666,22.666,0,0,1,37.833,15.167" transform="translate(2.167 2.167)" fill="#d3e3b0"/>
        <path id="Trazado_259267" data-name="Trazado 259267" d="M37.167,54.5a17.317,17.317,0,1,1,2.488-.178,17.314,17.314,0,0,1-2.488.178" transform="translate(2.833 2.833)" fill="#e9eef2"/>
        <path id="Trazado_259268" data-name="Trazado 259268" d="M64.333,14.5H67l6.667-9.334-4-4L60.333,7.834V10.5L35,35.834l4,4Z" transform="translate(5 0.167)" fill="#dadcde"/>
        <rect id="Rectángulo_44483" data-name="Rectángulo 44483" width="5.656" height="16.968" transform="translate(31.992 36.001) rotate(-45)" fill="#ffd33a"/>
        <rect id="Rectángulo_44484" data-name="Rectángulo 44484" width="9.426" height="13.197" transform="translate(26.659 43.999) rotate(-45)" fill="#ffb632"/>
        <path id="Trazado_259269" data-name="Trazado 259269" d="M31.469,50.915A17.383,17.383,0,0,1,20.636,40.083c1.88-1.015,3.082-1.583,3.082-1.583l9.333,9.334S32.483,49.035,31.469,50.915Z" transform="translate(2.948 5.5)" fill="#ffd33a"/>
        <path id="Trazado_259270" data-name="Trazado 259270" d="M72,16a1.334,1.334,0,0,0,1.086-.559l6.666-9.334A1.334,1.334,0,0,0,79.61,4.39l-4-4A1.333,1.333,0,0,0,73.893.248L64.559,6.914A1.334,1.334,0,0,0,64,8v2.114l-2.666,2.666-.391-.391a1.335,1.335,0,0,0-1.886,0l-3.034,3.034a28.917,28.917,0,0,0-9.355-3.994V6.666a1.334,1.334,0,0,0-1.334-1.334H34.667a1.334,1.334,0,0,0-1.334,1.334V11.43a28.934,28.934,0,0,0-9.357,3.994L20.943,12.39a1.335,1.335,0,0,0-1.886,0l-6.666,6.667a1.331,1.331,0,0,0,0,1.885l3.034,3.034a28.961,28.961,0,0,0-4,9.357H6.667a1.334,1.334,0,0,0-1.334,1.334V45.333a1.333,1.333,0,0,0,1.334,1.334H11.43a29.034,29.034,0,0,0,1.282,4.117C4.277,56.882,0,62.672,0,68c0,7.4,4.6,12,12,12,5.331,0,11.12-4.277,17.217-12.712a29.131,29.131,0,0,0,4.117,1.281v4.763a1.333,1.333,0,0,0,1.334,1.334H45.334a1.334,1.334,0,0,0,1.334-1.334V68.569a28.96,28.96,0,0,0,9.355-3.994l3.034,3.034a1.335,1.335,0,0,0,1.886,0l6.667-6.666a1.335,1.335,0,0,0,0-1.886l-3.034-3.034a28.991,28.991,0,0,0,3.994-9.357h4.763a1.334,1.334,0,0,0,1.334-1.334V34.666a1.334,1.334,0,0,0-1.334-1.334H68.57a28.96,28.96,0,0,0-3.994-9.355l3.034-3.035a1.333,1.333,0,0,0,0-1.885l-.391-.391L69.886,16ZM15.425,56.023,14,57.447l-2.434-2.434q1.07-.866,2.264-1.744a29.379,29.379,0,0,0,1.6,2.754m-5.893.727,2.624,2.624a1.331,1.331,0,0,0,.234,1.568l6.666,6.667a1.335,1.335,0,0,0,1.569.234l2.624,2.625q-1.056,1.167-2.087,2.142L7.391,58.838q.974-1.032,2.142-2.088M2.667,68c0-2.192,1.013-4.592,2.979-7.135L19.135,74.353C16.594,76.32,14.193,77.333,12,77.333c-5.931,0-9.333-3.4-9.333-9.333m22.32.434L22.553,66l1.424-1.425a29.076,29.076,0,0,0,2.754,1.594Q25.854,67.362,24.987,68.434ZM61.765,24.586a26.387,26.387,0,0,1,4.417,10.333A1.332,1.332,0,0,0,67.49,36H72v8H67.49a1.331,1.331,0,0,0-1.309,1.08,26.387,26.387,0,0,1-4.417,10.333,1.333,1.333,0,0,0,.145,1.714L64.782,60,60,64.781l-2.872-2.872a1.333,1.333,0,0,0-1.714-.145,26.37,26.37,0,0,1-10.333,4.417A1.333,1.333,0,0,0,44,67.489V72H36V67.489a1.332,1.332,0,0,0-1.08-1.309,26.37,26.37,0,0,1-10.333-4.417,1.334,1.334,0,0,0-1.714.145L20,64.781,15.219,60l2.872-2.873a1.333,1.333,0,0,0,.145-1.713,26.346,26.346,0,0,1-4.417-10.333A1.333,1.333,0,0,0,12.511,44H8V36h4.511a1.333,1.333,0,0,0,1.309-1.081,26.349,26.349,0,0,1,4.417-10.333,1.334,1.334,0,0,0-.145-1.714L15.219,20,20,15.218l2.873,2.872a1.331,1.331,0,0,0,1.713.145,26.363,26.363,0,0,1,10.333-4.417A1.332,1.332,0,0,0,36,12.51V8h8v4.51a1.334,1.334,0,0,0,1.081,1.31,26.346,26.346,0,0,1,10.333,4.416,1.389,1.389,0,0,0,.3.161l-1.945,1.945A23.747,23.747,0,0,0,40,16,24,24,0,1,0,64,40a23.747,23.747,0,0,0-4.342-13.773L61.6,24.282A1.342,1.342,0,0,0,61.765,24.586Zm-7.9,7.431a16,16,0,0,1-17.5,23.566c.36-.7.61-1.2.738-1.467l5.565-5.563.39.391a1.335,1.335,0,0,0,1.886,0l4-4a1.333,1.333,0,0,0,0-1.886L45.886,40ZM40.782,46.666,36,51.447,28.553,44l4.781-4.782ZM26.4,45.617,34.383,53.6c-.155.309-.353.7-.589,1.146a16.089,16.089,0,0,1-8.541-8.541C25.7,45.97,26.09,45.773,26.4,45.617ZM46.114,44,44,46.114,33.886,36,36,33.886ZM36.943,31.057a1.331,1.331,0,0,0-1.885,0l-4,4a1.331,1.331,0,0,0,0,1.885l.39.391L25.885,42.9c-.265.129-.771.379-1.467.739A16.006,16.006,0,0,1,47.984,26.13L40,34.114Zm12.983-6.869a18.675,18.675,0,1,0,5.885,5.887l1.928-1.928A21.09,21.09,0,0,1,61.334,40,21.333,21.333,0,1,1,40,18.666a21.09,21.09,0,0,1,11.853,3.6ZM68.391,13.724,44,38.114,41.886,36,66.277,11.609a1.334,1.334,0,0,0,.391-.943V8.686l7.855-5.611,2.4,2.4-5.611,7.856H69.334A1.334,1.334,0,0,0,68.391,13.724Z" transform="translate(0 0)"/>
      </g>
    </g>
  </g>
</svg>
