<svg xmlns="http://www.w3.org/2000/svg" xmlns:xlink="http://www.w3.org/1999/xlink" width="157" height="157" viewBox="0 0 157 157">
  <defs>
    <clipPath id="clip-path">
      <rect id="Rectángulo_294902" data-name="Rectángulo 294902" width="83.272" height="85" fill="none"/>
    </clipPath>
  </defs>
  <g id="Grupo_175360" data-name="Grupo 175360" transform="translate(6210 5747)">
    <circle id="Elipse_5047" data-name="Elipse 5047" cx="78.5" cy="78.5" r="78.5" transform="translate(-6210 -5747)" fill="#fff"/>
    <g id="Grupo_175293" data-name="Grupo 175293" transform="translate(-6173 -5711)" clip-path="url(#clip-path)">
      <path id="Trazado_262533" data-name="Trazado 262533" d="M49.958,77.464a4.213,4.213,0,0,1-2.875,1.12H14.5a4.249,4.249,0,0,1-4.25-4.25v-21a49.429,49.429,0,0,1,4.01-19.522l4.123-9.62a1.414,1.414,0,0,1,1.3-.863H41.9a1.416,1.416,0,0,1,1.3.863l4.122,9.62c.185.453.368.892.553,1.345a22.687,22.687,0,0,0-6.9,36.777A22.314,22.314,0,0,0,49.958,77.464Z" transform="translate(2.196 5)" fill="#81af1d" fill-rule="evenodd"/>
      <path id="Trazado_262534" data-name="Trazado 262534" d="M37.474,71.939a22.687,22.687,0,0,1,6.9-36.777c-.185-.453-.369-.892-.552-1.345L39.7,24.2a1.417,1.417,0,0,0-1.3-.863h-4.25a1.417,1.417,0,0,1,1.3.863l4.122,9.62c.183.453.368.892.553,1.345a22.687,22.687,0,0,0-6.9,36.777,22.314,22.314,0,0,0,8.982,5.525,4.216,4.216,0,0,1-2.877,1.12h4.25a4.216,4.216,0,0,0,2.877-1.12A22.314,22.314,0,0,1,37.474,71.939Z" transform="translate(5.7 5)" fill="#678c18" fill-rule="evenodd"/>
      <rect id="Rectángulo_294898" data-name="Rectángulo 294898" width="21.25" height="15.583" transform="translate(22.362 12.75)" fill="#f5d5b5"/>
      <rect id="Rectángulo_294899" data-name="Rectángulo 294899" width="4.25" height="15.583" transform="translate(39.362 12.75)" fill="#e2872c"/>
      <path id="Trazado_262535" data-name="Trazado 262535" d="M44.417,11.917v5.667A1.417,1.417,0,0,1,43,19H35.917V10.5H43a1.418,1.418,0,0,1,1.418,1.417" transform="translate(7.696 2.25)" fill="#9e9e9e" fill-rule="evenodd"/>
      <path id="Trazado_262536" data-name="Trazado 262536" d="M42.5,10.5H38.25a1.417,1.417,0,0,1,1.417,1.417v5.666A1.417,1.417,0,0,1,38.25,19H42.5a1.417,1.417,0,0,0,1.417-1.417V11.917A1.417,1.417,0,0,0,42.5,10.5" transform="translate(8.196 2.25)" fill="#707070" fill-rule="evenodd"/>
      <rect id="Rectángulo_294900" data-name="Rectángulo 294900" width="5.667" height="5.667" transform="translate(29.446 7.083)" fill="#707070"/>
      <path id="Trazado_262537" data-name="Trazado 262537" d="M36.583,4a2.771,2.771,0,0,1-.835,2,2.768,2.768,0,0,1-2,.835H22.416A2.841,2.841,0,0,1,19.583,4a2.771,2.771,0,0,1,.835-2,2.768,2.768,0,0,1,2-.835H33.75A2.841,2.841,0,0,1,36.583,4" transform="translate(4.196 0.25)" fill="#9e9e9e" fill-rule="evenodd"/>
      <path id="Trazado_262538" data-name="Trazado 262538" d="M32,1.167H27.75A2.841,2.841,0,0,1,30.583,4a2.766,2.766,0,0,1-.835,2,2.772,2.772,0,0,1-2,.837H32A2.772,2.772,0,0,0,34,6a2.766,2.766,0,0,0,.835-2A2.841,2.841,0,0,0,32,1.167" transform="translate(5.946 0.25)" fill="#707070" fill-rule="evenodd"/>
      <path id="Trazado_262539" data-name="Trazado 262539" d="M22.115,10.5v9.917h-8.5a1.4,1.4,0,0,0-1.4,1.2,18.117,18.117,0,0,1-2.535,8.954,44.84,44.84,0,0,0-3.259,6.29l-.58,1.3a2.431,2.431,0,0,1-3.2,1.26,2.457,2.457,0,0,1-1.473-2.253A2.184,2.184,0,0,1,1.2,36.75L4.915,16.323a7.1,7.1,0,0,1,6.97-5.823Z" transform="translate(0.249 2.25)" fill="#81af1d" fill-rule="evenodd"/>
      <path id="Trazado_262540" data-name="Trazado 262540" d="M7.9,19.871a18.113,18.113,0,0,1-2.535,8.953,44.9,44.9,0,0,0-3.258,6.29l-.582,1.3a1.816,1.816,0,0,1-.1.183,2.408,2.408,0,0,0,4.353-.183l.58-1.3a44.907,44.907,0,0,1,3.259-6.29,18.113,18.113,0,0,0,2.535-8.953,1.407,1.407,0,0,1,1.4-1.2H9.307a1.406,1.406,0,0,0-1.4,1.2" transform="translate(0.306 4)" fill="#678c18" fill-rule="evenodd"/>
      <rect id="Rectángulo_294901" data-name="Rectángulo 294901" width="4.25" height="9.917" transform="translate(18.112 12.75)" fill="#678c18"/>
      <path id="Trazado_262541" data-name="Trazado 262541" d="M68.771,70.188a22.625,22.625,0,0,1-23.063,5.525,22.314,22.314,0,0,1-8.982-5.525,22.659,22.659,0,1,1,32.045,0" transform="translate(6.448 6.751)" fill="#ffdf00" fill-rule="evenodd"/>
      <path id="Trazado_262542" data-name="Trazado 262542" d="M65.141,38.142a22.589,22.589,0,0,0-18.112-6.529,22.666,22.666,0,0,1,.013,45.112,22.656,22.656,0,0,0,18.1-38.583Z" transform="translate(10.078 6.753)" fill="#fec108" fill-rule="evenodd"/>
      <path id="Trazado_262543" data-name="Trazado 262543" d="M60.416,53.633l-.681.68-3.428,3.428-2.352,2.367A10.526,10.526,0,0,1,52.878,61,8.114,8.114,0,0,1,41.6,49.723a10.332,10.332,0,0,1,.891-1.077L44.86,46.3l4.108-4.109a2.333,2.333,0,0,1,3.26.015l.239.255c-.652,1.615.878,3.173,2.692,4.987s3.371,3.358,5,2.691l.24.242A2.33,2.33,0,0,1,60.416,53.633Z" transform="translate(8.612 8.899)" fill="#f44335" fill-rule="evenodd"/>
      <path id="Trazado_262544" data-name="Trazado 262544" d="M59.343,50.374l-.24-.24c-1.63.665-3.174-.865-5-2.692s-3.343-3.372-2.691-4.987l-.242-.255a2.33,2.33,0,0,0-3.258-.013l-.895.895c-.1,1.4,1.258,2.782,2.833,4.361,1.827,1.827,3.372,3.357,5,2.692l.242.24a2.33,2.33,0,0,1,.013,3.258l-.68.68L51,57.741l-2.352,2.365A10.644,10.644,0,0,1,47.569,61a7.859,7.859,0,0,1-2.439,1.133A8.016,8.016,0,0,0,51.819,61a10.644,10.644,0,0,0,1.076-.892l2.352-2.365,3.428-3.429.68-.68A2.329,2.329,0,0,0,59.343,50.374Z" transform="translate(9.67 8.899)" fill="#c81e1e" fill-rule="evenodd"/>
      <path id="Trazado_262545" data-name="Trazado 262545" d="M59.07,49.656a3.332,3.332,0,0,1-1.048.737c-1.63.665-3.174-.865-5-2.692s-3.343-3.372-2.691-4.987a2.835,2.835,0,0,1,.736-1.062,5.681,5.681,0,0,1,8,8Z" transform="translate(10.752 8.64)" fill="#607d8b" fill-rule="evenodd"/>
      <path id="Trazado_262546" data-name="Trazado 262546" d="M58.326,41.992a5.607,5.607,0,0,0-6.206-1.313,6.029,6.029,0,0,1,1.956,1.313,5.431,5.431,0,0,1,.449,7.525,3.021,3.021,0,0,0,3.078.89,3.286,3.286,0,0,0,1.048-.737,5.421,5.421,0,0,0-.325-7.678Z" transform="translate(11.169 8.625)" fill="#37474f" fill-rule="evenodd"/>
      <path id="Trazado_262547" data-name="Trazado 262547" d="M76.226,43.887l-.01-.008a24.008,24.008,0,0,0-25.377-5.525L46.7,28.64a2.844,2.844,0,0,0-1.67-1.548V22.666H50.7a2.832,2.832,0,0,0,2.833-2.833V18.416h1.417a1.416,1.416,0,1,0,0-2.833H53.529V14.166A2.833,2.833,0,0,0,50.7,11.333H36.529V8.5h1.417a4.25,4.25,0,0,0,0-8.5H26.613a4.25,4.25,0,0,0,0,8.5h1.416v2.833H22.876l-8.1-6.755a1.418,1.418,0,0,0-1.818,2.176l5.5,4.579H12.134a8.518,8.518,0,0,0-8.358,6.986L.063,38.75a3.856,3.856,0,0,0,7.325,2.239l.578-1.31a43.37,43.37,0,0,1,3.154-6.092,17.454,17.454,0,0,0,2.642-8.5c.034-.379.061-.716.1-.992h7.083v3.01a2.847,2.847,0,0,0-1.67,1.546l-4.124,9.618a50.594,50.594,0,0,0-4.124,20.069V79.333A5.668,5.668,0,0,0,16.7,85H49.279a5.643,5.643,0,0,0,3.151-.97A24.084,24.084,0,0,0,76.23,43.9Zm-3.055,1.05L69.4,48.705a6.756,6.756,0,0,0-8.594.579c-.022.024-.039.049-.063.072a3.744,3.744,0,0,0-1.542-.348,4.72,4.72,0,0,0-.882.127v-1.37l3.021-3.02a1.418,1.418,0,0,0-2.006-2l-3.433,3.441a1.411,1.411,0,0,0-.417,1v3.993L53.471,53.2,51.04,50.762a1.417,1.417,0,1,0-2,2L51.467,55.2l-1.354,1.355a8.26,8.26,0,0,0-.593.662H45.454a1.412,1.412,0,0,0-1,.415l-3.432,3.427a1.417,1.417,0,1,0,2,2l3.02-3.019h1.9a9.437,9.437,0,0,0,1.319,8.8l-6.05,6.048A21.226,21.226,0,0,1,73.17,44.937Zm-4.9,15.979a.846.846,0,0,1-.245.611l-.673.673L61.562,68a6.607,6.607,0,0,1-8.254.817L63.791,58.333a6.81,6.81,0,0,0,4.26,2.294c.052,0,.109-.015.16-.018A.839.839,0,0,1,68.272,60.916ZM51.38,59.439a6.577,6.577,0,0,1,.733-.888l5.788-5.79.672-.673a.853.853,0,0,1,.606-.243.457.457,0,0,1,.334.038,3.887,3.887,0,0,0,.4,1.974,10.01,10.01,0,0,0,1.861,2.473L51.29,66.815A6.584,6.584,0,0,1,51.38,59.439Zm12.408-5.117a7.632,7.632,0,0,1-1.308-1.688c-.2-.415-.283-.732.334-1.347a3.547,3.547,0,0,1,2.541-1.019,4.321,4.321,0,0,1,1.972.512ZM68.826,57.3c-.708.708-1.195.742-3.031-.976l3.541-3.542a3.843,3.843,0,0,1-.506,4.52ZM50.7,19.833H45.029V14.166H50.7ZM42.2,21.25v5.666H23.779V14.166H42.2Zm-17-17a1.416,1.416,0,0,1,1.417-1.417H37.946a1.416,1.416,0,1,1,0,2.833H26.613A1.416,1.416,0,0,1,25.2,4.25M30.863,8.5H33.7v2.833H30.863Zm-17,12.75a2.813,2.813,0,0,0-2.8,2.421c-.049.333-.083.724-.123,1.164a14.533,14.533,0,0,1-2.2,7.214,45.886,45.886,0,0,0-3.365,6.49L4.8,39.849a1.023,1.023,0,0,1-1.942-.594L6.56,18.83a5.681,5.681,0,0,1,5.575-4.664h8.812V21.25ZM16.7,82.166a2.833,2.833,0,0,1-2.833-2.833V58.338a47.743,47.743,0,0,1,3.894-18.964l4.124-9.624H44.1L48.2,39.343l.05.119A24.078,24.078,0,0,0,42.162,77.93l.008.01.008.008a24.243,24.243,0,0,0,5.667,4.212Zm57.526-6.224a21.206,21.206,0,0,1-29,.953l6.041-6.043a9.511,9.511,0,0,0,5.667,1.893,9.367,9.367,0,0,0,3.136-.567v1.887l-3.02,3.02a1.42,1.42,0,0,0,2.008,2.007l3.433-3.441a1.416,1.416,0,0,0,.414-1v-4.1c.223-.183.468-.355.663-.549l1.358-1.358,2.431,2.433a1.417,1.417,0,1,0,2-2l-2.435-2.432,2.018-2.019h4a1.419,1.419,0,0,0,1-.414l3.43-3.433a1.417,1.417,0,0,0-2-2L72.346,61.79H70.993a3.566,3.566,0,0,0-.239-2.425c.025-.024.05-.039.074-.062a6.758,6.758,0,0,0,.579-8.594l3.768-3.768a21.209,21.209,0,0,1-.953,29Z" transform="translate(0)"/>
    </g>
  </g>
</svg>
