<svg xmlns="http://www.w3.org/2000/svg" xmlns:xlink="http://www.w3.org/1999/xlink" width="157" height="157" viewBox="0 0 157 157">
  <defs>
    <clipPath id="clip-path">
      <rect id="Rectángulo_44491" data-name="Rectángulo 44491" width="85" height="77.573" fill="none"/>
    </clipPath>
  </defs>
  <g id="Grupo_175359" data-name="Grupo 175359" transform="translate(6564 5747)">
    <circle id="Elipse_5047" data-name="Elipse 5047" cx="78.5" cy="78.5" r="78.5" transform="translate(-6564 -5747)" fill="#fff"/>
    <g id="Grupo_175292" data-name="Grupo 175292" transform="translate(-6528 -5707)">
      <g id="Grupo_171758" data-name="Grupo 171758" clip-path="url(#clip-path)">
        <path id="Trazado_259300" data-name="Trazado 259300" d="M18.887,284.174v25.747h19.2V293.113l-8.445-8.421c-4.916,0-10.754-.519-10.754-.519" transform="translate(-15.751 -236.997)" fill="#7e707d" fill-rule="evenodd"/>
        <path id="Trazado_259301" data-name="Trazado 259301" d="M237.337,309.589h14.747V284.174l-9.159,2.633-5.589,6.306Z" transform="translate(-197.935 -236.997)" fill="#7e707d" fill-rule="evenodd"/>
        <path id="Trazado_259302" data-name="Trazado 259302" d="M414.318,21.444V27.79l3.268,2.485,3.268-2.485V21.444h8.436v-5.7h-11.7a3.277,3.277,0,0,0-3.268,3.268v2.437Z" transform="translate(-345.535 -13.126)" fill="#7e707d" fill-rule="evenodd"/>
        <path id="Trazado_259303" data-name="Trazado 259303" d="M94.943,328.456v3.6l10.526,3.3,10.526-3.3v-3.6a3.9,3.9,0,0,0,0-7.8V317.07L105.468,312.9,94.943,317.07v3.586a3.9,3.9,0,1,0,0,7.8" transform="translate(-75.928 -260.954)" fill="#eff6ff" fill-rule="evenodd"/>
        <path id="Trazado_259304" data-name="Trazado 259304" d="M351.408,238.79,349,241.705l2.408,3.621h11.7a3.28,3.28,0,0,0,3.268-3.268V222.4l-3.268-4.271-3.268,4.271V238.79Z" transform="translate(-291.061 -181.918)" fill="#7e707d" fill-rule="evenodd"/>
        <path id="Trazado_259305" data-name="Trazado 259305" d="M332.367,333.525v-6.536a3.108,3.108,0,0,0-3.1-3.1h-3.1v12.735h3.1a3.107,3.107,0,0,0,3.1-3.1" transform="translate(-272.019 -270.117)" fill="#81af20" fill-rule="evenodd"/>
        <path id="Trazado_259306" data-name="Trazado 259306" d="M18.887,73.431V90.512a8.966,8.966,0,0,0,8.939,8.939H60.961A8.966,8.966,0,0,0,69.9,90.512v-34.3a4.262,4.262,0,0,0-4.251-4.251H64.7L44.394,75.15,24.088,51.961h-.95a4.265,4.265,0,0,0-4.251,4.251Z" transform="translate(-15.751 -43.335)" fill="#ecf3dd" fill-rule="evenodd"/>
        <path id="Trazado_259307" data-name="Trazado 259307" d="M57.308,75.15H83.741c1.919,0,4.56-.907,4.921-4.1l2.166-19.085H50.216l2.166,19.085C52.743,74.243,55.389,75.15,57.308,75.15Z" transform="translate(-41.879 -43.335)" fill="#eff6ff" fill-rule="evenodd"/>
        <path id="Trazado_259308" data-name="Trazado 259308" d="M396.894,100.055V112.02a2.135,2.135,0,0,0,2.133,2.128h10.35a2.134,2.134,0,0,0,2.128-2.128V101.313c0-1.311,0-2.095-2.289-4.156v-6.7a2.138,2.138,0,0,0-2.133-2.128h-8.056a2.138,2.138,0,0,0-2.133,2.128v9.6Z" transform="translate(-331.003 -73.663)" fill="#ecf3dd" fill-rule="evenodd"/>
        <path id="Trazado_259309" data-name="Trazado 259309" d="M129.33,245.157H108.278a1.245,1.245,0,1,1,0-2.49H129.33a1.245,1.245,0,1,1,0,2.49m0-5.306H108.278a1.245,1.245,0,0,1,0-2.49H129.33a1.245,1.245,0,1,1,0,2.49" transform="translate(-89.264 -197.955)"/>
        <path id="Trazado_259310" data-name="Trazado 259310" d="M289.89,292.624v15.471h6.023V284.174a8.975,8.975,0,0,1-6.023,8.45" transform="translate(-241.764 -236.997)" fill="#6a5c69" fill-rule="evenodd"/>
        <path id="Trazado_259311" data-name="Trazado 259311" d="M289.89,59.225V98.963a8.974,8.974,0,0,0,6.023-8.45v-34.3a4.262,4.262,0,0,0-4.251-4.251h-.95Z" transform="translate(-241.764 -43.336)" fill="#81af20" fill-rule="evenodd"/>
        <path id="Trazado_259312" data-name="Trazado 259312" d="M228.772,51.961l-2.166,19.085c-.366,3.2-3.007,4.1-4.926,4.1h5.059c1.919,0,4.56-.907,4.921-4.1L233,59.224l.822-7.263h-5.054Z" transform="translate(-184.878 -43.335)" fill="#d9eeff" fill-rule="evenodd"/>
        <path id="Trazado_259313" data-name="Trazado 259313" d="M8.668,433.492H61.126a1.171,1.171,0,0,0,1.168-1.168v-2.893a1.171,1.171,0,0,0-1.168-1.168H8.668A1.171,1.171,0,0,0,7.5,429.431v2.893a1.171,1.171,0,0,0,1.168,1.168" transform="translate(-6.255 -357.165)" fill="#ecf3dd" fill-rule="evenodd"/>
        <path id="Trazado_259314" data-name="Trazado 259314" d="M291.058,429.43v2.893a1.172,1.172,0,0,1-1.159,1.168h6.735a1.171,1.171,0,0,0,1.168-1.168V429.43a1.171,1.171,0,0,0-1.168-1.168H289.89a1.174,1.174,0,0,1,1.168,1.168" transform="translate(-241.764 -357.164)" fill="#81af20" fill-rule="evenodd"/>
        <path id="Trazado_259315" data-name="Trazado 259315" d="M430.844,101.313V112.02a2.134,2.134,0,0,1-2.128,2.128H434a2.134,2.134,0,0,0,2.128-2.128V101.313c0-1.311,0-2.095-2.289-4.156v-6.7a2.138,2.138,0,0,0-2.133-2.128h-5.287a2.138,2.138,0,0,1,2.133,2.128v6.7C430.844,99.219,430.844,100,430.844,101.313Z" transform="translate(-355.629 -73.663)" fill="#81af20" fill-rule="evenodd"/>
        <path id="Trazado_259316" data-name="Trazado 259316" d="M417.587,243.86v19.655a3.28,3.28,0,0,1-3.268,3.268h3.268a3.28,3.28,0,0,0,3.268-3.268V243.86h-3.268Z" transform="translate(-345.536 -203.375)" fill="#6a5c69" fill-rule="evenodd"/>
        <path id="Trazado_259317" data-name="Trazado 259317" d="M434,35.367v6.74h3.268V35.761h8.436V32.906l-8.778.043C435.148,32.906,434,33.865,434,35.367Z" transform="translate(-361.952 -27.443)" fill="#6a5c69" fill-rule="evenodd"/>
        <path id="Trazado_259318" data-name="Trazado 259318" d="M133.445,86.89a6.488,6.488,0,1,0,6.488-6.489,6.491,6.491,0,0,0-6.488,6.489" transform="translate(-111.291 -67.053)" fill="#e2872c" fill-rule="evenodd"/>
        <path id="Trazado_259319" data-name="Trazado 259319" d="M109.079,375.613h-.029a1.245,1.245,0,0,0,0,2.49h.029a1.245,1.245,0,1,0,0-2.49" transform="translate(-89.908 -313.255)"/>
        <path id="Trazado_259320" data-name="Trazado 259320" d="M234.309,378.1h.033a1.245,1.245,0,0,0,0-2.49h-.033a1.245,1.245,0,0,0,0,2.49" transform="translate(-194.372 -313.255)"/>
        <path id="Trazado_259321" data-name="Trazado 259321" d="M83.755,1.368h-11.7a4.518,4.518,0,0,0-4.513,4.513v7.577a3.377,3.377,0,0,0-2.893,3.334v7.472a1.245,1.245,0,1,0,2.49,0V16.792a.9.9,0,0,1,.888-.883h8.056a.9.9,0,0,1,.888.883v6.7a1.245,1.245,0,0,0,.412.925c1.877,1.691,1.877,2.141,1.877,3.231V38.357a.884.884,0,0,1-.883.883H68.023a.886.886,0,0,1-.888-.883V30.2a1.245,1.245,0,0,0-2.49,0v8.16a3.377,3.377,0,0,0,2.893,3.334V55.627H61.41a4.35,4.35,0,0,0-4.16-3.1H55.394V12.878a5.5,5.5,0,0,0-5.5-5.5h-6.2L41.977,2.5A3.829,3.829,0,0,0,38.228,0H19.062a3.884,3.884,0,0,0-3.754,2.495L13.591,7.381h-6.2a5.5,5.5,0,0,0-5.5,5.5V69.912A2.417,2.417,0,0,0,0,72.267v2.893a2.416,2.416,0,0,0,2.414,2.414H54.871a2.416,2.416,0,0,0,2.414-2.414V72.267a2.417,2.417,0,0,0-1.891-2.355V67.75h1.857a4.349,4.349,0,0,0,4.159-3.1H72.051a4.518,4.518,0,0,0,4.513-4.513V41.73h1.809a3.377,3.377,0,0,0,3.373-3.373V27.65c0-1.55-.116-2.638-2.289-4.7V16.792a3.377,3.377,0,0,0-2.893-3.334V9.563h7.191A1.245,1.245,0,0,0,85,8.318v-5.7A1.245,1.245,0,0,0,83.755,1.368Zm-66.1,1.951a1.432,1.432,0,0,1,1.4-.829H38.227a1.427,1.427,0,0,1,1.4.83l1.427,4.061H16.231ZM4.381,12.878a3.007,3.007,0,0,1,2.845-3l2.04,17.972c.434,3.845,3.591,5.209,6.163,5.209H25.583a1.245,1.245,0,1,0,0-2.49H15.428a3.368,3.368,0,0,1-3.688-3L9.731,9.871H47.554l-2.009,17.7a3.365,3.365,0,0,1-3.684,3H31.112a1.245,1.245,0,1,0,0,2.49H41.861c2.569,0,5.724-1.364,6.158-5.209L50.059,9.88a3.007,3.007,0,0,1,2.845,3v34.3a7.7,7.7,0,0,1-7.694,7.694H12.075a7.7,7.7,0,0,1-7.694-7.694Zm14.634,53.38a2.655,2.655,0,0,1,0-5.309A1.245,1.245,0,0,0,20.259,59.7V57.362H38.821V59.7a1.245,1.245,0,0,0,1.245,1.245,2.655,2.655,0,0,1,0,5.309A1.245,1.245,0,0,0,38.821,67.5v2.351H20.259V67.5a1.245,1.245,0,0,0-1.245-1.245m22.3,2.338a5.147,5.147,0,0,0,0-9.984V57.362h3.9A10.162,10.162,0,0,0,52.9,53.839V69.853H41.311ZM4.381,53.839a10.162,10.162,0,0,0,7.694,3.523h5.694V58.61a5.146,5.146,0,0,0,0,9.985v1.258H4.381ZM54.794,75.083H2.49V72.343h52.3ZM59.1,63.408a1.854,1.854,0,0,1-1.852,1.852H55.394V55.015h1.857A1.856,1.856,0,0,1,59.1,56.872ZM74.074,60.14a2.025,2.025,0,0,1-2.023,2.023H61.593V58.117h7.191a1.245,1.245,0,0,0,1.245-1.245V41.73h4.046ZM82.51,7.072H75.319a1.245,1.245,0,0,0-1.245,1.245v5.1H70.028V5.881a2.025,2.025,0,0,1,2.023-2.023H82.51Z"/>
        <path id="Trazado_259322" data-name="Trazado 259322" d="M141.411,80.635a7.734,7.734,0,1,0-7.734,7.734A7.742,7.742,0,0,0,141.411,80.635Zm-8.978,3.629v1.464a5.26,5.26,0,0,1-3.847-3.848h1.464a1.245,1.245,0,0,0,0-2.49h-1.464a5.26,5.26,0,0,1,3.847-3.848v1.464a1.245,1.245,0,0,0,2.49,0V75.543a5.26,5.26,0,0,1,3.847,3.848h-1.464a1.245,1.245,0,0,0,0,2.49h1.464a5.26,5.26,0,0,1-3.847,3.848V84.264a1.245,1.245,0,0,0-2.49,0" transform="translate(-105.035 -60.799)"/>
      </g>
    </g>
  </g>
</svg>
